<svg width="40" height="40" viewBox="0 0 40 40" fill="none" xmlns="http://www.w3.org/2000/svg">
<path d="M16.0788 19.7091C15.8154 19.47 15.5762 19.2784 15.4566 19.1588C14.9783 18.7524 14.7391 18.2974 14.6438 17.8191L13.5432 19.2065C13.5189 19.2541 13.4479 19.2784 13.3993 19.2784H9.62112C8.8793 19.2784 8.30566 19.8764 8.30566 20.5939C8.30566 21.3357 8.9036 21.9093 9.62112 21.9093H13.4235C14.2849 21.9093 15.0977 21.5263 15.648 20.8331L16.3412 19.924C16.3412 19.924 16.3169 19.8997 16.2936 19.8997L16.0788 19.7091Z" fill="black"/>
<path d="M23.0394 21.4785C22.6806 20.689 22.1546 19.9715 21.5091 19.4212L19.8105 17.9862L21.8435 13.538C22.0584 13.7053 22.2742 13.8968 22.561 14.136C23.1113 14.6143 23.8288 14.8778 24.5697 14.9011L27.1286 14.9731C27.7266 14.9974 28.2292 14.519 28.2526 13.8968C28.2768 13.2989 27.7985 12.7962 27.1763 12.7729L24.6174 12.7009C24.3782 12.7009 24.1633 12.6056 23.9951 12.4618C21.9145 10.6922 21.6277 10.6436 21.3398 10.5727L19.5703 10.2382C19.3311 10.1906 19.0443 10.1429 15.7435 10.7642C15.0017 10.9081 14.3328 11.2902 13.8544 11.8881L12.4194 13.6343C12.0363 14.1126 12.1083 14.8058 12.5633 15.1889C12.7782 15.3561 13.0173 15.4281 13.2565 15.4281C13.5676 15.4281 13.8787 15.2842 14.1179 15.0217L15.5529 13.2755C15.6968 13.084 15.9117 12.9644 16.1509 12.9168C16.5573 12.8448 16.9403 12.7729 17.2515 12.7252L16.462 14.8302L16.3181 15.2132C15.7445 16.7435 15.4334 17.6525 16.2462 18.3701C16.4134 18.5139 16.7245 18.7765 17.0833 19.1119C18.1839 20.0686 19.8582 21.456 19.8582 21.456C20.2169 21.7671 20.5038 22.1492 20.6953 22.5799L22.2742 26.0955C22.4891 26.5739 22.9674 26.885 23.4701 26.885C23.6616 26.885 23.8288 26.8607 23.9961 26.7654C24.666 26.4786 24.9528 25.6891 24.666 25.0192L23.0394 21.4785Z" fill="black"/>
<path d="M21.7241 5.06808C23.0339 5.38293 23.8402 6.70025 23.5253 8.01015C23.2105 9.32001 21.8932 10.1272 20.5833 9.81238C19.2734 9.49753 18.4671 8.18021 18.782 6.8703C19.0969 5.56044 20.4142 4.75323 21.7241 5.06808Z" fill="black"/>
<path d="M31.0276 24.6842C31.0276 25.8857 30.0532 26.8601 28.8507 26.8601C27.6493 26.8601 26.6748 25.8857 26.6748 24.6842C26.6748 23.4818 27.6492 22.5073 28.8507 22.5073C30.0531 22.5073 31.0276 23.4818 31.0276 24.6842Z" fill="black"/>
<path d="M7.7071 31.7071C7.07714 31.0771 7.52331 30 8.41421 30H27.6765C28.7373 30 29.7548 30.4214 30.5049 31.1716L32.2929 32.9596C32.9229 33.5895 32.4767 34.6667 31.5858 34.6667H12.3235C11.2627 34.6667 10.2452 34.2452 9.49509 33.4951L7.7071 31.7071Z" fill="#386431"/>
</svg>
