<svg width="40" height="40" viewBox="0 0 40 40" fill="none" xmlns="http://www.w3.org/2000/svg">
<path d="M7.7071 31.7071C7.07714 31.0771 7.52331 30 8.41421 30H27.6765C28.7373 30 29.7548 30.4214 30.5049 31.1716L32.2929 32.9596C32.9229 33.5895 32.4767 34.6667 31.5858 34.6667H12.3235C11.2627 34.6667 10.2452 34.2452 9.49509 33.4951L7.7071 31.7071Z" fill="#386431"/>
<path d="M7.7071 31.7071C7.07714 31.0771 7.52331 30 8.41421 30H18.3333L23 34.6667H12.3235C11.2627 34.6667 10.2452 34.2452 9.49509 33.4951L7.7071 31.7071Z" fill="#CBC75F"/>
<path d="M32.077 24.8931H30.383V8.57385C30.383 8.41211 30.3021 8.25144 30.1677 8.17056C30.0333 8.08969 29.8453 8.0897 29.7109 8.14326L25.3022 10.3477C25.1405 10.4285 25.0333 10.5892 25.0333 10.7783C25.0333 10.9662 25.1405 11.128 25.3022 11.2089L29.442 13.2788V24.8931H16.4561V24.8658L16.1872 18.2514C16.1872 18.0361 16.1337 17.8481 16.0528 17.6864L14.3052 13.6536C14.467 13.5191 14.6276 13.412 14.7621 13.2776L15.9992 12.1749C16.0801 12.094 16.161 12.0131 16.2145 11.906L17.0211 10.1049L17.3435 10.2393C17.3708 10.2666 17.4244 10.2666 17.4506 10.2666C17.5851 10.2666 17.6922 10.1858 17.7195 10.0786C17.773 9.9169 17.6922 9.75622 17.5577 9.67535L17.2353 9.54092C17.2889 9.1912 17.1009 8.81523 16.7512 8.65349C16.3752 8.49176 15.9446 8.59993 15.7031 8.94966L8.20257 6.01968C8.01458 5.96612 7.88015 6.01968 7.71841 6.20767C7.50312 6.44922 7.26157 6.71806 7.07359 6.90712C6.77742 7.22953 7.44956 8.38582 7.77304 8.00985C8.06921 7.66013 8.33807 7.12242 8.49874 6.80001L15.4615 9.48856L14.7621 11.0208L13.6594 12.0154C13.2288 12.4186 12.691 12.7148 12.1533 12.929L10.8091 13.4394C10.5938 13.5203 10.4331 13.681 10.3249 13.8963C10.244 14.1116 10.244 14.3531 10.3249 14.5684L12.126 18.8427L11.9107 21.3968L10.5412 24.5168C10.4877 24.6513 10.4604 24.7857 10.4604 24.9201H8.41769C8.14883 24.9201 7.96085 25.1354 7.96085 25.377C7.96085 25.6185 8.17614 25.8338 8.41769 25.8338H32.0495C32.3183 25.8338 32.5063 25.6185 32.5063 25.377C32.5063 25.1354 32.3186 24.8931 32.077 24.8931ZM12.4232 24.8931L13.7139 22.0166C13.7675 21.9095 13.7675 21.8013 13.7948 21.7204L14.0363 18.763L14.3325 18.7095L14.6013 24.9205H12.4232L12.4232 24.8931Z" fill="black"/>
<path d="M11.6164 13.6067C12.5574 13.2034 13.0142 12.1007 12.611 11.1334C12.2077 10.1925 11.1049 9.73561 10.1377 10.1389C9.19672 10.5422 8.73989 11.6449 9.14317 12.6121C9.57377 13.5805 10.6754 14.01 11.6164 13.6067Z" fill="black"/>
<path d="M18.4729 23.9315C19.145 23.5818 19.8172 23.2867 20.5166 23.0441C20.8128 22.937 21.0816 22.8561 21.3767 22.7752C21.2423 22.5599 21.1352 22.2911 21.1614 22.0222C20.8653 22.1566 20.5702 22.2911 20.274 22.4528C19.6019 22.8025 18.9297 23.2058 18.3112 23.6627C18.2303 23.7162 18.2303 23.7971 18.2576 23.878C18.2849 23.9578 18.392 23.9851 18.4729 23.9315H18.4729Z" fill="black"/>
<path d="M22.1829 22.8287C22.6398 23.0167 23.1512 22.8014 23.3392 22.3445C23.5272 21.8877 23.3119 21.3762 22.8551 21.1882C22.3982 21.0002 21.8868 21.2155 21.6988 21.6724C21.5108 22.1292 21.7261 22.6407 22.1829 22.8287Z" fill="black"/>
</svg>
