<svg width="280" height="38" viewBox="0 0 280 38" fill="none" xmlns="http://www.w3.org/2000/svg">
<path d="M280 0H0V14.231C0 8.02832 5.02734 3 11.2305 3C14.6836 3 17.9434 4.5874 20.0723 7.30518L31.8965 22.3999C34.1719 25.3037 37.6543 27 41.3438 27H120.76C123.504 27 126.164 27.9404 128.299 29.6646L134.701 34.8354C136.836 36.5596 139.496 37.5 142.24 37.5H156.643C160.619 37.5 164.338 35.5303 166.57 32.2412L182.855 8.25879C185.088 4.96973 188.807 3 192.783 3H268C274.627 3 280 8.37256 280 15V0Z" fill="white"/>
</svg>
