<svg width="280" height="28" viewBox="0 0 280 28" fill="none" xmlns="http://www.w3.org/2000/svg">
<path d="M280 0H0V14C0 7.37256 5.37305 2 12 2H30.5293C33.7129 2 36.7637 3.26416 39.0156 5.51465L57.4844 23.9854C59.7363 26.2358 62.7871 27.5 65.9707 27.5H168.137C170.484 27.5 171.66 24.6606 170 23C168.34 21.3394 169.516 18.5 171.863 18.5H197.529C200.713 18.5 203.764 17.2358 206.016 14.9854L215.484 5.51465C217.736 3.26416 220.787 2 223.971 2H268C274.627 2 280 7.37256 280 14V0Z" fill="white"/>
</svg>
