<svg width="280" height="27" viewBox="0 0 280 27" fill="none" xmlns="http://www.w3.org/2000/svg">
<path d="M280 0H0V14C0 7.37256 5.37305 2 12 2H90.5293C93.7129 2 96.7637 3.26416 99.0156 5.51465L104.984 11.4854C107.236 13.7358 110.287 15 113.471 15H118.561C121.426 15 124.195 16.0249 126.371 17.8892L133.629 24.1108C135.805 25.9751 138.574 27 141.439 27H251.744C258.295 27 261.469 18.9854 256.693 14.5C251.918 10.0146 255.094 2 261.645 2H269.613C275.35 2 280 6.65039 280 12.3862V0Z" fill="white"/>
</svg>
