<svg width="18" height="19" viewBox="0 0 18 19" fill="none" xmlns="http://www.w3.org/2000/svg">
<path d="M5.23105 16.0001H2.33755V7.29414H5.23105V16.0001ZM3.8038 3.09639C3.59762 3.07942 3.39016 3.10506 3.19431 3.17169C2.99846 3.23833 2.81841 3.34454 2.66536 3.48373C2.51231 3.62292 2.38953 3.7921 2.30466 3.98076C2.21978 4.16942 2.17463 4.37353 2.172 4.58039C2.16937 4.78725 2.20932 4.99243 2.28937 5.18319C2.36943 5.37395 2.48786 5.5462 2.63733 5.68923C2.78679 5.83227 2.96408 5.94302 3.15817 6.01461C3.35226 6.08621 3.55901 6.1171 3.76555 6.10539H3.78505C3.99227 6.12267 4.20084 6.09695 4.39765 6.02981C4.59446 5.96268 4.77527 5.8556 4.92874 5.71528C5.08221 5.57496 5.20502 5.40444 5.28946 5.21441C5.37391 5.02439 5.41817 4.81896 5.41946 4.61101C5.42076 4.40307 5.37906 4.19711 5.29699 4.00604C5.21492 3.81498 5.09425 3.64294 4.94254 3.50072C4.79083 3.3585 4.61137 3.24917 4.41541 3.17959C4.21945 3.11001 4.01122 3.08168 3.8038 3.09639V3.09639ZM6.83305 16.0001H9.72655V11.1386C9.71537 10.8996 9.74764 10.6604 9.8218 10.4329C9.93004 10.1249 10.1308 9.85795 10.3967 9.66851C10.6625 9.47907 10.9804 9.37643 11.3068 9.37464C12.3568 9.37464 12.773 10.1726 12.773 11.3434V16.0001H15.6665V11.0081C15.6665 8.33439 14.2415 7.08939 12.335 7.08939C11.8107 7.06746 11.2904 7.18968 10.8306 7.44277C10.3708 7.69586 9.98925 8.07012 9.7273 8.52489V7.29414H6.83305C6.8713 8.11089 6.83305 16.0009 6.83305 16.0009V16.0001Z" fill="black"/>
</svg>
