<svg width="18" height="19" viewBox="0 0 18 19" fill="none" xmlns="http://www.w3.org/2000/svg">
<path d="M16.5 2.75V16.25C16.5 16.4489 16.421 16.6397 16.2803 16.7803C16.1397 16.921 15.9489 17 15.75 17H11.85V11.1913H13.8L14.0925 8.92775H11.85V7.48175C11.85 6.82625 12.0315 6.38 12.975 6.38H14.175V4.355C13.5948 4.29339 13.0117 4.2636 12.4282 4.26575C12.0312 4.23616 11.6324 4.29389 11.2601 4.43487C10.8877 4.57586 10.5507 4.79667 10.2728 5.08181C9.99486 5.36695 9.78275 5.70949 9.65137 6.08536C9.51998 6.46123 9.47249 6.86132 9.51225 7.2575V8.92775H7.557V11.1913H9.51225V17H2.25C2.05109 17 1.86032 16.921 1.71967 16.7803C1.57902 16.6397 1.5 16.4489 1.5 16.25V2.75C1.5 2.55109 1.57902 2.36032 1.71967 2.21967C1.86032 2.07902 2.05109 2 2.25 2H15.75C15.9489 2 16.1397 2.07902 16.2803 2.21967C16.421 2.36032 16.5 2.55109 16.5 2.75Z" fill="black"/>
</svg>
