<svg width="18" height="19" viewBox="0 0 18 19" fill="none" xmlns="http://www.w3.org/2000/svg">
<path d="M14.7322 5.33151C15.3422 5.26018 15.9381 5.09788 16.5 4.85001C16.0861 5.46866 15.5655 6.00881 14.9625 6.44526C14.9693 6.57726 14.9722 6.70926 14.9722 6.84276C14.9798 7.99453 14.7585 9.13632 14.3212 10.2018C13.8838 11.2674 13.2391 12.2354 12.4245 13.0497C11.61 13.864 10.6417 14.5083 9.57605 14.9453C8.51038 15.3823 7.36851 15.6032 6.21675 15.5953C4.54433 15.5966 2.90688 15.1165 1.5 14.2123C1.74368 14.2412 1.98886 14.2557 2.23425 14.2558C3.6211 14.2588 4.96855 13.7946 6.05925 12.938C5.41725 12.9258 4.79511 12.7133 4.27981 12.3302C3.76451 11.9471 3.38182 11.4125 3.18525 10.8013C3.37641 10.8372 3.57049 10.8553 3.765 10.8553C4.03857 10.8557 4.31097 10.8196 4.575 10.748C3.87806 10.6077 3.25114 10.2306 2.80068 9.6806C2.35022 9.13061 2.10397 8.44168 2.10375 7.73076V7.69176C2.53082 7.92955 3.00867 8.06149 3.49725 8.07651C2.84585 7.64117 2.38482 6.97396 2.208 6.21068C2.03119 5.44741 2.15187 4.64544 2.5455 3.96801C3.31804 4.91871 4.28191 5.69627 5.37452 6.25019C6.46712 6.80412 7.66403 7.12203 8.8875 7.18326C8.83495 6.95322 8.80853 6.71798 8.80875 6.48201C8.80673 5.8637 8.99116 5.25914 9.33797 4.74724C9.68477 4.23534 10.1778 3.83989 10.7528 3.61249C11.3278 3.38508 11.958 3.3363 12.5611 3.47251C13.1642 3.60872 13.7123 3.92358 14.1337 4.37601C14.8233 4.23955 15.4844 3.98588 16.0883 3.62601C15.8586 4.34047 15.3766 4.94678 14.7322 5.33151V5.33151Z" fill="black"/>
</svg>
