<svg width="18" height="19" viewBox="0 0 18 19" fill="none" xmlns="http://www.w3.org/2000/svg">
<path d="M9 5.64875C8.23829 5.64875 7.4937 5.87462 6.86036 6.2978C6.22703 6.72098 5.7334 7.32247 5.44191 8.02619C5.15042 8.72991 5.07415 9.50427 5.22275 10.2513C5.37135 10.9984 5.73815 11.6846 6.27676 12.2232C6.81536 12.7619 7.50159 13.1286 8.24866 13.2772C8.99573 13.4259 9.77009 13.3496 10.4738 13.0581C11.1775 12.7666 11.779 12.273 12.2022 11.6396C12.6254 11.0063 12.8513 10.2617 12.8513 9.5C12.8513 8.47859 12.4455 7.499 11.7232 6.77676C11.001 6.05451 10.0214 5.64875 9 5.64875V5.64875ZM9 12.0005C8.50545 12.0005 8.022 11.8538 7.6108 11.5791C7.19959 11.3043 6.8791 10.9138 6.68984 10.4569C6.50058 9.99999 6.45106 9.49723 6.54755 9.01218C6.64403 8.52713 6.88218 8.08158 7.23188 7.73188C7.58158 7.38218 8.02713 7.14403 8.51218 7.04755C8.99723 6.95106 9.49999 7.00058 9.9569 7.18984C10.4138 7.3791 10.8043 7.69959 11.0791 8.1108C11.3538 8.522 11.5005 9.00545 11.5005 9.5C11.5005 10.1632 11.2371 10.7992 10.7681 11.2681C10.2992 11.7371 9.66317 12.0005 9 12.0005V12.0005ZM13.9042 5.4965C13.9042 5.6745 13.8515 5.84851 13.7526 5.99651C13.6537 6.14452 13.5131 6.25987 13.3487 6.32799C13.1842 6.39611 13.0033 6.41393 12.8287 6.37921C12.6541 6.34448 12.4937 6.25876 12.3679 6.1329C12.242 6.00703 12.1563 5.84666 12.1215 5.67208C12.0868 5.4975 12.1046 5.31654 12.1728 5.15208C12.2409 4.98763 12.3562 4.84707 12.5042 4.74818C12.6522 4.64928 12.8262 4.5965 13.0043 4.5965V4.5965C13.1224 4.5965 13.2395 4.61978 13.3487 4.66501C13.4579 4.71024 13.5571 4.77653 13.6406 4.8601C13.7242 4.94368 13.7905 5.04289 13.8357 5.15208C13.881 5.26128 13.9042 5.37831 13.9042 5.4965V5.4965ZM16.107 4.5875C15.9183 4.08697 15.623 3.63349 15.2415 3.2585C14.8672 2.87705 14.4142 2.58193 13.914 2.39375C13.3311 2.17533 12.7153 2.05765 12.093 2.04575C11.2935 2.009 11.0378 2 9 2C6.96225 2 6.70725 2.00825 5.907 2.04575C5.28492 2.05785 4.66942 2.17552 4.08675 2.39375C3.58664 2.58206 3.13361 2.87716 2.75925 3.2585C2.37712 3.63295 2.08169 4.08659 1.89375 4.5875C1.67561 5.17019 1.55794 5.78568 1.54575 6.40775C1.50825 7.20725 1.5 7.463 1.5 9.5C1.5 11.537 1.50825 11.7927 1.54575 12.5922C1.55794 13.2143 1.67561 13.8298 1.89375 14.4125C2.08169 14.9134 2.37712 15.3671 2.75925 15.7415C3.13406 16.1226 3.58729 16.4177 4.0875 16.6063C4.67021 16.8243 5.28569 16.942 5.90775 16.9542C6.708 16.991 6.96375 17 9 17C11.0362 17 11.2927 16.9917 12.0922 16.9542C12.7146 16.9421 13.3303 16.8245 13.9133 16.6063C14.4116 16.4136 14.8641 16.1189 15.2419 15.7411C15.6197 15.3634 15.9143 14.9108 16.107 14.4125C16.3255 13.8299 16.4432 13.2144 16.455 12.5922C16.4918 11.792 16.5 11.537 16.5 9.5C16.5 7.463 16.4918 7.20725 16.455 6.40775C16.4429 5.78567 16.3252 5.17017 16.107 4.5875V4.5875ZM15.1058 12.5308C15.1013 13.0067 15.0148 13.4784 14.85 13.925C14.7253 14.249 14.5341 14.5432 14.2886 14.7886C14.0432 15.0341 13.749 15.2253 13.425 15.35C12.9789 15.515 12.5078 15.6023 12.0322 15.608C11.2417 15.644 11.004 15.6515 9.00075 15.6515C6.9975 15.6515 6.76125 15.644 5.97075 15.608C5.49415 15.6026 5.02203 15.5153 4.575 15.35C4.24921 15.2298 3.9545 15.0381 3.7125 14.789C3.46328 14.5471 3.27156 14.2524 3.1515 13.9265C2.98575 13.4806 2.89846 13.0094 2.8935 12.5338C2.859 11.7403 2.85 11.5033 2.85 9.5C2.85 7.49675 2.8575 7.2605 2.8935 6.46925C2.89988 5.99304 2.9879 5.52145 3.15375 5.075C3.27399 4.74921 3.46568 4.4545 3.71475 4.2125C3.95549 3.96262 4.24955 3.77033 4.575 3.65C5.02177 3.48502 5.49376 3.39874 5.97 3.395C6.7605 3.35825 6.99825 3.35 9 3.35C11.0017 3.35 11.2402 3.35825 12.0315 3.39425C12.5072 3.39927 12.9785 3.48577 13.425 3.65C13.749 3.7747 14.0432 3.96595 14.2886 4.2114C14.5341 4.45685 14.7253 4.75105 14.85 5.075C15.0157 5.52088 15.103 5.99209 15.108 6.46775C15.1425 7.2605 15.15 7.4975 15.15 9.5C15.15 11.5025 15.1425 11.7395 15.1058 12.5308Z" fill="black"/>
</svg>
