<svg width="1440" height="114" viewBox="0 0 1440 114" fill="none" xmlns="http://www.w3.org/2000/svg">
<g clip-path="url(#clip0_1241_1249)">
<path d="M208.347 79.5H-16C-16 120.369 17.131 153.5 58 153.5H1396.5C1427.98 153.5 1453.5 127.98 1453.5 96.5H1248.98C1228.82 96.5 1209.49 88.4929 1195.24 74.2401L1160.26 39.2599C1146.01 25.0071 1126.68 17 1106.52 17H837.98C817.824 17 798.493 25.0071 784.24 39.2599L777.26 46.2401C763.007 60.4929 743.676 68.5 723.52 68.5H489.931C472.047 68.5 454.896 75.6043 442.25 88.25C429.604 100.896 412.453 108 394.569 108H277.153C264.249 108 251.874 102.874 242.75 93.75C233.626 84.6259 221.251 79.5 208.347 79.5Z" fill="white"/>
</g>
<defs>
<clipPath id="clip0_1241_1249">
<rect width="1440" height="114" fill="white"/>
</clipPath>
</defs>
</svg>
