<svg width="1439" height="139" viewBox="0 0 1439 139" fill="none" xmlns="http://www.w3.org/2000/svg">
<path d="M1439 0H0V126C0 112.745 10.7461 102 24 102H119.25C136.836 102 153.844 95.7197 167.211 84.291C194.969 60.5557 235.914 60.6934 263.508 84.6152L299.188 115.541C316.641 130.671 338.965 139 362.066 139H482.996C497.477 139 511.773 135.724 524.809 129.415L609.191 88.585C622.227 82.2764 636.523 79 651.004 79H1107.23C1132.7 79 1157.11 68.8857 1175.12 50.8818L1185.88 40.1182C1203.89 22.1143 1228.3 12 1253.77 12H1439V0Z" fill="white"/>
</svg>
