<svg width="545" height="181" viewBox="0 0 545 181" fill="none" xmlns="http://www.w3.org/2000/svg">
<mask id="path-1-inside-1_1584_2220" fill="white">
<path d="M0 0H45.4167V45.2499H0V0Z"/>
<path d="M45.4167 0H90.8333V45.2499H45.4167V0Z"/>
<path d="M90.8333 0H136.25V45.2499H90.8333V0Z"/>
<path d="M136.25 0H181.667V45.2499H136.25V0Z"/>
<path d="M181.667 0H227.083V45.2499H181.667V0Z"/>
<path d="M227.083 0H272.5V45.2499H227.083V0Z"/>
<path d="M272.5 0H317.917V45.2499H272.5V0Z"/>
<path d="M317.917 0H363.333V45.2499H317.917V0Z"/>
<path d="M363.333 0H408.75V45.2499H363.333V0Z"/>
<path d="M408.75 0H454.167V45.2499H408.75V0Z"/>
<path d="M454.167 0H499.583V45.2499H454.167V0Z"/>
<path d="M499.583 0H545V45.2499H499.583V0Z"/>
<path d="M0 45.2499H45.4167V90.5H0V45.2499Z"/>
<path d="M45.4167 45.2499H90.8333V90.5H45.4167V45.2499Z"/>
<path d="M90.8333 45.2499H136.25V90.5H90.8333V45.2499Z"/>
<path d="M136.25 45.2499H181.667V90.5H136.25V45.2499Z"/>
<path d="M181.667 45.2499H227.083V90.5H181.667V45.2499Z"/>
<path d="M227.083 45.2499H272.5V90.5H227.083V45.2499Z"/>
<path d="M272.5 45.2499H317.917V90.5H272.5V45.2499Z"/>
<path d="M317.917 45.2499H363.333V90.5H317.917V45.2499Z"/>
<path d="M363.333 45.2499H408.75V90.5H363.333V45.2499Z"/>
<path d="M408.75 45.2499H454.167V90.5H408.75V45.2499Z"/>
<path d="M454.167 45.2499H499.583V90.5H454.167V45.2499Z"/>
<path d="M499.583 45.2499H545V90.5H499.583V45.2499Z"/>
<path d="M0 90.5H45.4167V135.75H0V90.5Z"/>
<path d="M45.4167 90.5H90.8333V135.75H45.4167V90.5Z"/>
<path d="M90.8333 90.5H136.25V135.75H90.8333V90.5Z"/>
<path d="M136.25 90.5H181.667V135.75H136.25V90.5Z"/>
<path d="M181.667 90.5H227.083V135.75H181.667V90.5Z"/>
<path d="M227.083 90.5H272.5V135.75H227.083V90.5Z"/>
<path d="M272.5 90.5H317.917V135.75H272.5V90.5Z"/>
<path d="M317.917 90.5H363.333V135.75H317.917V90.5Z"/>
<path d="M363.333 90.5H408.75V135.75H363.333V90.5Z"/>
<path d="M408.75 90.5H454.167V135.75H408.75V90.5Z"/>
<path d="M454.167 90.5H499.583V135.75H454.167V90.5Z"/>
<path d="M499.583 90.5H545V135.75H499.583V90.5Z"/>
<path d="M0 135.75H45.4167V181H0V135.75Z"/>
<path d="M45.4167 135.75H90.8333V181H45.4167V135.75Z"/>
<path d="M90.8333 135.75H136.25V181H90.8333V135.75Z"/>
<path d="M136.25 135.75H181.667V181H136.25V135.75Z"/>
<path d="M181.667 135.75H227.083V181H181.667V135.75Z"/>
<path d="M227.083 135.75H272.5V181H227.083V135.75Z"/>
<path d="M272.5 135.75H317.917V181H272.5V135.75Z"/>
<path d="M317.917 135.75H363.333V181H317.917V135.75Z"/>
<path d="M363.333 135.75H408.75V181H363.333V135.75Z"/>
<path d="M408.75 135.75H454.167V181H408.75V135.75Z"/>
<path d="M454.167 135.75H499.583V181H454.167V135.75Z"/>
<path d="M499.583 135.75H545V181H499.583V135.75Z"/>
</mask>
<path d="M44.9185 0V45.2499H45.9148V0H44.9185ZM45.4167 44.7517H0V45.7481H45.4167V44.7517ZM90.3352 0V45.2499H91.3315V0H90.3352ZM90.8333 44.7517H45.4167V45.7481H90.8333V44.7517ZM135.752 0V45.2499H136.748V0H135.752ZM136.25 44.7517H90.8333V45.7481H136.25V44.7517ZM181.169 0V45.2499H182.165V0H181.169ZM181.667 44.7517H136.25V45.7481H181.667V44.7517ZM226.585 0V45.2499H227.582V0H226.585ZM227.083 44.7517H181.667V45.7481H227.083V44.7517ZM272.002 0V45.2499H272.998V0H272.002ZM272.5 44.7517H227.083V45.7481H272.5V44.7517ZM317.419 0V45.2499H318.415V0H317.419ZM317.917 44.7517H272.5V45.7481H317.917V44.7517ZM362.835 0V45.2499H363.832V0H362.835ZM363.333 44.7517H317.917V45.7481H363.333V44.7517ZM408.252 0V45.2499H409.248V0H408.252ZM408.75 44.7517H363.333V45.7481H408.75V44.7517ZM453.669 0V45.2499H454.665V0H453.669ZM454.167 44.7517H408.75V45.7481H454.167V44.7517ZM499.085 0V45.2499H500.082V0H499.085ZM499.583 44.7517H454.167V45.7481H499.583V44.7517ZM545 44.7517H499.583V45.7481H545V44.7517ZM44.9185 45.2499V90.5H45.9148V45.2499H44.9185ZM45.4167 90.0018H0V90.9982H45.4167V90.0018ZM90.3352 45.2499V90.5H91.3315V45.2499H90.3352ZM90.8333 90.0018H45.4167V90.9982H90.8333V90.0018ZM135.752 45.2499V90.5H136.748V45.2499H135.752ZM136.25 90.0018H90.8333V90.9982H136.25V90.0018ZM181.169 45.2499V90.5H182.165V45.2499H181.169ZM181.667 90.0018H136.25V90.9982H181.667V90.0018ZM226.585 45.2499V90.5H227.582V45.2499H226.585ZM227.083 90.0018H181.667V90.9982H227.083V90.0018ZM272.002 45.2499V90.5H272.998V45.2499H272.002ZM272.5 90.0018H227.083V90.9982H272.5V90.0018ZM317.419 45.2499V90.5H318.415V45.2499H317.419ZM317.917 90.0018H272.5V90.9982H317.917V90.0018ZM362.835 45.2499V90.5H363.832V45.2499H362.835ZM363.333 90.0018H317.917V90.9982H363.333V90.0018ZM408.252 45.2499V90.5H409.248V45.2499H408.252ZM408.75 90.0018H363.333V90.9982H408.75V90.0018ZM453.669 45.2499V90.5H454.665V45.2499H453.669ZM454.167 90.0018H408.75V90.9982H454.167V90.0018ZM499.085 45.2499V90.5H500.082V45.2499H499.085ZM499.583 90.0018H454.167V90.9982H499.583V90.0018ZM545 90.0018H499.583V90.9982H545V90.0018ZM44.9185 90.5V135.75H45.9148V90.5H44.9185ZM45.4167 135.252H0V136.248H45.4167V135.252ZM90.3352 90.5V135.75H91.3315V90.5H90.3352ZM90.8333 135.252H45.4167V136.248H90.8333V135.252ZM135.752 90.5V135.75H136.748V90.5H135.752ZM136.25 135.252H90.8333V136.248H136.25V135.252ZM181.169 90.5V135.75H182.165V90.5H181.169ZM181.667 135.252H136.25V136.248H181.667V135.252ZM226.585 90.5V135.75H227.582V90.5H226.585ZM227.083 135.252H181.667V136.248H227.083V135.252ZM272.002 90.5V135.75H272.998V90.5H272.002ZM272.5 135.252H227.083V136.248H272.5V135.252ZM317.419 90.5V135.75H318.415V90.5H317.419ZM317.917 135.252H272.5V136.248H317.917V135.252ZM362.835 90.5V135.75H363.832V90.5H362.835ZM363.333 135.252H317.917V136.248H363.333V135.252ZM408.252 90.5V135.75H409.248V90.5H408.252ZM408.75 135.252H363.333V136.248H408.75V135.252ZM453.669 90.5V135.75H454.665V90.5H453.669ZM454.167 135.252H408.75V136.248H454.167V135.252ZM499.085 90.5V135.75H500.082V90.5H499.085ZM499.583 135.252H454.167V136.248H499.583V135.252ZM545 135.252H499.583V136.248H545V135.252ZM44.9185 135.75V181H45.9148V135.75H44.9185ZM90.3352 135.75V181H91.3315V135.75H90.3352ZM135.752 135.75V181H136.748V135.75H135.752ZM181.169 135.75V181H182.165V135.75H181.169ZM226.585 135.75V181H227.582V135.75H226.585ZM272.002 135.75V181H272.998V135.75H272.002ZM317.419 135.75V181H318.415V135.75H317.419ZM362.835 135.75V181H363.832V135.75H362.835ZM408.252 135.75V181H409.248V135.75H408.252ZM453.669 135.75V181H454.665V135.75H453.669ZM499.085 135.75V181H500.082V135.75H499.085ZM0 0V-0.996344H-0.996344V0H0ZM545 0H545.996V-0.996344H545V0ZM0 181H-0.996344V181.996H0V181ZM545 181V181.996H545.996V181H545ZM45.4167 -0.996344H0V0.996344H45.4167V-0.996344ZM90.8333 -0.996344H45.4167V0.996344H90.8333V-0.996344ZM136.25 -0.996344H90.8333V0.996344H136.25V-0.996344ZM181.667 -0.996344H136.25V0.996344H181.667V-0.996344ZM227.083 -0.996344H181.667V0.996344H227.083V-0.996344ZM272.5 -0.996344H227.083V0.996344H272.5V-0.996344ZM317.917 -0.996344H272.5V0.996344H317.917V-0.996344ZM363.333 -0.996344H317.917V0.996344H363.333V-0.996344ZM408.75 -0.996344H363.333V0.996344H408.75V-0.996344ZM454.167 -0.996344H408.75V0.996344H454.167V-0.996344ZM499.583 -0.996344H454.167V0.996344H499.583V-0.996344ZM545 -0.996344H499.583V0.996344H545V-0.996344ZM0.996344 45.2499V0H-0.996344V45.2499H0.996344ZM544.004 0V45.2499H545.996V0H544.004ZM0.996344 90.5V45.2499H-0.996344V90.5H0.996344ZM544.004 45.2499V90.5H545.996V45.2499H544.004ZM0.996344 135.75V90.5H-0.996344V135.75H0.996344ZM544.004 90.5V135.75H545.996V90.5H544.004ZM45.4167 180.004H0V181.996H45.4167V180.004ZM0.996344 181V135.75H-0.996344V181H0.996344ZM90.8333 180.004H45.4167V181.996H90.8333V180.004ZM136.25 180.004H90.8333V181.996H136.25V180.004ZM181.667 180.004H136.25V181.996H181.667V180.004ZM227.083 180.004H181.667V181.996H227.083V180.004ZM272.5 180.004H227.083V181.996H272.5V180.004ZM317.917 180.004H272.5V181.996H317.917V180.004ZM363.333 180.004H317.917V181.996H363.333V180.004ZM408.75 180.004H363.333V181.996H408.75V180.004ZM454.167 180.004H408.75V181.996H454.167V180.004ZM499.583 180.004H454.167V181.996H499.583V180.004ZM544.004 135.75V181H545.996V135.75H544.004ZM545 180.004H499.583V181.996H545V180.004Z" fill="url(#paint0_linear_1584_2220)" mask="url(#path-1-inside-1_1584_2220)"/>
<defs>
<linearGradient id="paint0_linear_1584_2220" x1="431.417" y1="-73.8727" x2="431.662" y2="168" gradientUnits="userSpaceOnUse">
<stop stop-color="#D5E0DC"/>
<stop offset="1" stop-color="#D5E0DC" stop-opacity="0"/>
</linearGradient>
</defs>
</svg>
