<svg width="1440" height="800" viewBox="0 0 1440 800" fill="none" xmlns="http://www.w3.org/2000/svg">
<path fill-rule="evenodd" clip-rule="evenodd" d="M1440 0H0V800H1440V0ZM38 384.414V768C38 776.836 45.1641 784 54 784H1364.01C1372.84 784 1380.01 776.836 1380.01 768V296C1380.01 282.745 1369.26 272 1356.01 272H1315.39C1282.52 272 1250.99 285.054 1227.73 308.292L1193.79 342.218C1182.13 353.869 1166.32 360.414 1149.84 360.414C1133.36 360.414 1117.55 366.958 1105.89 378.609L1006.47 477.971C983.219 501.209 951.691 514.263 918.816 514.263H458.266C427.273 514.263 397.547 501.956 375.625 480.047C353.703 458.138 323.977 445.83 292.984 445.83H282.77C249.895 445.83 218.367 432.776 195.113 409.538L182.273 396.706C159.023 373.468 127.492 360.414 94.6211 360.414H62C48.7461 360.414 38 371.159 38 384.414Z" fill="white"/>
</svg>
