<svg width="140" height="140" viewBox="0 0 140 140" fill="none" xmlns="http://www.w3.org/2000/svg">
<path d="M77 17.5C77 24.4036 70.5 30 70.5 30C70.5 30 64 24.4036 64 17.5C64 10.5964 70.5 5 70.5 5C70.5 5 77 10.5964 77 17.5Z" fill="white" stroke="#444849" stroke-width="2.28"/>
<path d="M77 122.5C77 129.404 70.5 135 70.5 135C70.5 135 64 129.404 64 122.5C64 115.596 70.5 110 70.5 110C70.5 110 77 115.596 77 122.5Z" fill="white" stroke="#444849" stroke-width="2.28"/>
<path d="M49.8794 21.2837C53.3312 27.2623 50.5003 35.359 50.5003 35.359C50.5003 35.359 42.0729 33.7623 38.6211 27.7837C35.1693 21.805 38.0003 13.7084 38.0003 13.7084C38.0003 13.7084 46.4276 15.305 49.8794 21.2837Z" fill="white" stroke="#444849" stroke-width="2.28"/>
<path d="M102.379 112.216C105.831 118.195 103 126.292 103 126.292C103 126.292 94.5729 124.695 91.1211 118.716C87.6693 112.738 90.5003 104.641 90.5003 104.641C90.5003 104.641 98.9276 106.238 102.379 112.216Z" fill="white" stroke="#444849" stroke-width="2.28"/>
<path d="M123 76.5C116.096 76.5 110.5 70 110.5 70C110.5 70 116.096 63.5 123 63.5C129.904 63.5 135.5 70 135.5 70C135.5 70 129.904 76.5 123 76.5Z" fill="white" stroke="#444849" stroke-width="2.28"/>
<path d="M18 76.5C11.0964 76.5 5.5 70 5.5 70C5.5 70 11.0964 63.5 18 63.5C24.9036 63.5 30.5 70 30.5 70C30.5 70 24.9036 76.5 18 76.5Z" fill="white" stroke="#444849" stroke-width="2.28"/>
<path d="M112.716 101.879C106.737 98.4274 105.14 90 105.14 90C105.14 90 113.237 87.1691 119.216 90.6208C125.194 94.0726 126.791 102.5 126.791 102.5C126.791 102.5 118.694 105.331 112.716 101.879Z" fill="white" stroke="#444849" stroke-width="2.28"/>
<path d="M21.7821 49.3792C15.8034 45.9274 14.2068 37.5 14.2068 37.5C14.2068 37.5 22.3034 34.6691 28.2821 38.1208C34.2608 41.5726 35.8574 50 35.8574 50C35.8574 50 27.7608 52.831 21.7821 49.3792Z" fill="white" stroke="#444849" stroke-width="2.28"/>
<path d="M119.216 49.3792C113.237 52.831 105.14 50 105.14 50C105.14 50 106.737 41.5726 112.716 38.1208C118.694 34.6691 126.791 37.5 126.791 37.5C126.791 37.5 125.194 45.9274 119.216 49.3792Z" fill="white" stroke="#444849" stroke-width="2.28"/>
<path d="M28.2821 101.879C22.3034 105.331 14.2068 102.5 14.2068 102.5C14.2068 102.5 15.8034 94.0726 21.7821 90.6208C27.7608 87.1691 35.8574 90 35.8574 90C35.8574 90 34.2608 98.4274 28.2821 101.879Z" fill="white" stroke="#444849" stroke-width="2.28"/>
<path d="M102.379 27.7837C98.9276 33.7623 90.5003 35.359 90.5003 35.359C90.5003 35.359 87.6693 27.2623 91.1211 21.2837C94.5729 15.305 103 13.7084 103 13.7084C103 13.7084 105.831 21.805 102.379 27.7837Z" fill="white" stroke="#444849" stroke-width="2.28"/>
<path d="M49.8794 118.716C46.4276 124.695 38.0003 126.292 38.0003 126.292C38.0003 126.292 35.1693 118.195 38.6211 112.216C42.0729 106.238 50.5003 104.641 50.5003 104.641C50.5003 104.641 53.3312 112.738 49.8794 118.716Z" fill="white" stroke="#444849" stroke-width="2.28"/>
<path fill-rule="evenodd" clip-rule="evenodd" d="M70.5169 102.999C61.6282 103.003 53.1058 99.4766 46.8198 93.1944C40.5338 86.9121 37 78.3903 37 69.5052C37 60.6166 40.5298 52.0943 46.8123 45.8122C53.0948 39.5297 61.6166 36 70.5056 36C79.3907 36 87.9129 39.5334 94.1952 45.8197C100.478 52.1058 104.004 60.6276 104 69.5127C103.989 78.3902 100.456 86.901 94.1802 93.1803C87.9013 99.4554 79.3899 102.989 70.5159 103L70.5169 102.999ZM70.5169 38.2323C63.2067 38.2291 56.1584 40.7828 50.5717 45.4C51.1365 45.9535 51.6664 46.5427 52.1536 47.1675C53.4756 48.6728 54.6315 50.3202 55.6004 52.0782C56.5106 53.5628 56.7736 55.3589 56.3272 57.0443C55.9327 58.0617 55.3305 58.9857 54.5553 59.7505C54.3754 59.9443 54.2058 60.1416 54.0397 60.3492H54.0362C52.87 61.7612 52.119 63.4638 51.8595 65.2772C51.6657 66.1355 51.7557 67.0353 52.1121 67.8415C52.7617 69.0891 54.2406 69.538 55.9693 70.0627L56.0053 70.0736C57.7426 70.4439 59.3518 71.2745 60.6634 72.4753C61.7189 73.7211 62.1619 75.3753 61.8643 76.9811C61.5667 78.5868 60.563 79.9745 59.1304 80.7635C58.5732 81.0196 57.9953 81.2204 57.4001 81.3622C56.8048 81.4799 56.2338 81.6979 55.7113 82.0025C54.8531 82.7015 54.5451 83.8747 54.943 84.9059C55.431 85.9892 56.445 86.7435 57.6216 86.8993C58.2687 86.965 58.9158 86.965 59.563 86.8993H60.8192C62.2658 86.7955 63.6778 87.363 64.6536 88.4358C65.2662 89.3287 65.6053 90.3807 65.633 91.4639C65.7715 92.5644 65.8995 93.71 66.0241 94.8277V95.0215H66.0206C66.1764 95.8383 66.1279 96.6827 65.8822 97.4751C65.36 98.5872 64.4565 99.471 63.3424 99.9674C65.668 100.514 68.0668 100.796 70.4947 100.796C78.7935 100.796 86.7507 97.5011 92.6191 91.6365C98.4875 85.7682 101.783 77.811 101.783 69.5124C101.781 68.4713 101.728 67.4356 101.624 66.4086H100.205C98.1495 66.239 96.0904 66.6716 94.2735 67.6509C92.5432 68.8379 91.7057 70.9282 90.8267 73.1464L90.8302 73.1499C90.1277 75.4166 88.8922 77.4826 87.2276 79.1749C86.2898 80.0401 85.0713 80.5384 83.7978 80.5833H83.3929C81.6522 80.2995 80.1952 79.116 79.555 77.4722C79.0394 76.0948 78.766 74.6344 78.7452 73.1636C78.4788 71.7033 78.8075 70.1943 79.6519 68.9762C80.4617 68.1768 81.5033 67.6507 82.6246 67.4708C83.1887 67.3532 83.7355 67.1559 84.2442 66.8825C85.2547 65.9412 85.7704 64.5777 85.6388 63.2004C85.7427 62.3491 85.5765 61.4839 85.1647 60.7329C84.2788 59.8054 83.0225 59.3244 81.7456 59.4213H80.4755C79.2089 59.5078 77.9354 59.3832 76.7103 59.0579C74.132 58.1443 72.3118 55.8326 72.0211 53.1125C71.7996 50.4651 72.862 47.8696 74.8831 46.1393C75.3053 45.7759 75.7482 45.4367 76.2085 45.1184C76.9249 44.6616 77.565 44.0905 78.1049 43.4296C78.7695 42.1973 79.0672 40.8025 78.9699 39.4107C76.2425 38.6404 73.4003 38.2374 70.5169 38.2323ZM49.4198 47.2916C43.8903 52.0551 40.3619 58.6722 39.4368 65.8226C39.2922 67.0386 39.2184 68.268 39.2179 69.5051C39.2172 71.0557 39.3318 72.5947 39.5569 74.1105C40.347 79.1144 42.4069 83.8587 45.5715 87.8779C49.6758 93.0827 55.4 96.7717 61.8363 98.3531L62.0612 98.2424C62.9264 97.7959 63.6808 97.3495 63.9023 96.7508C64.0061 96.2559 64.0061 95.7472 63.9023 95.2558V95.0482L63.9005 95.0325L63.9004 95.0314C63.7764 93.9362 63.6489 92.8105 63.5112 91.7121C63.5043 91.0165 63.3174 90.3347 62.9644 89.7326C62.3934 89.1892 61.6182 88.9158 60.8327 88.9781H59.7011C58.9121 89.0612 58.1195 89.0612 57.3305 88.9781C55.4098 88.6978 53.7695 87.4416 53.0047 85.6594C52.2572 83.7248 52.8836 81.5307 54.5378 80.285C55.2507 79.842 56.0363 79.5201 56.8565 79.3367C57.334 79.2329 57.8012 79.0807 58.2511 78.8903C59.1163 78.4093 59.708 77.5545 59.8534 76.5751C60.0576 75.6269 59.8119 74.6371 59.1855 73.8966C58.1162 72.976 56.8287 72.3531 55.4479 72.0832L55.4319 72.0783C53.5256 71.4946 51.3717 70.8352 50.3123 68.8198C49.7447 67.6223 49.5821 66.2762 49.852 64.9819C50.1496 62.7878 51.0598 60.7253 52.4751 59.0226L53.0462 58.3512V58.3547C53.6414 57.8079 54.1155 57.1435 54.4408 56.4029C54.7073 55.2436 54.4962 54.0254 53.8559 53.0253C52.9077 51.4195 51.7899 49.9176 50.5199 48.5472C50.4545 48.4691 50.3899 48.3914 50.3258 48.3144C50.0234 47.9511 49.733 47.6022 49.4332 47.2909L49.4198 47.2916ZM81.7871 57.3825H81.1884L80.4476 57.41C79.4025 57.4826 78.3539 57.3927 77.3365 57.1435C75.537 56.4998 74.2807 54.8628 74.1146 52.9595C73.9659 51.0042 74.7583 49.0974 76.2499 47.8239H76.2464C76.6236 47.5021 77.0147 47.2114 77.4196 46.9172C78.3436 46.3427 79.1638 45.616 79.849 44.7716C80.6449 43.5188 81.0671 42.0688 81.0637 40.5841C86.2444 42.3252 90.8437 45.457 94.3597 49.641C97.8724 53.8288 100.167 58.8984 100.987 64.304H100.233C97.7582 64.1241 95.2873 64.6813 93.1312 65.9063H93.1278C90.9127 67.4448 89.9211 69.9171 88.9659 72.2984L88.9438 72.3535C88.3382 74.3088 87.2827 76.0979 85.8603 77.5722C85.2651 78.1605 84.4553 78.4858 83.6143 78.4788C82.6315 78.2816 81.8183 77.5825 81.4826 76.6343C81.0604 75.4715 80.8389 74.2464 80.8251 73.0075C80.6382 72.1043 80.787 71.163 81.2438 70.3566C81.787 69.8998 82.4515 69.6022 83.154 69.5053C83.9361 69.3426 84.6837 69.0554 85.3723 68.654C87.0542 67.3839 87.9644 65.3421 87.7879 63.2415C87.8883 61.9576 87.5699 60.6737 86.8812 59.587C85.6389 58.0712 83.7424 57.251 81.7871 57.3825Z" fill="#444849"/>
</svg>
