<svg width="1440" height="835" viewBox="0 0 1440 835" fill="none" xmlns="http://www.w3.org/2000/svg">
<path fill-rule="evenodd" clip-rule="evenodd" d="M1440 0H0V835H1440V0ZM40 541.5V802C40 810.836 47.1641 818 56 818H1384C1392.84 818 1400 810.836 1400 802V260C1400 246.745 1389.25 236 1376 236H1258.86C1225.98 236 1194.44 249.064 1171.18 272.319L1103.32 340.181C1080.06 363.436 1048.52 376.5 1015.64 376.5H1003.86C970.977 376.5 939.438 389.564 916.18 412.819L847.82 481.181C824.562 504.436 793.023 517.5 760.137 517.5H64C50.7461 517.5 40 528.245 40 541.5Z" fill="white"/>
</svg>
