<svg width="140" height="140" viewBox="0 0 140 140" fill="none" xmlns="http://www.w3.org/2000/svg">
<path d="M70.4955 27C70.4955 45.621 44 63.9753 44 86.5357C43.9942 90.009 44.6752 93.4493 46.0041 96.6598C47.333 99.8703 49.2837 102.788 51.7446 105.246C54.2055 107.704 57.1283 109.654 60.3458 110.985C63.5633 112.315 67.0123 113 70.4955 113C71.3873 113 72.2791 113 73.171 112.867C79.7108 112.207 85.7713 109.147 90.175 104.281C94.5787 99.4147 97.0112 93.0902 97 86.5357C97 63.9753 70.4955 45.621 70.4955 27Z" stroke="#444849" stroke-width="2"/>
<rect width="101" height="33" transform="translate(20 64)" fill="white"/>
<path d="M22.8023 85.06V81.7H34.8023V85.06H22.8023ZM49.2192 96.6C47.3392 96.6 45.6726 96.2267 44.2192 95.48C42.7792 94.72 41.6459 93.6667 40.8192 92.32C40.0059 90.9733 39.5992 89.4133 39.5992 87.64C39.5992 85.9867 39.9859 84.4733 40.7592 83.1C41.5326 81.7267 42.6859 80.6467 44.2192 79.86L44.1392 81.3C42.9126 80.54 41.9659 79.5933 41.2992 78.46C40.6459 77.3133 40.3192 76.0333 40.3192 74.62C40.3192 72.98 40.6992 71.56 41.4592 70.36C42.2192 69.16 43.2659 68.2333 44.5992 67.58C45.9459 66.9267 47.4859 66.6 49.2192 66.6C50.9526 66.6 52.4859 66.9267 53.8192 67.58C55.1526 68.2333 56.1992 69.16 56.9592 70.36C57.7192 71.56 58.0992 72.98 58.0992 74.62C58.0992 76.0333 57.7859 77.3067 57.1592 78.44C56.5326 79.5733 55.5726 80.5267 54.2792 81.3L54.2192 79.9C55.7392 80.6467 56.8926 81.7133 57.6792 83.1C58.4659 84.4733 58.8592 85.9867 58.8592 87.64C58.8592 89.4133 58.4459 90.9733 57.6192 92.32C56.7926 93.6667 55.6526 94.72 54.1992 95.48C52.7459 96.2267 51.0859 96.6 49.2192 96.6ZM49.2192 92.62C50.7659 92.62 52.0192 92.2 52.9792 91.36C53.9392 90.5067 54.4192 89.2667 54.4192 87.64C54.4192 86.0133 53.9392 84.7733 52.9792 83.92C52.0326 83.0533 50.7792 82.62 49.2192 82.62C47.6592 82.62 46.3992 83.0533 45.4392 83.92C44.4926 84.7733 44.0192 86.0133 44.0192 87.64C44.0192 89.2667 44.4992 90.5067 45.4592 91.36C46.4192 92.2 47.6726 92.62 49.2192 92.62ZM49.2192 78.62C50.5392 78.62 51.6059 78.2933 52.4192 77.64C53.2459 76.9733 53.6592 75.9667 53.6592 74.62C53.6592 73.2733 53.2459 72.2667 52.4192 71.6C51.6059 70.92 50.5392 70.58 49.2192 70.58C47.8992 70.58 46.8259 70.92 45.9992 71.6C45.1726 72.2667 44.7592 73.2733 44.7592 74.62C44.7592 75.9667 45.1726 76.9733 45.9992 77.64C46.8259 78.2933 47.8992 78.62 49.2192 78.62ZM72.6017 96.6C71.1217 96.6 69.7417 96.3 68.4617 95.7C67.1951 95.0867 66.1084 94.2467 65.2017 93.18C64.2951 92.1 63.6484 90.86 63.2617 89.46L67.2817 88.38C67.5084 89.2333 67.8951 89.9733 68.4417 90.6C69.0017 91.2267 69.6551 91.7133 70.4017 92.06C71.1484 92.3933 71.9217 92.56 72.7217 92.56C73.7751 92.56 74.7284 92.3067 75.5817 91.8C76.4484 91.2933 77.1284 90.6133 77.6217 89.76C78.1284 88.9067 78.3817 87.9667 78.3817 86.94C78.3817 85.8867 78.1217 84.9333 77.6017 84.08C77.0951 83.2267 76.4084 82.5533 75.5417 82.06C74.6884 81.5533 73.7484 81.3 72.7217 81.3C71.5484 81.3 70.5551 81.5333 69.7417 82C68.9284 82.4667 68.2951 83.0067 67.8417 83.62L64.2017 82.34L65.0817 67.2H80.6217V71.14H67.2217L68.9217 69.56L68.2217 80.9L67.4017 79.84C68.1617 79.08 69.0684 78.5 70.1217 78.1C71.1751 77.7 72.2217 77.5 73.2617 77.5C75.0484 77.5 76.6417 77.9133 78.0417 78.74C79.4551 79.5667 80.5684 80.6933 81.3817 82.12C82.1951 83.5333 82.6017 85.14 82.6017 86.94C82.6017 88.7267 82.1417 90.3533 81.2217 91.82C80.3017 93.2733 79.0817 94.4333 77.5617 95.3C76.0417 96.1667 74.3884 96.6 72.6017 96.6ZM90.982 96L88.182 93.2L114.202 67.2L117.002 70.02L90.982 96ZM111.002 96.6C109.682 96.6 108.475 96.28 107.382 95.64C106.302 94.9867 105.435 94.12 104.782 93.04C104.129 91.9467 103.802 90.7333 103.802 89.4C103.802 88.0933 104.135 86.8933 104.802 85.8C105.469 84.7067 106.349 83.8333 107.442 83.18C108.535 82.5267 109.722 82.2 111.002 82.2C112.322 82.2 113.529 82.5267 114.622 83.18C115.715 83.82 116.582 84.6867 117.222 85.78C117.875 86.86 118.202 88.0667 118.202 89.4C118.202 90.7333 117.875 91.9467 117.222 93.04C116.582 94.12 115.715 94.9867 114.622 95.64C113.529 96.28 112.322 96.6 111.002 96.6ZM111.002 92.98C111.655 92.98 112.249 92.82 112.782 92.5C113.329 92.1667 113.762 91.7267 114.082 91.18C114.415 90.6333 114.582 90.04 114.582 89.4C114.582 88.76 114.415 88.1667 114.082 87.62C113.762 87.0733 113.329 86.64 112.782 86.32C112.249 85.9867 111.655 85.82 111.002 85.82C110.362 85.82 109.769 85.9867 109.222 86.32C108.689 86.64 108.255 87.0733 107.922 87.62C107.602 88.1667 107.442 88.76 107.442 89.4C107.442 90.04 107.602 90.6333 107.922 91.18C108.255 91.7267 108.689 92.1667 109.222 92.5C109.769 92.82 110.362 92.98 111.002 92.98ZM94.182 81C92.862 81 91.6554 80.68 90.562 80.04C89.4687 79.3867 88.5954 78.52 87.942 77.44C87.302 76.3467 86.982 75.1333 86.982 73.8C86.982 72.4933 87.3154 71.2933 87.982 70.2C88.6487 69.1067 89.5287 68.2333 90.622 67.58C91.7154 66.9267 92.902 66.6 94.182 66.6C95.502 66.6 96.702 66.9267 97.782 67.58C98.8754 68.22 99.7487 69.0867 100.402 70.18C101.055 71.26 101.382 72.4667 101.382 73.8C101.382 75.1333 101.055 76.3467 100.402 77.44C99.7487 78.52 98.8754 79.3867 97.782 80.04C96.702 80.68 95.502 81 94.182 81ZM94.182 77.38C94.822 77.38 95.4154 77.22 95.962 76.9C96.5087 76.5667 96.942 76.1267 97.262 75.58C97.5954 75.0333 97.762 74.44 97.762 73.8C97.762 73.16 97.5954 72.5667 97.262 72.02C96.942 71.4733 96.5087 71.04 95.962 70.72C95.4154 70.3867 94.822 70.22 94.182 70.22C93.542 70.22 92.9487 70.3867 92.402 70.72C91.8687 71.04 91.4354 71.4733 91.102 72.02C90.7687 72.5667 90.602 73.16 90.602 73.8C90.602 74.44 90.7687 75.0333 91.102 75.58C91.4354 76.1267 91.8687 76.5667 92.402 76.9C92.9354 77.22 93.5287 77.38 94.182 77.38Z" fill="#444849"/>
</svg>
