<svg width="140" height="140" viewBox="0 0 140 140" fill="none" xmlns="http://www.w3.org/2000/svg">
<g clip-path="url(#clip0_2204_2860)">
<path d="M19.9216 131V106.8L14.5016 110.1V105.44L19.9216 102.2H24.1816V131H19.9216ZM41.8166 131.6C39.8566 131.6 38.1232 131.173 36.6166 130.32C35.1099 129.453 33.9232 128.267 33.0566 126.76C32.2032 125.253 31.7766 123.52 31.7766 121.56V111.64C31.7766 109.68 32.2032 107.947 33.0566 106.44C33.9232 104.933 35.1099 103.753 36.6166 102.9C38.1232 102.033 39.8566 101.6 41.8166 101.6C43.7766 101.6 45.5099 102.033 47.0166 102.9C48.5232 103.753 49.7032 104.933 50.5566 106.44C51.4232 107.947 51.8566 109.68 51.8566 111.64V121.56C51.8566 123.52 51.4232 125.253 50.5566 126.76C49.7032 128.267 48.5232 129.453 47.0166 130.32C45.5099 131.173 43.7766 131.6 41.8166 131.6ZM41.8166 127.6C42.8832 127.6 43.8499 127.347 44.7166 126.84C45.5966 126.32 46.2966 125.627 46.8166 124.76C47.3366 123.88 47.5966 122.9 47.5966 121.82V111.34C47.5966 110.273 47.3366 109.307 46.8166 108.44C46.2966 107.56 45.5966 106.867 44.7166 106.36C43.8499 105.84 42.8832 105.58 41.8166 105.58C40.7499 105.58 39.7766 105.84 38.8966 106.36C38.0299 106.867 37.3366 107.56 36.8166 108.44C36.2966 109.307 36.0366 110.273 36.0366 111.34V121.82C36.0366 122.9 36.2966 123.88 36.8166 124.76C37.3366 125.627 38.0299 126.32 38.8966 126.84C39.7766 127.347 40.7499 127.6 41.8166 127.6ZM67.4806 131.6C65.5206 131.6 63.7873 131.173 62.2806 130.32C60.774 129.453 59.5873 128.267 58.7206 126.76C57.8673 125.253 57.4406 123.52 57.4406 121.56V111.64C57.4406 109.68 57.8673 107.947 58.7206 106.44C59.5873 104.933 60.774 103.753 62.2806 102.9C63.7873 102.033 65.5206 101.6 67.4806 101.6C69.4406 101.6 71.174 102.033 72.6806 102.9C74.1873 103.753 75.3673 104.933 76.2206 106.44C77.0873 107.947 77.5206 109.68 77.5206 111.64V121.56C77.5206 123.52 77.0873 125.253 76.2206 126.76C75.3673 128.267 74.1873 129.453 72.6806 130.32C71.174 131.173 69.4406 131.6 67.4806 131.6ZM67.4806 127.6C68.5473 127.6 69.514 127.347 70.3806 126.84C71.2606 126.32 71.9606 125.627 72.4806 124.76C73.0006 123.88 73.2606 122.9 73.2606 121.82V111.34C73.2606 110.273 73.0006 109.307 72.4806 108.44C71.9606 107.56 71.2606 106.867 70.3806 106.36C69.514 105.84 68.5473 105.58 67.4806 105.58C66.414 105.58 65.4406 105.84 64.5606 106.36C63.694 106.867 63.0006 107.56 62.4806 108.44C61.9606 109.307 61.7006 110.273 61.7006 111.34V121.82C61.7006 122.9 61.9606 123.88 62.4806 124.76C63.0006 125.627 63.694 126.32 64.5606 126.84C65.4406 127.347 66.414 127.6 67.4806 127.6ZM93.1447 131.6C91.1847 131.6 89.4514 131.173 87.9447 130.32C86.438 129.453 85.2514 128.267 84.3847 126.76C83.5314 125.253 83.1047 123.52 83.1047 121.56V111.64C83.1047 109.68 83.5314 107.947 84.3847 106.44C85.2514 104.933 86.438 103.753 87.9447 102.9C89.4514 102.033 91.1847 101.6 93.1447 101.6C95.1047 101.6 96.838 102.033 98.3447 102.9C99.8514 103.753 101.031 104.933 101.885 106.44C102.751 107.947 103.185 109.68 103.185 111.64V121.56C103.185 123.52 102.751 125.253 101.885 126.76C101.031 128.267 99.8514 129.453 98.3447 130.32C96.838 131.173 95.1047 131.6 93.1447 131.6ZM93.1447 127.6C94.2114 127.6 95.178 127.347 96.0447 126.84C96.9247 126.32 97.6247 125.627 98.1447 124.76C98.6647 123.88 98.9247 122.9 98.9247 121.82V111.34C98.9247 110.273 98.6647 109.307 98.1447 108.44C97.6247 107.56 96.9247 106.867 96.0447 106.36C95.178 105.84 94.2114 105.58 93.1447 105.58C92.078 105.58 91.1047 105.84 90.2247 106.36C89.358 106.867 88.6647 107.56 88.1447 108.44C87.6247 109.307 87.3647 110.273 87.3647 111.34V121.82C87.3647 122.9 87.6247 123.88 88.1447 124.76C88.6647 125.627 89.358 126.32 90.2247 126.84C91.1047 127.347 92.078 127.6 93.1447 127.6ZM115.769 125.66V118.26H108.369V114.9H115.769V107.54H119.129V114.9H126.509V118.26H119.129V125.66H115.769Z" fill="#444849"/>
<path fill-rule="evenodd" clip-rule="evenodd" d="M66.5169 80.9991C57.6282 81.0027 49.1058 77.4766 42.8198 71.1944C36.5338 64.9121 33 56.3903 33 47.5052C33 38.6166 36.5298 30.0943 42.8123 23.8122C49.0948 17.5297 57.6166 14 66.5056 14C75.3907 14 83.9129 17.5334 90.1952 23.8197C96.4777 30.1058 100.004 38.6276 100 47.5127C99.989 56.3902 96.4556 64.901 90.1802 71.1803C83.9013 77.4554 75.3899 80.9887 66.5159 81L66.5169 80.9991ZM66.5169 16.2323C59.2067 16.2291 52.1584 18.7828 46.5717 23.4C47.1365 23.9535 47.6664 24.5427 48.1536 25.1675C49.4756 26.6728 50.6315 28.3202 51.6004 30.0782C52.5106 31.5628 52.7736 33.3589 52.3272 35.0443C51.9327 36.0617 51.3305 36.9857 50.5553 37.7505C50.3754 37.9443 50.2058 38.1416 50.0397 38.3492H50.0362C48.87 39.7612 48.119 41.4638 47.8595 43.2772C47.6657 44.1355 47.7557 45.0353 48.1121 45.8415C48.7617 47.0891 50.2406 47.538 51.9693 48.0627L52.0053 48.0736C53.7426 48.4439 55.3518 49.2745 56.6634 50.4753C57.7189 51.7211 58.1619 53.3753 57.8643 54.9811C57.5667 56.5868 56.563 57.9745 55.1304 58.7635C54.5732 59.0196 53.9953 59.2204 53.4001 59.3622C52.8048 59.4799 52.2338 59.6979 51.7113 60.0025C50.8531 60.7015 50.5451 61.8747 50.943 62.9059C51.431 63.9892 52.445 64.7435 53.6216 64.8993C54.2687 64.965 54.9158 64.965 55.563 64.8993H56.8192C58.2658 64.7955 59.6778 65.363 60.6536 66.4358C61.2662 67.3287 61.6053 68.3807 61.633 69.4639C61.7715 70.5644 61.8995 71.71 62.0241 72.8277V73.0215H62.0206C62.1764 73.8383 62.1279 74.6827 61.8822 75.4751C61.36 76.5872 60.4565 77.471 59.3424 77.9674C61.668 78.5139 64.0668 78.7962 66.4947 78.7962C74.7935 78.7962 82.7507 75.5011 88.6191 69.6365C94.4875 63.7682 97.7827 55.811 97.7827 47.5124C97.7813 46.4713 97.728 45.4356 97.6243 44.4086H96.2051C94.1495 44.239 92.0904 44.6716 90.2735 45.6509C88.5432 46.8379 87.7057 48.9282 86.8267 51.1464L86.8302 51.1499C86.1277 53.4166 84.8922 55.4826 83.2276 57.1749C82.2898 58.0401 81.0713 58.5384 79.7978 58.5833H79.3929C77.6522 58.2995 76.1952 57.116 75.555 55.4722C75.0394 54.0948 74.766 52.6344 74.7452 51.1636C74.4788 49.7033 74.8075 48.1943 75.6519 46.9762C76.4617 46.1768 77.5033 45.6507 78.6246 45.4708C79.1887 45.3532 79.7355 45.1559 80.2442 44.8825C81.2547 43.9412 81.7704 42.5777 81.6388 41.2004C81.7427 40.3491 81.5765 39.4839 81.1647 38.7329C80.2788 37.8054 79.0225 37.3244 77.7456 37.4213H76.4755C75.2089 37.5078 73.9354 37.3832 72.7103 37.0579C70.132 36.1443 68.3118 33.8326 68.0211 31.1125C67.7996 28.4651 68.862 25.8696 70.8831 24.1393C71.3053 23.7759 71.7482 23.4367 72.2085 23.1184C72.9249 22.6616 73.565 22.0905 74.1049 21.4296C74.7695 20.1973 75.0672 18.8025 74.9699 17.4107C72.2425 16.6404 69.4003 16.2374 66.5169 16.2323ZM45.4198 25.2916C39.8903 30.0551 36.3619 36.6722 35.4368 43.8226C35.2922 45.0386 35.2184 46.268 35.2179 47.5051C35.2172 49.0557 35.3318 50.5947 35.5569 52.1105C36.347 57.1144 38.4069 61.8587 41.5715 65.8779C45.6758 71.0827 51.4 74.7717 57.8363 76.3531L58.0612 76.2424C58.9264 75.7959 59.6808 75.3495 59.9023 74.7508C60.0061 74.2559 60.0061 73.7472 59.9023 73.2558V73.0482L59.9005 73.0325L59.9004 73.0314C59.7764 71.9362 59.6489 70.8105 59.5112 69.7121C59.5043 69.0165 59.3174 68.3347 58.9644 67.7326C58.3934 67.1892 57.6182 66.9158 56.8327 66.9781H55.7011C54.9121 67.0612 54.1195 67.0612 53.3305 66.9781C51.4098 66.6978 49.7695 65.4416 49.0047 63.6594C48.2572 61.7248 48.8836 59.5307 50.5378 58.285C51.2507 57.842 52.0363 57.5201 52.8565 57.3367C53.334 57.2329 53.8012 57.0807 54.2511 56.8903C55.1163 56.4093 55.708 55.5545 55.8534 54.5751C56.0576 53.6269 55.8119 52.6371 55.1855 51.8966C54.1162 50.976 52.8287 50.3531 51.4479 50.0832L51.4319 50.0783C49.5256 49.4946 47.3717 48.8352 46.3123 46.8198C45.7447 45.6223 45.5821 44.2762 45.852 42.9819C46.1496 40.7878 47.0598 38.7253 48.4751 37.0226L49.0462 36.3512V36.3547C49.6414 35.8079 50.1155 35.1435 50.4408 34.4029C50.7073 33.2436 50.4962 32.0254 49.8559 31.0253C48.9077 29.4195 47.7899 27.9176 46.5199 26.5472C46.4545 26.4691 46.3899 26.3914 46.3258 26.3144C46.0234 25.9511 45.733 25.6022 45.4332 25.2909L45.4198 25.2916ZM77.7871 35.3825H77.1884L76.4476 35.41C75.4025 35.4826 74.3539 35.3927 73.3365 35.1435C71.537 34.4998 70.2807 32.8628 70.1146 30.9595C69.9659 29.0042 70.7583 27.0974 72.2499 25.8239H72.2464C72.6236 25.5021 73.0147 25.2114 73.4196 24.9172C74.3436 24.3427 75.1638 23.616 75.849 22.7716C76.6449 21.5188 77.0671 20.0688 77.0637 18.5841C82.2444 20.3252 86.8437 23.457 90.3597 27.641C93.8724 31.8288 96.1668 36.8984 96.9869 42.304H96.2325C93.7582 42.1241 91.2873 42.6813 89.1312 43.9063H89.1278C86.9127 45.4448 85.9211 47.9171 84.9659 50.2984L84.9438 50.3535C84.3382 52.3088 83.2827 54.0979 81.8603 55.5722C81.2651 56.1605 80.4553 56.4858 79.6143 56.4788C78.6315 56.2816 77.8183 55.5825 77.4826 54.6343C77.0604 53.4715 76.8389 52.2464 76.8251 51.0075C76.6382 50.1043 76.787 49.163 77.2438 48.3566C77.787 47.8998 78.4515 47.6022 79.154 47.5053C79.9361 47.3426 80.6837 47.0554 81.3723 46.654C83.0542 45.3839 83.9644 43.3421 83.7879 41.2415C83.8883 39.9576 83.5699 38.6737 82.8812 37.587C81.6389 36.0712 79.7424 35.251 77.7871 35.3825Z" fill="#444849"/>
<path d="M98 17C98 23.6274 86 38 86 38C86 38 74 23.6274 74 17C74 10.3726 79.3726 5 86 5C92.6274 5 98 10.3726 98 17Z" fill="white" stroke="#444849" stroke-width="2.28"/>
<circle cx="86" cy="17" r="6" fill="white" stroke="#444849" stroke-width="2.28"/>
</g>
<defs>
<clipPath id="clip0_2204_2860">
<rect width="140" height="140" fill="white"/>
</clipPath>
</defs>
</svg>
