<svg width="140" height="140" viewBox="0 0 140 140" fill="none" xmlns="http://www.w3.org/2000/svg">
<g clip-path="url(#clip0_2204_2979)">
<path d="M98.201 82.0132C96.9992 80.0023 95.5096 78.1775 93.7864 76.5932C91.6468 74.6025 89.5207 73.6411 87.4963 73.7359C86.1557 73.7765 84.8794 74.3317 83.9382 75.2864C83.4473 75.8349 83.4913 76.6745 84.033 77.1721C84.578 77.6731 85.4244 77.6461 85.939 77.1112C86.1522 76.8911 88.1463 75.0461 91.9447 78.5771C93.4749 79.982 94.7953 81.6002 95.865 83.381C98.1095 87.105 99.572 91.2453 100.158 95.5516C100.408 97.4135 100.53 99.2925 100.52 101.171C100.527 102.319 100.473 103.467 100.357 104.608C100.32 105.393 100.056 106.148 99.5991 106.788C99.0269 107.509 98.0485 107.77 97.1988 107.424L84.8627 103.033H84.8593C83.6812 102.593 82.9026 101.466 82.9161 100.207V93.1141L84.8458 94.4716H84.8424C85.4586 94.8914 86.2948 94.7458 86.7315 94.1432C86.938 93.8487 87.0193 93.4865 86.9583 93.131C86.8974 92.7789 86.6976 92.464 86.4031 92.2575L78.7825 86.895C75.563 84.681 71.3075 84.681 68.0878 86.895L60.4672 92.2575C60.1727 92.464 59.973 92.7789 59.912 93.1343C59.8511 93.4864 59.9323 93.852 60.1389 94.1432C60.5688 94.756 61.4152 94.9016 62.0279 94.4716L63.9543 93.1141V100.207C63.9678 101.466 63.1892 102.593 62.011 103.033L49.6342 107.441C47.1831 108.315 46.5738 105.532 46.4451 103.798V103.795C46.2487 101.046 46.3368 98.2836 46.7125 95.5516C47.2982 91.2453 48.7607 87.105 51.0052 83.381C52.075 81.6002 53.3953 79.982 54.9255 78.577C58.7104 75.0596 60.7011 76.8776 60.9279 77.1112H60.9312C61.4357 77.6562 62.2854 77.6968 62.8372 77.1924C63.389 76.6914 63.4297 75.8416 62.932 75.2864C61.9909 74.3317 60.7146 73.7765 59.3739 73.7359C57.3495 73.6479 55.2234 74.6059 53.0838 76.5932C51.3606 78.1775 49.8711 80.0023 48.6692 82.0132C46.2418 86.0418 44.6642 90.5242 44.0278 95.1822C43.6317 98.0802 43.5335 101.009 43.74 103.923C43.7976 105.467 44.2614 106.967 45.0807 108.274C46.313 110.027 48.5744 110.725 50.582 109.973L62.9181 105.582C65.1762 104.76 66.6759 102.61 66.6624 100.206V91.2076L69.6449 89.1086C71.9368 87.5649 74.933 87.5649 77.2249 89.1086L80.2074 91.2076V100.206C80.1939 102.61 81.6936 104.76 83.9517 105.582L96.2506 109.96H96.2472C97.625 110.478 99.1587 110.352 100.432 109.618C101.911 108.677 102.862 107.095 102.998 105.349C103.228 103.256 103.289 101.154 103.18 99.0552C103.123 97.7619 103.018 96.4687 102.842 95.1822C102.205 90.5239 100.628 86.0415 98.201 82.0132Z" fill="#444849"/>
<path d="M65.4403 79.8535L57.8062 84.7793C57.1765 85.1855 56.9937 86.0218 57.4 86.6515C57.813 87.271 58.6424 87.4504 59.2721 87.0543L66.9401 82.1116C66.9604 82.0981 66.9774 82.0846 66.9977 82.071H66.9943C69.425 80.3106 70.8199 77.4567 70.7217 74.4572L70.6641 72.3752H67.9558L68.0167 74.5317C68.0878 76.6239 67.123 78.6144 65.4403 79.8535Z" fill="#444849"/>
<path d="M76.2069 72.3751L76.1494 74.4571C76.0512 77.4565 77.446 80.3104 79.8768 82.0709C79.8937 82.0844 79.914 82.098 79.9343 82.1115L87.6023 87.0542H87.5989C88.2286 87.4503 89.058 87.2709 89.4711 86.6513C89.8774 86.0217 89.6945 85.1855 89.0682 84.7792L81.4307 79.8534C79.7482 78.6143 78.7833 76.6237 78.8544 74.5315L78.9153 72.375L76.2069 72.3751Z" fill="#444849"/>
<path d="M53.4426 52.225H56.371V55.7967C56.3744 58.7115 58.734 61.0711 61.6488 61.0745H64.1675V64.25H66.8758V59.7203C66.8758 58.9721 66.2665 58.3661 65.5217 58.3661H61.6487C60.2302 58.3661 59.0792 57.2151 59.0792 55.7967V50.8709C59.0792 50.1227 58.4732 49.5167 57.725 49.5167H54.2381L57.6235 44.9735H57.6201C57.8063 44.7094 57.9011 44.3912 57.8875 44.0661C57.7894 42.2888 58.0162 40.508 58.5545 38.8086C60.5383 32.9687 66.3172 29.0413 72.9429 29.0413C75.79 29.0683 78.5796 29.847 81.0272 31.3027C83.4715 32.7585 85.4925 34.8337 86.8738 37.322C88.2585 39.7595 88.9931 42.5085 89.01 45.3082C89.01 52.0756 84.89 55.6709 80.6717 58.7753V58.7719C80.323 59.0292 80.1165 59.4321 80.1165 59.8654V64.2495H82.8248V60.5459C87.2259 57.2485 91.7151 53.0167 91.7151 45.3082H91.7185C91.6576 39.6139 89.1219 34.2313 84.7784 30.5549C81.4471 27.8093 77.2594 26.3164 72.9432 26.3333C65.1567 26.3333 58.3451 30.9984 55.9895 37.9449C55.9827 37.9618 55.9759 37.9855 55.9691 38.0058V38.0092C55.3869 39.861 55.116 41.7975 55.1668 43.7373L51.5376 48.6056C51.0298 49.2827 50.9486 50.1866 51.3311 50.9415C51.734 51.7371 52.5533 52.2347 53.4436 52.2246L53.4426 52.225Z" fill="#444849"/>
<path d="M88.3329 66.9584H58.5378C52.7927 66.9651 47.2884 69.2503 43.2255 73.3128C39.163 77.3719 36.8779 82.8799 36.8711 88.625V111.645C36.8711 112.394 37.4771 113 38.2253 113C38.9734 113 39.5794 112.394 39.5794 111.645V88.625C39.5862 83.5977 41.5836 78.7806 45.1383 75.2255C48.693 71.6708 53.5139 69.6735 58.5379 69.6666H88.333C93.357 69.6734 98.1775 71.6708 101.733 75.2255C105.287 78.7802 107.285 83.5977 107.291 88.625V111.645C107.295 112.39 107.901 112.993 108.646 112.993C109.39 112.993 109.996 112.39 110 111.645V88.625C109.993 82.88 107.708 77.3722 103.645 73.3128C99.5828 69.2503 94.078 66.9651 88.3329 66.9584Z" fill="#444849"/>
<path d="M10.4651 46.7687C4.68466 48.6379 1.51396 54.8391 3.38313 60.6195C5.25231 66.4 11.4535 69.5707 17.234 67.7015L50.5362 56.9328" stroke="#444849" stroke-width="2" stroke-linecap="round" stroke-linejoin="round"/>
<path d="M31.2181 82.0977C27.6053 83.2659 23.7124 81.231 22.5229 77.5525C21.3334 73.8741 23.2979 69.945 26.9106 68.7768L49.3896 61.5079" stroke="#444849" stroke-width="2" stroke-linecap="round" stroke-linejoin="round"/>
</g>
<defs>
<clipPath id="clip0_2204_2979">
<rect width="140" height="140" fill="white"/>
</clipPath>
</defs>
</svg>
