<svg width="1440" height="754" viewBox="0 0 1440 754" fill="none" xmlns="http://www.w3.org/2000/svg">
<path fill-rule="evenodd" clip-rule="evenodd" d="M1440 0H0V754H1440V0ZM64 466H174.629C191.836 466 208.336 472.834 220.5 485C232.664 497.166 249.164 504 266.371 504H337.129C354.336 504 370.836 497.166 383 485C395.164 472.834 411.664 466 428.871 466H654.637C687.523 466 719.062 452.936 742.32 429.681L757.18 414.819C780.438 391.564 811.977 378.5 844.863 378.5H857.637C890.523 378.5 922.062 365.436 945.32 342.181L1091.18 196.319C1114.44 173.064 1145.98 160 1178.86 160H1363C1376.25 160 1387 170.745 1387 184V722C1387 730.836 1379.84 738 1371 738H56C47.1641 738 40 730.836 40 722V490C40 476.745 50.7461 466 64 466Z" fill="white"/>
</svg>
