<svg width="24" height="24" viewBox="0 0 24 24" fill="none" xmlns="http://www.w3.org/2000/svg">
<path d="M17.9998 16.9219C21.4484 15.0966 22.8909 9.78131 19.2196 7.11957C15.5483 4.45782 13.1415 4.61984 9.86988 5.49591C7.48483 6.13458 5.15785 7.73876 3.71031 10.308C0.509979 15.9884 8.99982 21.6855 17.9998 16.9219Z" fill="#386431"/>
<path d="M17.4369 15.6145C20.1133 13.976 20.1105 11.1678 19.7192 10.0577C17.9537 6.62823 13.8175 5.88333 11.2467 6.57183C9.06624 7.15577 11.0878 9.43783 7.07343 10.9693C2.60675 12.6734 9.84225 20.2642 17.4369 15.6145Z" fill="#CBC75F"/>
<path d="M8.19109 11.72C8.60826 11.4762 11.2192 11.0368 13.5462 11.5538C16.7369 12.2628 18.0599 13.4741 18.4693 14.0039" stroke="black" stroke-width="0.5" stroke-linecap="round"/>
<path d="M15.0111 10.3257C15.629 10.4847 16.2448 10.118 16.4038 9.50005C16.5627 8.88211 16.1961 8.26628 15.5781 8.10733C14.9602 7.94838 14.3443 8.31505 14.1854 8.93299C14.0265 9.55092 14.3931 10.1668 15.0111 10.3257Z" fill="black"/>
</svg>
