<svg width="24" height="24" viewBox="0 0 24 24" fill="none" xmlns="http://www.w3.org/2000/svg">
<path d="M5.26055 19.6604C4.6478 19.0477 5.08177 18 5.94833 18H15.9885C17.0204 18 18.01 18.4099 18.7396 19.1396V19.1396C19.3524 19.7523 18.9184 20.8 18.0519 20.8H8.01167C6.9798 20.8 5.99019 20.3901 5.26055 19.6604V19.6604Z" fill="#386431"/>
<path d="M5.26055 19.6604C4.6478 19.0477 5.08177 18 5.94833 18H11.0001L13.8001 20.8H8.01167C6.9798 20.8 5.99019 20.3901 5.26055 19.6604V19.6604Z" fill="#CBC75F"/>
<path d="M5 11.5C5.66667 11.3333 7.4 11.1 9 11.5C11 12 12.5 10.9999 14 9.99994C15.472 9.01861 16.4625 8.03729 18.389 8.47348C18.4575 8.48899 18.5304 8.46955 18.5801 8.41988L18.8586 8.1414C18.9367 8.06331 19.065 8.06335 19.1202 8.15905C19.2272 8.34476 19.2894 8.61904 19.0937 8.89055C19.0434 8.96039 19.0265 9.05142 19.0564 9.13216C19.2088 9.54436 19.3533 10.4146 19.0102 11.4689C19.0036 11.4894 19 11.511 19 11.5325V12.9172C19 12.9702 18.9789 13.0211 18.9414 13.0586L18.6019 13.3981C18.5411 13.4589 18.4481 13.474 18.3711 13.4355L17.6106 13.0553C17.5428 13.0214 17.5006 12.9524 17.4962 12.8767C17.4758 12.5244 17.369 11.9262 17.0562 11.5608C17.0217 11.5205 16.9683 11.497 16.9204 11.5198C16.7454 11.6033 16.5 11.9703 16.5 13C16.5 14.5 16.5 14.5 16 15.5" stroke="black" stroke-width="0.5"/>
<path d="M12.1594 3.58062C12.1594 2.70687 11.4516 2 10.5797 2C9.70687 2 9 2.70687 9 3.58062C9 4.45249 9.70687 5.15842 10.5797 5.15842C11.4525 5.15842 12.1594 4.45249 12.1594 3.58062Z" fill="black"/>
<path fill-rule="evenodd" clip-rule="evenodd" d="M8.95561 8.44064C9.04102 7.6063 9.02691 6.51247 9.01199 5.73711C9.00397 5.32059 9.32828 4.9748 9.72851 5.09045C9.97415 5.16144 10.2495 5.28528 10.5 5.5C10.651 5.6294 10.8438 6.09091 10.9399 6.33918C10.9809 6.44518 10.9997 6.5582 11.0012 6.67186C11.0074 7.15985 11.0325 7.46172 10.9187 8.57384C10.8553 9.19344 10.7585 9.83205 10.6078 10.4044C10.5082 10.7832 10.1894 11.515 10.1894 11.515C10.1894 11.515 10.4271 11.5721 10.5817 11.6019C11.2257 11.7258 11.9693 11.801 12.5756 11.8624C12.789 11.884 12.9853 11.9038 13.1543 11.9235C13.4259 11.9551 13.669 12.0775 13.8251 12.2612C13.9812 12.4449 14.0361 12.6733 13.9765 12.8913L12.9916 16.1521H11.0686L11.8194 13.4012C11.2858 13.3431 10.6658 13.2661 10.1286 13.1627C9.65382 13.0714 9.08439 12.9329 8.67024 12.6951C8.45741 12.5729 8.17334 12.3611 8.05372 12.028C7.92088 11.6581 8.05189 11.3187 8.25581 11.0697C8.39656 10.8978 8.55032 10.5674 8.68166 10.0684C8.80803 9.58823 8.89591 9.02394 8.95561 8.44064Z" fill="black"/>
<path d="M10 6.5L11 10.5L14 11.5" stroke="black" stroke-width="1.5" stroke-linecap="round" stroke-linejoin="round"/>
</svg>
