<svg width="24" height="24" viewBox="0 0 24 24" fill="none" xmlns="http://www.w3.org/2000/svg">
<path d="M13.5688 9.88159C14.0688 8.88159 11.7355 7.71493 11.0688 7.38159L10.3828 7.45813L9.69678 7.53467C11.2521 8.05792 13.152 9.36672 10.7337 11.1975C9.47904 12.1473 9.76543 13.9317 10.2153 15.3835C10.509 16.331 10.7337 17.2488 10.7337 17.2488H17.7872C17.7872 17.2488 14.5688 13.8816 13.5688 12.3816C12.9487 11.4513 12.898 11.2232 13.5688 9.88159Z" fill="white"/>
<path d="M1.67027 8.35529C1.38368 7.88404 1.65578 7.27157 2.1976 7.16836L2.47114 7.11625C6.0798 6.42884 9.77771 6.34677 13.4133 6.87339C15.6352 7.19524 17.5974 8.49239 18.764 10.4106L21.9977 15.728C22.403 16.3944 21.9233 17.2476 21.1433 17.2476H7.64038C7.29124 17.2476 6.96739 17.0655 6.78597 16.7672L1.67027 8.35529Z" fill="#386431"/>
<path d="M13.5689 9.18185C14.0689 8.08686 11.7355 6.97697 11.0689 6.61197L9.68915 6.53001C11.0689 7.09357 13.152 8.61807 10.7338 10.6227C9.47906 11.6628 9.76545 13.6167 10.2154 15.2064C10.509 16.2438 10.7338 17.2489 10.7338 17.2489H17.7872C17.7872 17.2489 14.5689 13.5618 13.5689 11.9193C12.9487 10.9007 12.898 10.6509 13.5689 9.18185Z" fill="white"/>
<path d="M11.2585 6.65405C11.9252 7.0138 14.0686 8.22977 13.5686 9.30901C12.8978 10.757 12.9485 11.0031 13.5686 12.0071C14.5686 13.626 17.8387 17.1069 17.8387 17.1069M9.62695 6.74C11.1823 7.30472 13.1518 8.75334 10.7335 10.7291C9.47883 11.7543 9.76523 13.6801 10.2151 15.2469C10.5088 16.2694 10.8298 17.1069 10.8298 17.1069" stroke="black" stroke-width="0.5" stroke-linecap="round" stroke-linejoin="round"/>
</svg>
