<svg width="24" height="24" viewBox="0 0 24 24" fill="none" xmlns="http://www.w3.org/2000/svg">
<path d="M5.26055 20.2594C4.6478 19.6467 5.08177 18.599 5.94833 18.599H15.9885C17.0204 18.599 18.01 19.0089 18.7396 19.7386V19.7386C19.3524 20.3513 18.9184 21.399 18.0519 21.399H8.01167C6.9798 21.399 5.99019 20.9891 5.26055 20.2594V20.2594Z" fill="#386431"/>
<path d="M5.26055 20.2594C4.6478 19.6467 5.08177 18.599 5.94833 18.599H11.0001L13.8001 21.399H8.01167C6.9798 21.399 5.99019 20.9891 5.26055 20.2594V20.2594Z" fill="#CBC75F"/>
<path fill-rule="evenodd" clip-rule="evenodd" d="M11.2119 3.04355C11.2534 2.7651 11.0796 2.4932 10.8012 2.41904L10.7183 2.40304C10.4384 2.37105 10.173 2.55353 10.1076 2.83489L8.76991 8.58772C8.75828 8.59645 8.74738 8.60517 8.73647 8.61389C8.66232 8.65388 8.59252 8.7055 8.53072 8.76802C8.21883 9.08281 8.19629 9.57572 8.46093 9.91598L8.32788 10.4881L8.28572 10.4809C8.14831 10.4692 8.01818 10.5572 7.9811 10.6953C7.93966 10.8502 8.03199 11.0101 8.18685 11.0516L8.74883 11.2021L8.80045 11.2108C8.93785 11.2224 9.06799 11.1345 9.10506 10.9963C9.14577 10.8444 9.05781 10.6881 8.90877 10.643L8.97202 10.4329L9.9913 11.4427C10.445 11.8913 11.1756 11.8913 11.6285 11.442L12.1149 10.9607L12.4348 12.1545L10.6616 13.9291C10.5177 14.0731 10.4137 14.2527 10.3606 14.4497L9.61473 17.2291C9.48968 17.6944 9.76595 18.1728 10.2312 18.2978L10.3134 18.3153C10.7518 18.3895 11.1822 18.119 11.3 17.6813L12.0052 15.0525L13.5421 13.5148L13.3698 14.1524C13.2883 14.4512 13.3298 14.7704 13.4846 15.0387L15.1786 17.9707C15.42 18.388 15.9536 18.5312 16.3702 18.2899L16.4414 18.2448C16.8035 17.9867 16.9161 17.4909 16.6893 17.0983L15.1161 14.3756L15.7733 11.9531L15.7725 11.9524C15.8394 11.6776 15.8409 11.3824 15.7624 11.0902L15.1597 8.843C14.9474 8.05055 14.2225 7.53218 13.4374 7.54964H10.852C10.6456 7.54964 10.4435 7.60489 10.2653 7.70886L9.69972 8.03891L11.1937 3.12583L11.2119 3.04355ZM11.3166 9.29443H11.0091L10.5642 9.55397L10.8092 9.79679L11.3166 9.29443Z" fill="black"/>
<path d="M15.8935 5.44796C15.8935 6.41198 15.1119 7.19279 14.1486 7.19279C13.1846 7.19279 12.4038 6.41198 12.4038 5.44796C12.4038 4.48466 13.1846 3.70312 14.1486 3.70312C15.1119 3.70312 15.8935 4.48466 15.8935 5.44796Z" fill="black"/>
</svg>
