<svg width="24" height="24" viewBox="0 0 24 24" fill="none" xmlns="http://www.w3.org/2000/svg">
<path d="M9.64682 11.8259C9.48874 11.6824 9.34523 11.5675 9.27348 11.4957C8.98647 11.2519 8.84297 10.9789 8.78579 10.6919L8.12545 11.5243C8.11087 11.5529 8.06827 11.5675 8.03912 11.5675H5.77218C5.32709 11.5675 4.98291 11.9263 4.98291 12.3568C4.98291 12.8019 5.34167 13.146 5.77218 13.146H8.05361C8.57046 13.146 9.05814 12.9162 9.38832 12.5003L9.80425 11.9548C9.80425 11.9548 9.78968 11.9403 9.77566 11.9403L9.64682 11.8259Z" fill="black"/>
<path d="M13.8237 12.8869C13.6085 12.4132 13.2929 11.9827 12.9055 11.6525L11.8864 10.7915L13.1062 8.1226C13.2351 8.22294 13.3646 8.33786 13.5367 8.48136C13.8669 8.76837 14.2974 8.92645 14.7419 8.94046L16.2773 8.98362C16.636 8.9982 16.9376 8.71119 16.9516 8.33785C16.9662 7.97909 16.6792 7.6775 16.3059 7.6635L14.7705 7.62034C14.627 7.62034 14.4981 7.56316 14.3972 7.47683C13.1488 6.41513 12.9767 6.38597 12.804 6.34338L11.7423 6.1427C11.5988 6.11411 11.4267 6.08552 9.44622 6.4583C9.00112 6.54462 8.59977 6.77389 8.31276 7.13265L7.45174 8.18035C7.2219 8.46735 7.26507 8.88329 7.53806 9.11312C7.66699 9.21346 7.81049 9.25663 7.954 9.25663C8.14067 9.25663 8.32734 9.1703 8.47084 9.01279L9.33187 7.96509C9.41819 7.85017 9.54712 7.77842 9.69063 7.74983C9.93447 7.70667 10.1643 7.66351 10.351 7.63492L9.8773 8.89787L9.79097 9.12771C9.44679 10.0459 9.26012 10.5913 9.74781 11.0218C9.84815 11.1081 10.0348 11.2657 10.2501 11.4669C10.9104 12.0409 11.915 12.8734 11.915 12.8734C12.1303 13.06 12.3024 13.2893 12.4173 13.5477L13.3646 15.6571C13.4936 15.9441 13.7806 16.1308 14.0822 16.1308C14.1971 16.1308 14.2974 16.1162 14.3977 16.059C14.7997 15.8869 14.9718 15.4132 14.7997 15.0113L13.8237 12.8869Z" fill="black"/>
<path d="M13.0351 3.04085C13.821 3.22976 14.3048 4.02015 14.1159 4.80609C13.927 5.59201 13.1366 6.07633 12.3506 5.88743C11.5647 5.69852 11.081 4.90812 11.2699 4.12218C11.4588 3.33626 12.2492 2.85194 13.0351 3.04085" fill="black"/>
<path d="M18.6161 14.8106C18.6161 15.5315 18.0314 16.1162 17.31 16.1162C16.5891 16.1162 16.0044 15.5315 16.0044 14.8106C16.0044 14.0892 16.5891 13.5045 17.31 13.5045C18.0314 13.5045 18.6161 14.0892 18.6161 14.8106Z" fill="black"/>
<path d="M5.26055 19.6604C4.6478 19.0477 5.08177 18 5.94833 18H15.9885C17.0204 18 18.01 18.4099 18.7396 19.1396V19.1396C19.3524 19.7523 18.9184 20.8 18.0519 20.8H8.01167C6.9798 20.8 5.99019 20.3901 5.26055 19.6604V19.6604Z" fill="#386431"/>
</svg>
