<svg width="24" height="24" viewBox="0 0 24 24" fill="none" xmlns="http://www.w3.org/2000/svg">
<path d="M3.00146 8.36542C5.31329 7.31687 9.05157 6.29211 13.5523 6.29211C14.9922 6.29211 16.3802 6.43646 17.6226 6.67223" stroke="black" stroke-width="0.5" stroke-linecap="round" stroke-linejoin="round"/>
<path d="M4.12023 5.69368C6.28996 5.2348 9.33963 5.52482 11.53 6.30072" stroke="black" stroke-width="0.5" stroke-linecap="round" stroke-linejoin="round"/>
<path d="M19.7547 14.4671C22.7277 18.1478 11.3345 19.4719 6.14351 18.1576C0.952537 16.8434 4.54898 14.4632 5.8565 13.6555C7.16401 12.8479 5.6072 11.9609 6.14353 10.834C7.00147 9.03125 9.03073 8.61189 11.8759 9.04852C13.5112 9.29949 14.7456 10.708 13.1546 11.9766C11.5636 13.2453 18.1932 12.5339 19.7547 14.4671Z" fill="#386431"/>
<path d="M19.2274 8.17501V15.6897L18.6628 15.6897V10.998L16.1789 9.75601C16.0819 9.70749 16.0176 9.61045 16.0176 9.49765C16.0176 9.38422 16.0819 9.28781 16.1789 9.23929L18.8241 7.91666C18.9048 7.88452 19.0175 7.88452 19.0982 7.93304C19.1789 7.98156 19.2274 8.07797 19.2274 8.17501Z" fill="black"/>
</svg>
