<svg width="24" height="24" viewBox="0 0 24 24" fill="none" xmlns="http://www.w3.org/2000/svg">
<path d="M6.23434 8.45152C6.35577 8.02043 6.74902 7.72266 7.19688 7.72266L17.2934 7.72266C17.7391 7.72266 18.1311 8.01768 18.2544 8.44603L20.509 16.2785C20.693 16.9177 20.2132 17.5551 19.548 17.5551H4.99053C4.3277 17.5551 3.84827 16.9219 4.02799 16.2839L6.23434 8.45152Z" fill="#CBC75F"/>
<path d="M21.9257 16.6982H2.62061L5.86236 6.28284H18.8061L21.9257 16.6982Z" stroke="black" stroke-width="0.5" stroke-linejoin="round"/>
<line x1="2.17578" y1="15.8467" x2="2.17578" y2="17.5498" stroke="black" stroke-width="0.5" stroke-linecap="round"/>
<line x1="6.17578" y1="15.8467" x2="6.17578" y2="17.5498" stroke="black" stroke-width="0.5" stroke-linecap="round"/>
<line x1="5.77881" y1="5.48242" x2="5.77881" y2="7.18555" stroke="black" stroke-width="0.5" stroke-linecap="round"/>
<line x1="18.7451" y1="5.43127" x2="18.7451" y2="7.1344" stroke="black" stroke-width="0.5" stroke-linecap="round"/>
<line x1="10.1758" y1="15.8467" x2="10.1758" y2="17.5498" stroke="black" stroke-width="0.5" stroke-linecap="round"/>
<line x1="14.1758" y1="15.8467" x2="14.1758" y2="17.5498" stroke="black" stroke-width="0.5" stroke-linecap="round"/>
<line x1="18.1758" y1="15.8467" x2="18.1758" y2="17.5498" stroke="black" stroke-width="0.5" stroke-linecap="round"/>
<line x1="22.1758" y1="15.8467" x2="22.1758" y2="17.5498" stroke="black" stroke-width="0.5" stroke-linecap="round"/>
</svg>
