<svg width="24" height="24" viewBox="0 0 24 24" fill="none" xmlns="http://www.w3.org/2000/svg">
<path d="M5.2625 19.6603C4.64975 19.0476 5.08372 17.9999 5.95028 17.9999H15.9905C17.0223 17.9999 18.012 18.4098 18.7416 19.1394V19.1394C19.3543 19.7522 18.9204 20.7999 18.0538 20.7999H8.01362C6.98175 20.7999 5.99214 20.39 5.2625 19.6603V19.6603Z" fill="#386431"/>
<path d="M5.2625 19.6603C4.64975 19.0476 5.08373 17.9999 5.95028 17.9999H11.0021L13.8021 20.7999H8.01362C6.98175 20.7999 5.99214 20.39 5.2625 19.6603V19.6603Z" fill="#CBC75F"/>
<path d="M19.2498 14.9356H18.2334V5.14404C18.2334 5.047 18.1849 4.95059 18.1042 4.90207C18.0236 4.85355 17.9108 4.85355 17.8301 4.88569L15.1849 6.20832C15.0879 6.25684 15.0236 6.35325 15.0236 6.46668C15.0236 6.57948 15.0879 6.67652 15.1849 6.72504L17.6688 7.96702V14.9356H9.87725V14.9192L9.71594 10.9506C9.71594 10.8214 9.68381 10.7086 9.63529 10.6116L8.58675 8.19187C8.68379 8.11121 8.7802 8.04694 8.86085 7.96629L9.60315 7.30465C9.65167 7.25613 9.70019 7.20761 9.73233 7.14333L10.2163 6.06267L10.4097 6.14332C10.4261 6.1597 10.4582 6.1597 10.474 6.1597C10.5546 6.1597 10.6189 6.11118 10.6353 6.04691C10.6674 5.94987 10.6189 5.85347 10.5383 5.80494L10.3448 5.72429C10.377 5.51445 10.2642 5.28887 10.0543 5.19182C9.82874 5.09478 9.57038 5.15969 9.42546 5.36953L4.92515 3.61154C4.81236 3.5794 4.73171 3.61154 4.63466 3.72433C4.50548 3.86926 4.36056 4.03057 4.24777 4.144C4.07007 4.33745 4.47335 5.03122 4.66744 4.80564C4.84514 4.59581 5.00645 4.27318 5.10285 4.07974L9.28054 5.69286L8.86086 6.61222L8.19922 7.20895C7.94086 7.45092 7.61824 7.62862 7.29561 7.75715L6.48905 8.06339C6.35987 8.11191 6.26347 8.20832 6.19856 8.33749C6.15004 8.46667 6.15004 8.6116 6.19856 8.74078L7.27922 11.3053L7.15005 12.8378L6.32835 14.7098C6.29621 14.7905 6.27983 14.8711 6.27983 14.9518H5.05423C4.89291 14.9518 4.78012 15.081 4.78012 15.2259C4.78012 15.3708 4.9093 15.5 5.05423 15.5H19.2333C19.3946 15.5 19.5074 15.3708 19.5074 15.2259C19.5074 15.081 19.3948 14.9356 19.2498 14.9356ZM7.45753 14.9356L8.23196 13.2097C8.26409 13.1454 8.26409 13.0805 8.28048 13.032L8.42541 11.2575L8.60311 11.2254L8.76442 14.9521H7.45753L7.45753 14.9356Z" fill="black"/>
<path d="M6.97503 8.16319C7.53962 7.92122 7.81372 7.25958 7.57175 6.67924C7.32979 6.11464 6.66814 5.84054 6.08781 6.08251C5.52321 6.32448 5.24911 6.98612 5.49108 7.56646C5.74944 8.14744 6.41043 8.40516 6.97503 8.16319V8.16319Z" fill="black"/>
<path d="M11.0887 14.3587C11.492 14.1489 11.8953 13.9718 12.315 13.8263C12.4927 13.762 12.654 13.7135 12.831 13.6649C12.7504 13.5358 12.6861 13.3744 12.7018 13.2131C12.5241 13.2938 12.3471 13.3744 12.1694 13.4715C11.7661 13.6813 11.3628 13.9233 10.9917 14.1974C10.9432 14.2295 10.9432 14.2781 10.9595 14.3266C10.9759 14.3745 11.0402 14.3909 11.0887 14.3587H11.0887Z" fill="black"/>
<path d="M13.3122 13.697C13.5863 13.8098 13.8932 13.6806 14.006 13.4065C14.1188 13.1324 13.9896 12.8255 13.7155 12.7128C13.4414 12.6 13.1345 12.7291 13.0217 13.0032C12.9089 13.2774 13.0381 13.5842 13.3122 13.697Z" fill="black"/>
</svg>
