<svg width="1440" height="754" viewBox="0 0 1440 754" fill="none" xmlns="http://www.w3.org/2000/svg">
<path fill-rule="evenodd" clip-rule="evenodd" d="M1440 0H0V754H1440V0ZM71 466H181.63C198.835 466 215.335 472.835 227.5 485C239.665 497.165 256.165 504 273.37 504H344.13C361.335 504 377.835 497.165 390 485C402.165 472.835 418.665 466 435.87 466H661.638C694.524 466 726.064 452.936 749.319 429.681L764.181 414.819C787.436 391.564 818.976 378.5 851.862 378.5H864.638C897.524 378.5 929.064 365.436 952.319 342.181L1098.18 196.319C1121.44 173.064 1152.98 160 1185.86 160H1370C1383.25 160 1394 170.745 1394 184V722C1394 730.837 1386.84 738 1378 738H63C54.1634 738 47 730.837 47 722V490C47 476.745 57.7452 466 71 466Z" fill="white"/>
</svg>
