<svg width="25" height="25" viewBox="0 0 25 25" fill="none" xmlns="http://www.w3.org/2000/svg">
<path d="M11.4247 12.479H5.9526L4.90625 18.9716L12.5434 18.9716L11.4247 12.479Z" fill="#CBC75F" stroke="black" stroke-width="0.6" stroke-linecap="round" stroke-linejoin="round"/>
<rect x="5.78174" y="9.33923" width="5.77382" height="1.82666" fill="#CBC75F" stroke="black" stroke-width="0.6" stroke-linejoin="round"/>
<rect x="5.78174" y="6.19922" width="5.77382" height="1.82666" fill="#CBC75F" stroke="black" stroke-width="0.6" stroke-linejoin="round"/>
<path d="M16.0952 10.1588C16.2657 8.94126 15.4278 8.40331 14.4527 8.09688C14.0546 7.9718 13.9224 7.45514 14.2415 7.18639L15.0656 6.49243C18.9506 7.75637 18.8296 9.89539 17.8946 11.4884C17.1289 12.7928 15.4691 13.545 15.4691 14.3758C15.4691 16.3778 18.9491 17.7414 20.1447 17.9339V18.8044C20.1447 19.0953 19.8965 19.3256 19.6074 19.293C16.002 18.8866 13.4546 17.1739 13.4546 14.3759C13.4546 12.1814 15.8861 11.6527 16.0952 10.1588Z" fill="#CBC75F"/>
<path d="M18.4878 10.0431C18.6493 8.06524 16.2569 6.81242 14.9619 6.5433L16.0811 6.05137C16.321 5.94592 16.5941 5.93732 16.8362 6.03783C20.3563 7.49981 20.3291 9.42586 19.8402 11.0839C19.3343 12.7996 17.2537 13.0797 17.2538 14.56C17.2539 15.7201 18.2954 16.4671 19.3214 16.8287C19.7844 16.9919 20.1454 17.4016 20.1453 17.8926L20.1452 18.2284C17.9102 17.7814 15.6774 17.2515 15.6774 14.3165C15.6774 12.122 18.2859 12.5153 18.4878 10.0431Z" fill="#386431"/>
<path d="M19.9106 18.2284C17.6755 17.7815 15.7309 16.8581 15.7309 14.3429C15.7309 12.236 18.2961 12.3864 18.4875 10.0431C18.649 8.06526 16.3561 6.88574 15.061 6.61662C15.4195 6.3482 16.325 5.97301 16.6461 5.97302" stroke="black" stroke-width="0.6" stroke-linecap="round" stroke-linejoin="round"/>
<circle cx="12.5261" cy="12.0576" r="2.1289" fill="white" stroke="black" stroke-width="0.6"/>
<line x1="12.5568" y1="10.8664" x2="12.5568" y2="13.2483" stroke="black" stroke-width="0.6" stroke-linecap="round"/>
<line x1="13.7156" y1="12.0395" x2="11.3337" y2="12.0395" stroke="black" stroke-width="0.6" stroke-linecap="round"/>
</svg>
