<svg width="24" height="24" viewBox="0 0 24 24" fill="none" xmlns="http://www.w3.org/2000/svg">
<path d="M16.6382 12.5222C18.1295 14.8253 10.5832 17.1984 5.89911 16.2739C1.21504 15.3495 2.65869 11.2198 3.90597 10.2738C5.15326 9.32776 5.38765 9.29938 5.89927 7.97935C6.70985 5.88798 8.02441 5.95707 10.7385 6.46852C12.2985 6.76248 12.6681 7.87227 11.4618 8.68382C10.2554 9.49536 10.9132 10.5262 12.1856 11.1843C13.458 11.8423 16.0228 11.5716 16.6382 12.5222Z" fill="#CBC75F"/>
<path d="M20.45 11.9633C23.38 16.7703 11.7654 18.3375 6.61755 16.6529C9.97627 16.6529 18.0221 16.3182 18.0221 12.8999C18.0221 11.1894 12.7577 11.1662 12.04 9.94886C11.3223 8.73156 13.0125 8.3927 12.8498 7.1903C12.693 6.03236 8.8419 5.90624 7.59849 6.03236C7.59849 6.03236 10.0993 4.89174 12.4711 5.34943C14.8428 5.80712 15.6731 6.70051 14.0848 8.37754C12.4965 10.0546 18.9112 9.4386 20.45 11.9633Z" fill="#386431"/>
<path d="M6.60534 16.5944C9.81024 17.0545 18.0219 16.3184 18.0219 12.9001C18.0219 10.5067 12.0706 11.5444 11.8977 9.53824M7.59825 6.03255C9.68396 5.49131 12.6928 6.03255 12.8495 7.19048" stroke="black" stroke-width="0.6" stroke-linecap="round"/>
</svg>
