<svg width="24" height="24" viewBox="0 0 24 24" fill="none" xmlns="http://www.w3.org/2000/svg">
<path d="M5.06368 7.09116C5.18511 6.66008 5.57836 6.3623 6.02622 6.3623L17.8261 6.3623C18.2718 6.3623 18.6637 6.65733 18.787 7.08568L21.457 16.3611C21.641 17.0004 21.1612 17.6377 20.496 17.6377H3.41338C2.75055 17.6377 2.27113 17.0046 2.45085 16.3666L5.06368 7.09116Z" fill="#CBC75F"/>
<path d="M4.64404 8.63154C5.10282 8.43668 8.74464 8.29187 11.7148 8.29187C15.1695 8.29187 16.7697 8.44896 19.0268 8.44896" stroke="black" stroke-width="0.5" stroke-linecap="round" stroke-linejoin="round"/>
<path d="M3.83252 11.5123C4.98247 11.5122 8.6796 11.349 12.0484 11.3489C15.1778 11.3488 17.5949 11.3489 19.9397 11.3489" stroke="black" stroke-width="0.5" stroke-linecap="round" stroke-linejoin="round"/>
<path d="M2.89941 15.1232C4.33967 15.0023 8.76561 15.0024 11.8511 15.0024C15.371 15.0025 18.5687 15.0025 20.9135 15.0025" stroke="black" stroke-width="0.5" stroke-linecap="round" stroke-linejoin="round"/>
<path d="M8.15984 14.8042C8.15984 15.3388 7.72652 15.7721 7.19198 15.7721C6.65745 15.7721 6.22412 15.3388 6.22412 14.8042C6.22412 14.2697 7.19198 13.1987 7.19198 13.1987C7.19198 13.1987 8.15984 14.2697 8.15984 14.8042Z" fill="white" stroke="black" stroke-width="0.6"/>
<path d="M12.7341 11.558C12.7341 12.0925 12.3007 12.5259 11.7662 12.5259C11.2317 12.5259 10.7983 12.0925 10.7983 11.558C10.7983 11.0235 11.7662 9.95251 11.7662 9.95251C11.7662 9.95251 12.7341 11.0235 12.7341 11.558Z" fill="white" stroke="black" stroke-width="0.6"/>
<path d="M17.0827 8.92214C17.0827 9.45667 16.6494 9.89 16.1148 9.89C15.5803 9.89 15.147 9.45667 15.147 8.92214C15.147 8.3876 16.1148 7.31665 16.1148 7.31665C16.1148 7.31665 17.0827 8.3876 17.0827 8.92214Z" fill="white" stroke="black" stroke-width="0.6"/>
</svg>
