<svg width="24" height="24" viewBox="0 0 24 24" fill="none" xmlns="http://www.w3.org/2000/svg">
<path d="M17.8731 14.6357L14.8594 13.486V8.8562L17.8731 10.0058V14.6357Z" fill="#CBC75F"/>
<path d="M14.8594 13.5173L5.95557 16.278V11.6169L14.8594 8.8562V13.5173Z" fill="#CBC75F"/>
<path d="M19.4224 16.5076L10.5497 19.7895L8.96924 12.7744L17.873 10.0137L19.4224 16.5076Z" fill="#CBC75F"/>
<path d="M6.00461 15.6288C6.01443 15.0032 6.55435 14.7294 7.21207 15.0032C7.86979 15.2769 8.39008 16.012 8.38026 16.6377L8.341 18.8587L10.5596 19.7816L8.97909 12.7665L5.96534 11.6168L4.46338 17.2477L5.96534 17.8733L6.00461 15.6288Z" fill="#386431"/>
<path d="M6.0129 11.6055C6.15964 11.5688 12.0464 9.75736 14.9714 8.8562L17.9038 10.0476L19.5369 16.6097L10.5525 19.7401M6.0129 11.6055L4.50058 17.1154L5.83665 17.6347V15.3639C5.83665 14.8958 6.29879 14.3924 7.02904 14.6358C7.84039 14.9062 8.3502 15.598 8.3502 16.3521V18.8142L10.5525 19.7401M6.0129 11.6055L9.03093 12.8241L10.5525 19.7401" stroke="black" stroke-width="0.6" stroke-linecap="round" stroke-linejoin="round"/>
<path d="M14.8594 7.70653L5.95557 10.4672V9.30976L14.8594 6.54907V7.70653Z" fill="#CBC75F"/>
<path d="M8.96931 11.6168L5.95557 10.4671V9.30969L8.96931 10.4671V11.6168Z" fill="#386431"/>
<path d="M17.8731 8.85616L14.8594 7.70653V6.54907L17.8731 7.70653V8.85616Z" fill="#CBC75F"/>
<path d="M17.873 8.85618L8.96924 11.6169V10.4672L17.873 7.70654V8.85618Z" fill="#386431"/>
<path d="M17.8731 5.36033L8.96931 8.12884L5.95557 6.97138L14.8594 4.21069L17.8731 5.36033Z" fill="#CBC75F"/>
<path d="M8.96931 9.27853L5.95557 8.12889V6.97144L8.96931 8.12889V9.27853Z" fill="#386431"/>
<path d="M17.873 6.5178L8.96924 9.27849V8.12885L17.873 5.36816V6.5178Z" fill="#386431"/>
</svg>
