<svg width="140" height="140" viewBox="0 0 140 140" fill="none" xmlns="http://www.w3.org/2000/svg">
<circle cx="69.1696" cy="70.0407" r="26.6876" stroke="#444849" stroke-width="2"/>
<path d="M79.7045 45.5992C75.443 47.0482 67.1058 51.5958 72.2196 56.3005C78.6118 62.1814 79.3787 52.2095 83.7254 56.3005C88.0721 60.3916 71.0113 70.8531 79.7045 77.2453C88.3977 83.6376 86.3522 60.6255 96.0684 68.0405" stroke="#444849"/>
<path d="M45.1089 57.4216C48.696 57.3468 55.7358 58.1837 55.1978 62.1297C54.5252 67.0622 46.2298 68.4073 51.6106 72.4429C56.9914 76.4785 69.3274 73.9852 66.8562 80.9625C63.0448 91.7242 69.3224 96.6566 77.8421 94.6388" stroke="#444849"/>
<path d="M73.4699 25.6037C73.4699 27.7519 72.2622 30.4312 70.932 32.6906C70.2819 33.7947 69.6304 34.753 69.1412 35.4354C69.1359 35.4427 69.1307 35.4499 69.1255 35.4571C69.1222 35.4524 69.1189 35.4477 69.1155 35.4429C68.6358 34.7606 67.9969 33.8023 67.3594 32.698C66.0555 30.4396 64.8691 27.7573 64.8691 25.6037C64.8691 23.4604 66.0477 20.9146 67.3459 18.7972C67.9807 17.7617 68.617 16.8715 69.0948 16.2402C69.1051 16.2267 69.1152 16.2133 69.1253 16.2C69.1375 16.2157 69.1498 16.2316 69.1622 16.2477C69.6495 16.8791 70.2985 17.7693 70.9458 18.8046C72.2704 20.9231 73.4699 23.466 73.4699 25.6037Z" stroke="#444849" stroke-width="2"/>
<path d="M66.5311 114.478C66.5311 112.33 67.7387 109.65 69.069 107.391C69.719 106.287 70.3705 105.328 70.8598 104.646C70.865 104.639 70.8703 104.632 70.8754 104.624C70.8788 104.629 70.8821 104.634 70.8855 104.639C71.3652 105.321 72.0041 106.279 72.6416 107.383C73.9455 109.642 75.1318 112.324 75.1318 114.478C75.1318 116.621 73.9533 119.167 72.6551 121.284C72.0203 122.32 71.3839 123.21 70.9061 123.841C70.8959 123.855 70.8857 123.868 70.8757 123.881C70.8635 123.866 70.8512 123.85 70.8388 123.834C70.3514 123.202 69.7025 122.312 69.0552 121.277C67.7306 119.158 66.5311 116.615 66.5311 114.478Z" stroke="#444849" stroke-width="2"/>
<path d="M51.1957 29.5656C52.2698 31.426 52.5636 34.3502 52.5413 36.972C52.5304 38.2532 52.4453 39.4089 52.3627 40.2444C52.3619 40.2534 52.361 40.2623 52.3601 40.2711C52.3548 40.2687 52.3496 40.2662 52.3443 40.2638C51.5877 39.9128 50.5552 39.4023 49.451 38.7647C47.1926 37.4608 44.824 35.7311 43.7472 33.866C42.6756 32.0099 42.4233 29.2158 42.4889 26.733C42.5209 25.5188 42.6269 24.4297 42.725 23.6441C42.7271 23.6273 42.7292 23.6106 42.7313 23.594C42.7498 23.6016 42.7684 23.6092 42.7871 23.6169C43.5249 23.92 44.5319 24.3665 45.6102 24.9395C47.8166 26.1119 50.1269 27.7143 51.1957 29.5656Z" stroke="#444849" stroke-width="2"/>
<path d="M88.8053 110.516C87.7312 108.655 87.4374 105.731 87.4597 103.109C87.4706 101.828 87.5557 100.673 87.6382 99.837C87.6391 99.828 87.64 99.8192 87.6409 99.8103C87.6461 99.8127 87.6514 99.8152 87.6567 99.8176C88.4133 100.169 89.4458 100.679 90.55 101.317C92.8084 102.621 95.177 104.35 96.2538 106.215C97.3254 108.072 97.5776 110.866 97.5121 113.348C97.4801 114.563 97.3741 115.652 97.2759 116.437C97.2738 116.454 97.2717 116.471 97.2696 116.487C97.2512 116.48 97.2326 116.472 97.2138 116.465C96.4761 116.161 95.469 115.715 94.3907 115.142C92.1844 113.97 89.8741 112.367 88.8053 110.516Z" stroke="#444849" stroke-width="2"/>
<path d="M88.8053 29.5656C87.7312 31.426 87.4374 34.3502 87.4597 36.972C87.4706 38.2532 87.5557 39.4089 87.6382 40.2444C87.6391 40.2534 87.64 40.2623 87.6409 40.2711C87.6461 40.2687 87.6514 40.2662 87.6567 40.2638C88.4133 39.9128 89.4458 39.4023 90.55 38.7647C92.8084 37.4608 95.177 35.7311 96.2538 33.866C97.3254 32.0099 97.5776 29.2158 97.5121 26.733C97.4801 25.5188 97.3741 24.4297 97.2759 23.6441C97.2738 23.6273 97.2717 23.6106 97.2696 23.594C97.2512 23.6016 97.2326 23.6092 97.2138 23.6169C96.4761 23.92 95.469 24.3665 94.3907 24.9395C92.1844 26.1119 89.8741 27.7143 88.8053 29.5656Z" stroke="#444849" stroke-width="2"/>
<path d="M51.1957 110.516C52.2698 108.655 52.5636 105.731 52.5413 103.109C52.5304 101.828 52.4453 100.673 52.3627 99.837C52.3619 99.8281 52.361 99.8192 52.3601 99.8103C52.3548 99.8127 52.3496 99.8152 52.3443 99.8176C51.5877 100.169 50.5552 100.679 49.451 101.317C47.1926 102.621 44.824 104.35 43.7472 106.215C42.6756 108.072 42.4233 110.866 42.4889 113.348C42.5209 114.563 42.6269 115.652 42.725 116.437C42.7271 116.454 42.7292 116.471 42.7313 116.487C42.7498 116.48 42.7684 116.472 42.7871 116.465C43.5249 116.161 44.5319 115.715 45.6102 115.142C47.8166 113.97 50.1269 112.367 51.1957 110.516Z" stroke="#444849" stroke-width="2"/>
<path d="M24.7326 65.7403C26.8808 65.7403 29.5601 66.948 31.8196 68.2782C32.9237 68.9283 33.8819 69.5798 34.5643 70.069C34.5716 70.0743 34.5788 70.0795 34.5861 70.0847C34.5813 70.088 34.5766 70.0913 34.5718 70.0947C33.8895 70.5744 32.9312 71.2133 31.8269 71.8508C29.5685 73.1547 26.8862 74.3411 24.7326 74.3411C22.5894 74.3411 20.0435 73.1625 17.9261 71.8643C16.8906 71.2295 16.0004 70.5932 15.3691 70.1154C15.3556 70.1051 15.3422 70.095 15.3289 70.0849C15.3446 70.0727 15.3605 70.0604 15.3766 70.048C16.008 69.5607 16.8982 68.9117 17.9335 68.2644C20.0521 66.9398 22.5949 65.7403 24.7326 65.7403Z" stroke="#444849" stroke-width="2"/>
<path d="M115.268 74.341C113.12 74.341 110.441 73.1333 108.181 71.8031C107.077 71.153 106.119 70.5015 105.437 70.0123C105.429 70.007 105.422 70.0018 105.415 69.9966C105.42 69.9933 105.424 69.99 105.429 69.9866C106.111 69.5069 107.07 68.868 108.174 68.2305C110.432 66.9266 113.115 65.7402 115.268 65.7402C117.412 65.7402 119.957 66.9188 122.075 68.217C123.11 68.8518 124.001 69.4881 124.632 69.9659C124.645 69.9762 124.659 69.9863 124.672 69.9964C124.656 70.0086 124.64 70.0209 124.624 70.0333C123.993 70.5206 123.103 71.1696 122.067 71.8169C119.949 73.1415 117.406 74.341 115.268 74.341Z" stroke="#444849" stroke-width="2"/>
<path d="M34.0241 43.4996C35.8846 44.5737 37.6011 46.9592 38.8927 49.2409C39.5238 50.3559 40.0279 51.3993 40.3743 52.1642C40.378 52.1724 40.3816 52.1805 40.3853 52.1886C40.3795 52.1891 40.3738 52.1896 40.368 52.1902C39.5372 52.2645 38.3878 52.3386 37.1127 52.3386C34.505 52.3386 31.5888 52.0248 29.7238 50.948C27.8677 49.8764 26.2522 47.5828 25.0675 45.3999C24.4882 44.3323 24.0354 43.3362 23.7276 42.6067C23.721 42.5911 23.7145 42.5756 23.708 42.5602C23.7277 42.5575 23.7477 42.5548 23.7678 42.5521C24.5582 42.4458 25.6536 42.3289 26.8739 42.286C29.3709 42.1981 32.1729 42.4307 34.0241 43.4996Z" stroke="#444849" stroke-width="2"/>
<path d="M105.977 96.5819C104.116 95.5077 102.4 93.1222 101.108 90.8405C100.477 89.7255 99.973 88.6821 99.6267 87.9172C99.623 87.9091 99.6193 87.9009 99.6157 87.8928C99.6214 87.8923 99.6272 87.8918 99.633 87.8913C100.464 87.8169 101.613 87.7428 102.888 87.7428C105.496 87.7429 108.412 88.0566 110.277 89.1334C112.133 90.205 113.749 92.4986 114.933 94.6816C115.513 95.7491 115.966 96.7453 116.273 97.4747C116.28 97.4903 116.287 97.5058 116.293 97.5212C116.273 97.5239 116.253 97.5266 116.233 97.5293C115.443 97.6357 114.347 97.7525 113.127 97.7955C110.63 97.8833 107.828 97.6507 105.977 96.5819Z" stroke="#444849" stroke-width="2"/>
<path d="M105.977 43.4996C104.116 44.5737 102.4 46.9592 101.108 49.2409C100.477 50.3559 99.973 51.3993 99.6267 52.1642C99.623 52.1724 99.6193 52.1805 99.6157 52.1886C99.6214 52.1891 99.6272 52.1896 99.633 52.1902C100.464 52.2645 101.613 52.3386 102.888 52.3386C105.496 52.3386 108.412 52.0248 110.277 50.948C112.133 49.8764 113.749 47.5828 114.933 45.3999C115.513 44.3323 115.966 43.3362 116.273 42.6067C116.28 42.5911 116.287 42.5756 116.293 42.5602C116.273 42.5575 116.253 42.5548 116.233 42.5521C115.443 42.4458 114.347 42.3289 113.127 42.286C110.63 42.1981 107.828 42.4307 105.977 43.4996Z" stroke="#444849" stroke-width="2"/>
<path d="M34.0241 96.5819C35.8846 95.5078 37.6011 93.1222 38.8927 90.8405C39.5238 89.7255 40.028 88.6821 40.3743 87.9172C40.378 87.9091 40.3816 87.9009 40.3853 87.8928C40.3795 87.8923 40.3738 87.8918 40.368 87.8913C39.5372 87.817 38.3878 87.7428 37.1127 87.7428C34.505 87.7429 31.5888 88.0566 29.7238 89.1334C27.8677 90.205 26.2522 92.4986 25.0675 94.6816C24.4882 95.7491 24.0354 96.7453 23.7276 97.4747C23.721 97.4903 23.7145 97.5058 23.708 97.5212C23.7277 97.5239 23.7477 97.5266 23.7678 97.5293C24.5582 97.6357 25.6536 97.7525 26.8739 97.7955C29.3709 97.8833 32.1729 97.6507 34.0241 96.5819Z" stroke="#444849" stroke-width="2"/>
</svg>
