<svg width="24" height="24" viewBox="0 0 24 24" fill="none" xmlns="http://www.w3.org/2000/svg">
<path d="M4.61447 18.0706L2.12706 12.7138C1.81928 12.0509 2.30325 11.2926 3.03405 11.2926H19.3028C19.6823 11.2926 20.0291 11.5074 20.1981 11.8471L22.8634 17.204C23.1942 17.8687 22.7106 18.6494 21.9681 18.6494H5.52145C5.13224 18.6494 4.77839 18.4236 4.61447 18.0706Z" fill="#CBC75F"/>
<path d="M7.02396 16.7491H18.3675C19.2218 16.7491 20.2777 16.7968 19.8631 15.9197C19.4485 15.0427 18.6519 15.0885 17.6784 15.0885H7.3309C6.4766 15.0885 5.70461 14.8769 5.50062 14.3289C5.29662 13.781 5.61835 13.4631 6.33089 13.4631H17.1131C17.9674 13.4631 18.621 13.4631 18.3675 12.6795C18.1141 11.896 17.1987 11.896 16.3444 11.896H6.8069C5.55767 11.896 4.55679 11.6706 4.2961 10.9728C4.03541 10.275 4.95259 10.177 5.80689 10.177H16.8914" stroke="black" stroke-width="0.6" stroke-linecap="round" stroke-linejoin="round"/>
<path d="M7.30243 4.63818C7.08969 4.83829 6.79184 5.51874 7.30243 6.63961C7.81302 7.76049 7.51518 8.39654 7.30243 8.57445" stroke="black" stroke-width="0.6" stroke-linecap="round"/>
<path d="M10.8664 4.63818C10.6537 4.83829 10.3558 5.51874 10.8664 6.63961C11.377 7.76049 11.0791 8.39654 10.8664 8.57445" stroke="black" stroke-width="0.6" stroke-linecap="round"/>
<path d="M14.4304 4.63818C14.2176 4.83829 13.9198 5.51874 14.4304 6.63961C14.941 7.76049 14.6431 8.39654 14.4304 8.57445" stroke="black" stroke-width="0.6" stroke-linecap="round"/>
</svg>
