<svg width="140" height="140" viewBox="0 0 140 140" fill="none" xmlns="http://www.w3.org/2000/svg">
<path d="M54.4064 79.8563C54.4064 81.4153 52.0693 81.4153 52.0693 79.8563C52.0693 78.2973 54.4064 78.2973 54.4064 79.8563Z" fill="#444849"/>
<path d="M63.0119 68.09C63.0119 69.6461 60.6748 69.6461 60.6748 68.09C60.6748 66.531 63.0119 66.531 63.0119 68.09Z" fill="#444849"/>
<path d="M56.7433 76.4809C56.7433 78.0399 54.4062 78.0399 54.4062 76.4809C54.4062 74.9219 56.7433 74.9219 56.7433 76.4809Z" fill="#444849"/>
<path d="M53.175 88.6407C53.175 90.1997 50.8379 90.1997 50.8379 88.6407C50.8379 87.0817 53.175 87.0817 53.175 88.6407Z" fill="#444849"/>
<path d="M55.922 93.6042C55.922 95.1632 53.585 95.1632 53.585 93.6042C53.585 92.0452 55.922 92.0452 55.922 93.6042Z" fill="#444849"/>
<path d="M50.7287 95.9423C50.7287 97.5013 48.3916 97.5013 48.3916 95.9423C48.3916 94.3833 50.7287 94.3833 50.7287 95.9423Z" fill="#444849"/>
<path d="M63.2555 90.155C63.2555 91.714 60.9185 91.714 60.9185 90.155C60.9185 88.5989 63.2555 88.5989 63.2555 90.155Z" fill="#444849"/>
<path d="M64.2301 77.9948C64.2301 79.5538 61.8931 79.5538 61.8931 77.9948C61.8931 76.4387 64.2301 76.4387 64.2301 77.9948Z" fill="#444849"/>
<path d="M63.0617 81.6661C63.0617 83.2251 60.7246 83.2251 60.7246 81.6661C60.7246 80.11 63.0617 80.11 63.0617 81.6661Z" fill="#444849"/>
<path d="M68.0587 97.9927C68.0587 99.5517 65.7217 99.5517 65.7217 97.9927C65.7217 96.4367 68.0587 96.4367 68.0587 97.9927Z" fill="#444849"/>
<path d="M61.612 98.8174C61.612 100.374 59.2749 100.374 59.2749 98.8174C59.2749 97.2584 61.612 97.2584 61.612 98.8174Z" fill="#444849"/>
<path d="M60.7247 77.649C60.7247 78.747 59.0806 78.747 59.0806 77.649C59.0806 76.5539 60.7247 76.5539 60.7247 77.649Z" fill="#444849"/>
<path d="M62.6656 86.2616C62.6656 87.3567 61.0215 87.3567 61.0215 86.2616C61.0215 85.1636 62.6656 85.1636 62.6656 86.2616Z" fill="#444849"/>
<path d="M56.3971 88.9864C56.3971 90.0844 54.7529 90.0844 54.7529 88.9864C54.7529 87.8913 56.3971 87.8913 56.3971 88.9864Z" fill="#444849"/>
<path d="M45.84 92.1453C45.84 93.2433 44.1929 93.2433 44.1929 92.1453C44.1929 91.0502 45.84 91.0502 45.84 92.1453Z" fill="#444849"/>
<path d="M62.0875 94.5414C62.0875 95.6365 60.4434 95.6365 60.4434 94.5414C60.4434 93.4434 62.0875 93.4434 62.0875 94.5414Z" fill="#444849"/>
<path d="M67.6988 90.7917C67.6988 91.8868 66.0547 91.8868 66.0547 90.7917C66.0547 89.6936 67.6988 89.6936 67.6988 90.7917Z" fill="#444849"/>
<path d="M57.4337 85.4377C57.4337 86.5357 55.7896 86.5357 55.7896 85.4377C55.7896 84.3426 57.4337 84.3426 57.4337 85.4377Z" fill="#444849"/>
<path d="M60.9186 73.5251C60.9186 74.6202 59.2715 74.6202 59.2715 73.5251C59.2715 72.427 60.9186 72.427 60.9186 73.5251Z" fill="#444849"/>
<path d="M66.068 83.7946C66.068 84.8897 64.4238 84.8897 64.4238 83.7946C64.4238 82.6966 66.068 82.6966 66.068 83.7946Z" fill="#444849"/>
<path d="M78.609 98.8152C78.609 99.9133 76.9648 99.9133 76.9648 98.8152C76.9648 97.7201 78.609 97.7201 78.609 98.8152Z" fill="#444849"/>
<path d="M66.0548 70.0806C66.0548 71.1786 64.4106 71.1786 64.4106 70.0806C64.4106 68.9826 66.0548 68.9826 66.0548 70.0806Z" fill="#444849"/>
<path d="M66.0548 65.1764C66.0548 66.2745 64.4106 66.2745 64.4106 65.1764C64.4106 64.0813 66.0548 64.0813 66.0548 65.1764Z" fill="#444849"/>
<path d="M67.965 75.1701C67.965 76.2652 66.3179 76.2652 66.3179 75.1701C66.3179 74.072 67.965 74.072 67.965 75.1701Z" fill="#444849"/>
<path d="M58.3873 95.5943C58.3873 96.6894 56.7432 96.6894 56.7432 95.5943C56.7432 94.4992 58.3873 94.4992 58.3873 95.5943Z" fill="#444849"/>
<path d="M81.9762 98.8174C81.9762 99.9125 80.3291 99.9125 80.3291 98.8174C80.3291 97.7194 81.9762 97.7194 81.9762 98.8174Z" fill="#444849"/>
<path d="M76.3438 95.8007C76.3438 97.1673 74.292 97.1673 74.292 95.8007C74.292 94.4304 76.3438 94.4304 76.3438 95.8007Z" fill="#444849"/>
<path d="M72.8478 99.1631C72.8478 100.258 71.2036 100.258 71.2036 99.1631C71.2036 98.068 72.8478 98.068 72.8478 99.1631Z" fill="#444849"/>
<path d="M70.9244 95.7994C70.9244 96.8974 69.2803 96.8974 69.2803 95.7994C69.2803 94.7013 70.9244 94.7013 70.9244 95.7994Z" fill="#444849"/>
<path d="M81.1523 95.672C81.1523 97.2103 78.8428 97.2103 78.8428 95.672C78.8428 94.1295 81.1523 94.1295 81.1523 95.672Z" fill="#444849"/>
<path d="M85.8487 98.3384C85.8487 99.4364 84.2017 99.4364 84.2017 98.3384C84.2017 97.2404 85.8487 97.2404 85.8487 98.3384Z" fill="#444849"/>
<path d="M50.3823 86.4608C50.3823 88.309 47.6025 88.309 47.6025 86.4608C47.6025 84.6076 50.3823 84.6076 50.3823 86.4608Z" fill="#444849"/>
<path d="M67.965 62.1404C67.965 63.2355 66.3179 63.2355 66.3179 62.1404C66.3179 61.0424 67.965 61.0424 67.965 62.1404Z" fill="#444849"/>
<path d="M67.6988 87.0838C67.6988 88.1789 66.0547 88.1789 66.0547 87.0838C66.0547 85.9857 67.6988 85.9857 67.6988 87.0838Z" fill="#444849"/>
<path d="M54.4064 97.9927C54.4064 99.0907 52.7593 99.0907 52.7593 97.9927C52.7593 96.8976 54.4064 96.8976 54.4064 97.9927Z" fill="#444849"/>
<path d="M53.9986 84.2474C53.9986 85.3454 52.3516 85.3454 52.3516 84.2474C52.3516 83.1493 53.9986 83.1493 53.9986 84.2474Z" fill="#444849"/>
<path d="M59.0807 92.1453C59.0807 93.2433 57.4336 93.2433 57.4336 92.1453C57.4336 91.0502 59.0807 91.0502 59.0807 92.1453Z" fill="#444849"/>
<path d="M51.2042 92.1453C51.2042 93.2433 49.5601 93.2433 49.5601 92.1453C49.5601 91.0502 51.2042 91.0502 51.2042 92.1453Z" fill="#444849"/>
<path d="M63.2555 73.5251C63.2555 74.6202 61.6113 74.6202 61.6113 73.5251C61.6113 72.427 63.2555 72.427 63.2555 73.5251Z" fill="#444849"/>
<path d="M66.8902 94.5414C66.8902 95.6365 65.2461 95.6365 65.2461 94.5414C65.2461 93.4434 66.8902 93.4434 66.8902 94.5414Z" fill="#444849"/>
<path d="M59.2716 82.2731C59.2716 83.3711 57.6245 83.3711 57.6245 82.2731C57.6245 81.178 59.2716 81.178 59.2716 82.2731Z" fill="#444849"/>
<path d="M56.0689 41.7874C55.7928 42.2657 55.9567 42.8772 56.435 43.1534C56.9133 43.4295 57.5249 43.2657 57.801 42.7874L56.0689 41.7874ZM82.8867 43.2533C83.4202 43.3962 83.9685 43.0797 84.1114 42.5462L86.4408 33.8529C86.5837 33.3194 86.2672 32.771 85.7337 32.6281C85.2002 32.4852 84.6519 32.8017 84.509 33.3352L82.4384 41.0626L74.711 38.9921C74.1775 38.8491 73.6292 39.1657 73.4862 39.6992C73.3433 40.2326 73.6599 40.781 74.1934 40.9239L82.8867 43.2533ZM112.384 93.2125C112.108 92.7342 111.496 92.5704 111.018 92.8465C110.54 93.1227 110.376 93.7342 110.652 94.2125L112.384 93.2125ZM97.7055 115.704C97.315 116.095 97.315 116.728 97.7055 117.119L104.069 123.483C104.46 123.873 105.093 123.873 105.484 123.483C105.874 123.092 105.874 122.459 105.484 122.068L99.8268 116.412L105.484 110.755C105.874 110.364 105.874 109.731 105.484 109.34C105.093 108.95 104.46 108.95 104.069 109.34L97.7055 115.704ZM40.587 117.412C41.1393 117.412 41.587 116.964 41.587 116.412C41.587 115.859 41.1393 115.412 40.587 115.412V117.412ZM28.4477 93.4537C28.3047 92.9203 27.7564 92.6037 27.2229 92.7466L18.5296 95.076C17.9961 95.2189 17.6795 95.7673 17.8225 96.3007C17.9654 96.8342 18.5138 97.1508 19.0472 97.0078L26.7746 94.9373L28.8452 102.665C28.9881 103.198 29.5365 103.515 30.0699 103.372C30.6034 103.229 30.92 102.681 30.777 102.147L28.4477 93.4537ZM17.8406 110.412L16.9745 109.912L17.8406 110.412ZM121.159 110.412L120.293 110.912L121.159 110.412ZM66.5761 25.5884L67.4422 26.0884L66.5761 25.5884ZM73.5043 25.5884L72.6383 26.0884L73.5043 25.5884ZM57.801 42.7874L67.4422 26.0884L65.7101 25.0884L56.0689 41.7874L57.801 42.7874ZM72.6383 26.0884L82.2795 42.7874L84.0115 41.7874L74.3704 25.0884L72.6383 26.0884ZM110.652 94.2125L120.293 110.912L122.025 109.912L112.384 93.2125L110.652 94.2125ZM117.695 115.412H98.4126V117.412H117.695V115.412ZM40.587 115.412H21.3047V117.412H40.587V115.412ZM18.7066 110.912L28.3478 94.2125L26.6157 93.2125L16.9745 109.912L18.7066 110.912ZM21.3047 115.412C18.9953 115.412 17.5519 112.912 18.7066 110.912L16.9745 109.912C15.05 113.245 17.4557 117.412 21.3047 117.412V115.412ZM120.293 110.912C121.448 112.912 120.004 115.412 117.695 115.412V117.412C121.544 117.412 123.95 113.245 122.025 109.912L120.293 110.912ZM67.4422 26.0884C68.5969 24.0884 71.4836 24.0884 72.6383 26.0884L74.3704 25.0884C72.4459 21.755 67.6346 21.7551 65.7101 25.0884L67.4422 26.0884Z" fill="#444849"/>
<path d="M80.4545 70.8968L73.4155 54.9418C73.188 54.4261 72.5795 54.2002 72.0706 54.4426L62.7533 58.8794C62.5876 58.9583 62.4469 59.0812 62.3464 59.2347L37.0126 97.9525C36.5774 98.6176 37.0546 99.5 37.8494 99.5H41.4289C41.4763 99.5 41.5235 99.5034 41.5704 99.5101L72.8511 103.979C72.9498 103.993 73.0501 103.992 73.1485 103.977L99.9187 99.7497C100.649 99.6344 101.006 98.7941 100.582 98.1885L98 94.5L80.5674 71.0904C80.5226 71.0303 80.4847 70.9654 80.4545 70.8968Z" stroke="#444849" stroke-width="2" stroke-linecap="round" stroke-linejoin="round"/>
</svg>
