<svg width="140" height="140" viewBox="0 0 140 140" fill="none" xmlns="http://www.w3.org/2000/svg">
<path fill-rule="evenodd" clip-rule="evenodd" d="M46.7575 25C44.9137 25.0052 43.4241 26.4948 43.4189 28.3333V28.8281C43.4242 30.6667 44.9137 32.1563 46.7575 32.1615H92.6788C94.5173 32.1562 96.0069 30.6667 96.0121 28.8281V28.3333C96.0069 26.4948 94.5173 25.0052 92.6788 25H46.7575ZM46.7575 26.4792H92.6788C93.1736 26.474 93.6476 26.6667 93.9965 27.0157C94.3403 27.3646 94.5382 27.8386 94.533 28.3334V28.8281C94.5382 29.3177 94.3403 29.7917 93.9965 30.1407C93.6476 30.4896 93.1736 30.6823 92.6788 30.6771H46.7575C46.2627 30.6823 45.7887 30.4896 45.4398 30.1407C45.0908 29.7917 44.8981 29.3177 44.9033 28.8281V28.3334C44.8981 27.8386 45.0908 27.3646 45.4398 27.0157C45.7887 26.6667 46.2627 26.474 46.7575 26.4792ZM46.7575 108.203V108.208C44.9137 108.214 43.4241 109.703 43.4189 111.542V112.037C43.4242 113.875 44.9137 115.365 46.7575 115.365H92.6788C94.5173 115.365 96.0069 113.875 96.0121 112.037V111.542C96.0069 109.703 94.5173 108.214 92.6788 108.208L46.7575 108.203ZM46.7575 109.688H92.6788C93.1736 109.682 93.6476 109.875 93.9965 110.224C94.3403 110.573 94.5382 111.047 94.533 111.542V112.037C94.5382 112.526 94.3455 113 93.9965 113.349C93.6476 113.698 93.1736 113.891 92.6788 113.886H46.7575C46.2627 113.891 45.7887 113.698 45.4398 113.349C45.0908 113 44.8981 112.526 44.9033 112.037V111.542C44.8981 111.047 45.0908 110.573 45.4398 110.224C45.7887 109.875 46.2627 109.682 46.7575 109.688Z" fill="#444849"/>
<path fill-rule="evenodd" clip-rule="evenodd" d="M46.0081 109.688C45.8779 109.688 45.7529 109.657 45.6435 109.594C42.8831 108.037 40.7842 104.089 39.1539 98.6464C37.5237 93.2038 36.4299 86.2246 36.1018 78.5531C35.4508 63.2038 37.8518 45.0798 45.357 31.0744V31.0692C45.482 30.8296 45.7372 30.6786 46.008 30.6786H69.7107H69.7159H93.4186C93.6946 30.6786 93.9446 30.8296 94.0748 31.0692C101.58 45.0745 103.981 63.1999 103.33 78.5479C103.007 86.2197 101.913 93.1986 100.278 98.6412C98.6424 104.084 96.5435 108.037 93.7831 109.589V109.594C93.6737 109.657 93.5487 109.688 93.4185 109.688H69.7158H69.7106H46.0081ZM69.7161 108.209H93.1694C95.1902 106.98 97.2997 103.407 98.8569 98.2192C100.44 92.938 101.524 86.0578 101.847 78.4846C102.482 63.4792 100.107 45.7606 92.9559 32.1619H69.7159V32.1567L69.7106 32.1619H46.476C39.3197 45.7606 36.9448 63.4792 37.5801 78.4846C37.903 86.0575 38.9864 92.9379 40.5697 98.2192C42.127 103.407 44.2364 106.98 46.2572 108.209H69.7105H69.7161Z" fill="#444849"/>
<path fill-rule="evenodd" clip-rule="evenodd" d="M85.2682 55C80.9713 55.0156 76.4193 55.0209 71.9349 55.0156C61.7161 55.0104 53.4136 63.2968 53.4136 73.5156V84.625H53.4188C53.4188 84.8229 53.4969 85.0104 53.6375 85.151C53.7782 85.2916 53.9656 85.3698 54.1636 85.3698H67.4969C77.7157 85.3698 86.0182 77.0676 86.0182 66.8484L86.013 55.7391C86.013 55.5412 85.9349 55.3537 85.7943 55.2131C85.6589 55.0724 85.4662 55 85.2682 55ZM84.5287 56.4844L84.5339 66.849C84.5339 76.2656 76.9141 83.885 67.4979 83.885H54.9041V73.5152C54.9041 64.0986 62.5239 56.4886 71.9401 56.4939C76.1745 56.4939 80.4453 56.4939 84.5339 56.4783L84.5287 56.4844Z" fill="#444849"/>
<path fill-rule="evenodd" clip-rule="evenodd" d="M80.3363 58.7453C80.1488 58.6776 79.9457 58.688 79.7686 58.7766C79.5915 58.8599 79.4561 59.0109 79.3884 59.1984C79.3884 59.1984 78.3467 62.1932 74.6072 66.7506C70.8676 71.3079 64.4665 77.3547 53.8045 83.2399C53.4452 83.4378 53.3149 83.8857 53.5129 84.2451C53.6066 84.417 53.7681 84.542 53.9556 84.5993C54.1431 84.6514 54.3462 84.6305 54.5181 84.5368C65.3358 78.568 71.8981 72.3909 75.7527 67.6928C79.6069 62.9897 80.7839 59.6928 80.7839 59.6928V59.6876C80.8516 59.5053 80.8412 59.3022 80.7579 59.1251C80.6693 58.948 80.5186 58.8078 80.3363 58.7453Z" fill="#444849"/>
<path fill-rule="evenodd" clip-rule="evenodd" d="M78.3092 73.6667C77.9811 73.4219 77.5176 73.4844 77.2728 73.8125C77.2728 73.8125 77.2311 73.8854 76.9238 74.1042C76.6113 74.3281 76.0801 74.6406 75.2156 74.9427C73.4864 75.5469 70.4396 76.099 65.3301 75.7344L65.3249 75.7396C64.9186 75.7136 64.5645 76.0208 64.5332 76.4271C64.5176 76.625 64.5853 76.8177 64.7155 76.9635C64.8405 77.1146 65.0228 77.2031 65.2207 77.2188C70.4811 77.5938 73.7259 77.0365 75.6999 76.3438C76.6843 76 77.3562 75.6198 77.7833 75.3073C78.2156 74.9948 78.4499 74.6979 78.4499 74.6979L78.4551 74.7031C78.5749 74.5469 78.627 74.349 78.5958 74.1511C78.5697 73.9583 78.4655 73.7813 78.3092 73.6667ZM71.3041 58.708C71.1061 58.682 70.9082 58.734 70.752 58.8486C70.752 58.8486 70.4395 59.0986 70.1478 59.5465C69.8561 59.9893 69.5228 60.6715 69.2728 61.6716C68.7728 63.6716 68.6009 66.932 69.7311 72.1924C69.7728 72.3851 69.8874 72.5518 70.0541 72.656C70.2207 72.7653 70.4187 72.8018 70.6114 72.7601C71.0124 72.6716 71.2676 72.281 71.1791 71.8799C70.0853 66.7706 70.2832 63.734 70.7103 62.031C70.9239 61.1768 71.1895 60.656 71.3874 60.3591C71.5801 60.0622 71.6426 60.0362 71.6426 60.0362C71.7989 59.9164 71.903 59.7445 71.9291 59.5466C71.9603 59.3539 71.9082 59.156 71.7884 58.9997C71.6739 58.8383 71.4968 58.7393 71.3041 58.708ZM62.903 66.8643C62.7103 66.9007 62.5436 67.0153 62.4342 67.182C62.4342 67.182 59.3457 71.859 59.3457 80.1872V80.182C59.3457 80.3799 59.4238 80.5674 59.5644 80.708C59.6999 80.8486 59.8926 80.9268 60.0853 80.9216C60.2832 80.9216 60.4707 80.8434 60.6113 80.708C60.7519 80.5674 60.8301 80.3799 60.8301 80.182C60.8301 72.2132 63.6686 67.9997 63.6686 67.9997C63.778 67.8382 63.8144 67.6403 63.778 67.4424C63.7363 67.2497 63.6269 67.083 63.4603 66.9737C63.2988 66.8643 63.0957 66.8278 62.903 66.8643Z" fill="#444849"/>
<path fill-rule="evenodd" clip-rule="evenodd" d="M69.7162 42.776C54.5909 42.776 42.3096 55.0572 42.3096 70.1827C42.3096 85.3081 54.5908 97.5893 69.7162 97.5893C84.8417 97.5893 97.1229 85.3081 97.1229 70.1827C97.1229 55.0572 84.8417 42.776 69.7162 42.776ZM69.7162 44.2552C84.0442 44.2552 95.6429 55.8541 95.6429 70.1819C95.6429 84.5096 84.044 96.1085 69.7162 96.1085C55.3885 96.1085 43.7949 84.5096 43.7949 70.1819C43.7949 55.8541 55.3938 44.2605 69.7162 44.2605V44.2552Z" fill="#444849"/>
<rect width="74" height="33" transform="translate(33 98)" fill="white"/>
<path d="M34.8386 117.568V115.132H43.5386V117.568H34.8386ZM53.4979 125.935C52.4249 125.935 51.4244 125.718 50.4964 125.282C49.578 124.838 48.7902 124.229 48.1329 123.455C47.4755 122.672 47.0067 121.773 46.7264 120.758L49.6409 119.975C49.8052 120.594 50.0855 121.131 50.4819 121.585C50.8879 122.039 51.3615 122.392 51.9029 122.643C52.4442 122.885 53.0049 123.006 53.5849 123.006C54.3485 123.006 55.0397 122.822 55.6584 122.455C56.2867 122.088 56.7797 121.595 57.1374 120.976C57.5047 120.357 57.6884 119.676 57.6884 118.931C57.6884 118.168 57.4999 117.477 57.1229 116.858C56.7555 116.239 56.2577 115.751 55.6294 115.393C55.0107 115.026 54.3292 114.842 53.5849 114.842C52.7342 114.842 52.014 115.012 51.4244 115.35C50.8347 115.688 50.3755 116.08 50.0469 116.524L47.4079 115.596L48.0459 104.62H59.3124V107.476H49.5974L50.8299 106.331L50.3224 114.552L49.7279 113.784C50.2789 113.233 50.9362 112.812 51.6999 112.522C52.4635 112.232 53.2224 112.087 53.9764 112.087C55.2717 112.087 56.4269 112.387 57.4419 112.986C58.4665 113.586 59.2737 114.403 59.8634 115.437C60.453 116.462 60.7479 117.626 60.7479 118.931C60.7479 120.227 60.4144 121.406 59.7474 122.469C59.0804 123.523 58.1959 124.364 57.0939 124.992C55.9919 125.621 54.7932 125.935 53.4979 125.935ZM71.4926 125.935C70.0716 125.935 68.8149 125.626 67.7226 125.007C66.6303 124.379 65.7699 123.518 65.1416 122.426C64.5229 121.334 64.2136 120.077 64.2136 118.656V111.464C64.2136 110.043 64.5229 108.786 65.1416 107.694C65.7699 106.602 66.6303 105.746 67.7226 105.127C68.8149 104.499 70.0716 104.185 71.4926 104.185C72.9136 104.185 74.1703 104.499 75.2626 105.127C76.3549 105.746 77.2104 106.602 77.8291 107.694C78.4574 108.786 78.7716 110.043 78.7716 111.464V118.656C78.7716 120.077 78.4574 121.334 77.8291 122.426C77.2104 123.518 76.3549 124.379 75.2626 125.007C74.1703 125.626 72.9136 125.935 71.4926 125.935ZM71.4926 123.035C72.2659 123.035 72.9668 122.851 73.5951 122.484C74.2331 122.107 74.7406 121.604 75.1176 120.976C75.4946 120.338 75.6831 119.627 75.6831 118.844V111.246C75.6831 110.473 75.4946 109.772 75.1176 109.144C74.7406 108.506 74.2331 108.003 73.5951 107.636C72.9668 107.259 72.2659 107.07 71.4926 107.07C70.7193 107.07 70.0136 107.259 69.3756 107.636C68.7473 108.003 68.2446 108.506 67.8676 109.144C67.4906 109.772 67.3021 110.473 67.3021 111.246V118.844C67.3021 119.627 67.4906 120.338 67.8676 120.976C68.2446 121.604 68.7473 122.107 69.3756 122.484C70.0136 122.851 70.7193 123.035 71.4926 123.035ZM85.43 125.5L83.4 123.47L102.265 104.62L104.295 106.664L85.43 125.5ZM99.9445 125.935C98.9875 125.935 98.1127 125.703 97.32 125.239C96.537 124.765 95.9087 124.137 95.435 123.354C94.9614 122.561 94.7245 121.682 94.7245 120.715C94.7245 119.768 94.9662 118.898 95.4495 118.105C95.9329 117.312 96.5709 116.679 97.3635 116.205C98.1562 115.732 99.0165 115.495 99.9445 115.495C100.902 115.495 101.776 115.732 102.569 116.205C103.362 116.669 103.99 117.298 104.454 118.09C104.928 118.873 105.165 119.748 105.165 120.715C105.165 121.682 104.928 122.561 104.454 123.354C103.99 124.137 103.362 124.765 102.569 125.239C101.776 125.703 100.902 125.935 99.9445 125.935ZM99.9445 123.31C100.418 123.31 100.848 123.194 101.235 122.962C101.631 122.721 101.946 122.402 102.178 122.005C102.419 121.609 102.54 121.179 102.54 120.715C102.54 120.251 102.419 119.821 102.178 119.424C101.946 119.028 101.631 118.714 101.235 118.482C100.848 118.24 100.418 118.119 99.9445 118.119C99.4805 118.119 99.0504 118.24 98.654 118.482C98.2674 118.714 97.9532 119.028 97.7115 119.424C97.4795 119.821 97.3635 120.251 97.3635 120.715C97.3635 121.179 97.4795 121.609 97.7115 122.005C97.9532 122.402 98.2674 122.721 98.654 122.962C99.0504 123.194 99.4805 123.31 99.9445 123.31ZM87.75 114.625C86.793 114.625 85.9182 114.393 85.1255 113.929C84.3329 113.455 83.6997 112.827 83.226 112.044C82.762 111.251 82.53 110.372 82.53 109.405C82.53 108.458 82.7717 107.588 83.255 106.795C83.7384 106.002 84.3764 105.369 85.169 104.895C85.9617 104.422 86.822 104.185 87.75 104.185C88.707 104.185 89.577 104.422 90.36 104.895C91.1527 105.359 91.7859 105.988 92.2595 106.78C92.7332 107.563 92.97 108.438 92.97 109.405C92.97 110.372 92.7332 111.251 92.2595 112.044C91.7859 112.827 91.1527 113.455 90.36 113.929C89.577 114.393 88.707 114.625 87.75 114.625ZM87.75 112C88.214 112 88.6442 111.884 89.0405 111.652C89.4369 111.411 89.751 111.092 89.983 110.695C90.2247 110.299 90.3455 109.869 90.3455 109.405C90.3455 108.941 90.2247 108.511 89.983 108.114C89.751 107.718 89.4369 107.404 89.0405 107.172C88.6442 106.93 88.214 106.809 87.75 106.809C87.286 106.809 86.8559 106.93 86.4595 107.172C86.0729 107.404 85.7587 107.718 85.517 108.114C85.2754 108.511 85.1545 108.941 85.1545 109.405C85.1545 109.869 85.2754 110.299 85.517 110.695C85.7587 111.092 86.0729 111.411 86.4595 111.652C86.8462 111.884 87.2764 112 87.75 112Z" fill="#444849"/>
<circle cx="52.5" cy="25.5" r="2.5" fill="#444849"/>
<circle cx="55.5" cy="23.5" r="2.5" fill="#444849"/>
<circle cx="58.5" cy="23.5" r="2.5" fill="#444849"/>
<circle cx="57.5" cy="20.5" r="2.5" fill="#444849"/>
<circle cx="62.5" cy="23.5" r="2.5" fill="#444849"/>
<circle cx="66.5" cy="22.5" r="2.5" fill="#444849"/>
<circle cx="65.5" cy="23.5" r="2.5" fill="#444849"/>
<circle cx="64.5" cy="21.5" r="2.5" fill="#444849"/>
<circle cx="69.5" cy="23.5" r="2.5" fill="#444849"/>
<circle cx="70.5" cy="20.5" r="2.5" fill="#444849"/>
<circle cx="72.5" cy="21.5" r="2.5" fill="#444849"/>
<circle cx="76.5" cy="22.5" r="2.5" fill="#444849"/>
<circle cx="75.5" cy="23.5" r="2.5" fill="#444849"/>
<circle cx="77.5" cy="23.5" r="2.5" fill="#444849"/>
<circle cx="87.5" cy="23.5" r="2.5" fill="#444849"/>
<circle cx="90.5" cy="23.5" r="2.5" fill="#444849"/>
<circle cx="85.5" cy="22.5" r="2.5" fill="#444849"/>
<circle cx="83.5" cy="23.5" r="2.5" fill="#444849"/>
<circle cx="79.5" cy="22.5" r="2.5" fill="#444849"/>
<circle cx="81.5" cy="23.5" r="2.5" fill="#444849"/>
<circle cx="72.5" cy="23.5" r="2.5" fill="#444849"/>
<circle cx="74.5" cy="21.5" r="2.5" fill="#444849"/>
<circle cx="74.5" cy="20.5" r="2.5" fill="#444849"/>
<circle cx="76.5" cy="19.5" r="2.5" fill="#444849"/>
<circle cx="73.5" cy="16.5" r="2.5" fill="#444849"/>
</svg>
