<svg width="140" height="140" viewBox="0 0 140 140" fill="none" xmlns="http://www.w3.org/2000/svg">
<rect width="61" height="33" transform="translate(28 82)" fill="white"/>
<path d="M29.6822 101.436V99.42H36.8822V101.436H29.6822ZM47.25 108V104.988H39.45V102.612L45.066 90.72H47.934L42.318 102.612H47.25V97.932H49.794V102.612H51.51V104.988H49.794V108H47.25ZM59.9229 108.36C58.7949 108.36 57.7949 108.136 56.9229 107.688C56.0589 107.232 55.3789 106.6 54.8829 105.792C54.3949 104.984 54.1509 104.048 54.1509 102.984C54.1509 101.992 54.3829 101.084 54.8469 100.26C55.3109 99.436 56.0029 98.788 56.9229 98.316L56.8749 99.18C56.1389 98.724 55.5709 98.156 55.1709 97.476C54.7789 96.788 54.5829 96.02 54.5829 95.172C54.5829 94.188 54.8109 93.336 55.2669 92.616C55.7229 91.896 56.3509 91.34 57.1509 90.948C57.9589 90.556 58.8829 90.36 59.9229 90.36C60.9629 90.36 61.8829 90.556 62.6829 90.948C63.4829 91.34 64.1109 91.896 64.5669 92.616C65.0229 93.336 65.2509 94.188 65.2509 95.172C65.2509 96.02 65.0629 96.784 64.6869 97.464C64.3109 98.144 63.7349 98.716 62.9589 99.18L62.9229 98.34C63.8349 98.788 64.5269 99.428 64.9989 100.26C65.4709 101.084 65.7069 101.992 65.7069 102.984C65.7069 104.048 65.4589 104.984 64.9629 105.792C64.4669 106.6 63.7829 107.232 62.9109 107.688C62.0389 108.136 61.0429 108.36 59.9229 108.36ZM59.9229 105.972C60.8509 105.972 61.6029 105.72 62.1789 105.216C62.7549 104.704 63.0429 103.96 63.0429 102.984C63.0429 102.008 62.7549 101.264 62.1789 100.752C61.6109 100.232 60.8589 99.972 59.9229 99.972C58.9869 99.972 58.2309 100.232 57.6549 100.752C57.0869 101.264 56.8029 102.008 56.8029 102.984C56.8029 103.96 57.0909 104.704 57.6669 105.216C58.2429 105.72 58.9949 105.972 59.9229 105.972ZM59.9229 97.572C60.7149 97.572 61.3549 97.376 61.8429 96.984C62.3389 96.584 62.5869 95.98 62.5869 95.172C62.5869 94.364 62.3389 93.76 61.8429 93.36C61.3549 92.952 60.7149 92.748 59.9229 92.748C59.1309 92.748 58.4869 92.952 57.9909 93.36C57.4949 93.76 57.2469 94.364 57.2469 95.172C57.2469 95.98 57.4949 96.584 57.9909 96.984C58.4869 97.376 59.1309 97.572 59.9229 97.572ZM70.9884 108L69.3084 106.32L84.9204 90.72L86.6004 92.412L70.9884 108ZM83.0004 108.36C82.2084 108.36 81.4844 108.168 80.8284 107.784C80.1804 107.392 79.6604 106.872 79.2684 106.224C78.8764 105.568 78.6804 104.84 78.6804 104.04C78.6804 103.256 78.8804 102.536 79.2804 101.88C79.6804 101.224 80.2084 100.7 80.8644 100.308C81.5204 99.916 82.2324 99.72 83.0004 99.72C83.7924 99.72 84.5164 99.916 85.1724 100.308C85.8284 100.692 86.3484 101.212 86.7324 101.868C87.1244 102.516 87.3204 103.24 87.3204 104.04C87.3204 104.84 87.1244 105.568 86.7324 106.224C86.3484 106.872 85.8284 107.392 85.1724 107.784C84.5164 108.168 83.7924 108.36 83.0004 108.36ZM83.0004 106.188C83.3924 106.188 83.7484 106.092 84.0684 105.9C84.3964 105.7 84.6564 105.436 84.8484 105.108C85.0484 104.78 85.1484 104.424 85.1484 104.04C85.1484 103.656 85.0484 103.3 84.8484 102.972C84.6564 102.644 84.3964 102.384 84.0684 102.192C83.7484 101.992 83.3924 101.892 83.0004 101.892C82.6164 101.892 82.2604 101.992 81.9324 102.192C81.6124 102.384 81.3524 102.644 81.1524 102.972C80.9604 103.3 80.8644 103.656 80.8644 104.04C80.8644 104.424 80.9604 104.78 81.1524 105.108C81.3524 105.436 81.6124 105.7 81.9324 105.9C82.2604 106.092 82.6164 106.188 83.0004 106.188ZM72.9084 99C72.1164 99 71.3924 98.808 70.7364 98.424C70.0804 98.032 69.5564 97.512 69.1644 96.864C68.7804 96.208 68.5884 95.48 68.5884 94.68C68.5884 93.896 68.7884 93.176 69.1884 92.52C69.5884 91.864 70.1164 91.34 70.7724 90.948C71.4284 90.556 72.1404 90.36 72.9084 90.36C73.7004 90.36 74.4204 90.556 75.0684 90.948C75.7244 91.332 76.2484 91.852 76.6404 92.508C77.0324 93.156 77.2284 93.88 77.2284 94.68C77.2284 95.48 77.0324 96.208 76.6404 96.864C76.2484 97.512 75.7244 98.032 75.0684 98.424C74.4204 98.808 73.7004 99 72.9084 99ZM72.9084 96.828C73.2924 96.828 73.6484 96.732 73.9764 96.54C74.3044 96.34 74.5644 96.076 74.7564 95.748C74.9564 95.42 75.0564 95.064 75.0564 94.68C75.0564 94.296 74.9564 93.94 74.7564 93.612C74.5644 93.284 74.3044 93.024 73.9764 92.832C73.6484 92.632 73.2924 92.532 72.9084 92.532C72.5244 92.532 72.1684 92.632 71.8404 92.832C71.5204 93.024 71.2604 93.284 71.0604 93.612C70.8604 93.94 70.7604 94.296 70.7604 94.68C70.7604 95.064 70.8604 95.42 71.0604 95.748C71.2604 96.076 71.5204 96.34 71.8404 96.54C72.1604 96.732 72.5164 96.828 72.9084 96.828Z" fill="#444849"/>
<path d="M92.4138 69.0814C92.045 68.7126 91.4461 68.7126 91.0774 69.0814C90.7086 69.4502 90.7086 70.049 91.0774 70.4178L98.2576 77.5981C98.6264 77.9668 99.2253 77.9668 99.594 77.5981C99.9628 77.2293 99.9628 76.6304 99.594 76.2616L92.4138 69.0814Z" fill="#444849"/>
<path d="M58.3186 34.9859C57.9498 34.6172 57.3509 34.6172 56.9822 34.9859C56.6134 35.3547 56.6134 35.9536 56.9822 36.3224L90.649 69.9892C91.0178 70.358 91.6167 70.358 91.9854 69.9892C92.3542 69.6204 92.3542 69.0216 91.9854 68.6528L58.3186 34.9859Z" fill="#444849"/>
<path d="M108.723 67.1301C109.092 67.4989 109.69 67.4989 110.059 67.1301C110.428 66.7614 110.428 66.1625 110.059 65.7937L102.696 58.4306C102.327 58.0619 101.728 58.0619 101.36 58.4306L80.4299 79.3604C80.0611 79.7292 80.0611 80.328 80.4299 80.6968L87.793 88.0599C88.1618 88.4287 88.7606 88.4287 89.1294 88.0599C89.4982 87.6911 89.4982 87.0922 89.1294 86.7235L82.4345 80.0286L102.027 60.4359L108.723 67.1301Z" fill="#444849"/>
<path d="M105.113 70.7388C105.482 71.1076 106.081 71.1076 106.449 70.7388C106.818 70.37 106.818 69.7711 106.449 69.4024L99.0864 62.0393C98.7176 61.6705 98.1187 61.6705 97.75 62.0393L84.0324 75.7568C83.6637 76.1256 83.6637 76.7245 84.0324 77.0932L91.3955 84.4563C91.7643 84.8251 92.3632 84.8251 92.732 84.4563C93.1007 84.0875 93.1007 83.4887 92.732 83.1199L86.0371 76.425L98.4184 64.0437L105.113 70.7388Z" fill="#444849"/>
<path d="M101.583 74.2691C101.952 74.6378 102.551 74.6378 102.92 74.2691C103.289 73.9003 103.289 73.3014 102.92 72.9326L95.5567 65.5696C95.1879 65.2008 94.5891 65.2008 94.2203 65.5696L87.5696 72.2203C87.2008 72.5891 87.2008 73.188 87.5696 73.5567L94.9327 80.9198C95.3014 81.2886 95.9003 81.2886 96.2691 80.9198C96.6378 80.551 96.6378 79.9522 96.2691 79.5834L89.5742 72.8885L94.8884 67.5743L101.583 74.2691Z" fill="#444849"/>
<path d="M57.0297 36.8516L58.8515 35.0298C59.8886 33.9927 60.4086 32.6279 60.4086 31.2631C60.4086 29.8983 59.8885 28.5334 58.8515 27.4964L57.6317 26.2766C57.2629 25.9078 56.6641 25.9078 56.2953 26.2766L48.2766 34.2953C47.9078 34.6641 47.9078 35.2629 48.2766 35.6317L49.4964 36.8515C50.5334 37.8886 51.8983 38.4086 53.2631 38.4086C54.6279 38.4086 55.9926 37.8886 57.0297 36.8516ZM57.5119 33.6933L55.6901 35.5151C55.0219 36.1833 54.1424 36.5175 53.2599 36.5175C52.3774 36.5175 51.4979 36.1833 50.8297 35.5151L50.2781 34.9635L56.9603 28.2813L57.5119 28.8329C58.1802 29.5011 58.5143 30.3806 58.5143 31.2631C58.5143 32.1456 58.1802 33.0251 57.5119 33.6933Z" fill="#444849"/>
<path d="M105.311 99.7448C105.311 100.901 107.044 100.901 107.044 99.7448C107.044 98.589 105.311 98.589 105.311 99.7448Z" fill="#444849"/>
<path d="M98.9314 91.0215C98.9314 92.1752 100.664 92.1752 100.664 91.0215C100.664 89.8657 98.9314 89.8657 98.9314 91.0215Z" fill="#444849"/>
<path d="M103.578 97.2424C103.578 98.3982 105.311 98.3982 105.311 97.2424C105.311 96.0865 103.578 96.0865 103.578 97.2424Z" fill="#444849"/>
<path d="M106.224 106.257C106.224 107.413 107.957 107.413 107.957 106.257C107.957 105.102 106.224 105.102 106.224 106.257Z" fill="#444849"/>
<path d="M104.187 109.937C104.187 111.093 105.92 111.093 105.92 109.937C105.92 108.781 104.187 108.781 104.187 109.937Z" fill="#444849"/>
<path d="M108.038 111.671C108.038 112.827 109.771 112.827 109.771 111.671C109.771 110.515 108.038 110.515 108.038 111.671Z" fill="#444849"/>
<path d="M98.7507 107.38C98.7507 108.536 100.483 108.536 100.483 107.38C100.483 106.226 98.7507 106.226 98.7507 107.38Z" fill="#444849"/>
<path d="M98.0281 98.3647C98.0281 99.5206 99.7607 99.5206 99.7607 98.3647C99.7607 97.2111 98.0281 97.2111 98.0281 98.3647Z" fill="#444849"/>
<path d="M98.8943 101.087C98.8943 102.242 100.627 102.242 100.627 101.087C100.627 99.9329 98.8943 99.9329 98.8943 101.087Z" fill="#444849"/>
<path d="M95.1897 113.191C95.1897 114.347 96.9224 114.347 96.9224 113.191C96.9224 112.037 95.1897 112.037 95.1897 113.191Z" fill="#444849"/>
<path d="M99.969 113.802C99.969 114.956 101.702 114.956 101.702 113.802C101.702 112.647 99.969 112.647 99.969 113.802Z" fill="#444849"/>
<path d="M100.627 98.1083C100.627 98.9224 101.846 98.9224 101.846 98.1083C101.846 97.2964 100.627 97.2964 100.627 98.1083Z" fill="#444849"/>
<path d="M99.1878 104.494C99.1878 105.306 100.407 105.306 100.407 104.494C100.407 103.68 99.1878 103.68 99.1878 104.494Z" fill="#444849"/>
<path d="M103.835 106.514C103.835 107.328 105.054 107.328 105.054 106.514C105.054 105.702 103.835 105.702 103.835 106.514Z" fill="#444849"/>
<path d="M111.662 108.856C111.662 109.67 112.883 109.67 112.883 108.856C112.883 108.044 111.662 108.044 111.662 108.856Z" fill="#444849"/>
<path d="M99.6165 110.632C99.6165 111.444 100.835 111.444 100.835 110.632C100.835 109.818 99.6165 109.818 99.6165 110.632Z" fill="#444849"/>
<path d="M95.4563 107.852C95.4563 108.664 96.6753 108.664 96.6753 107.852C96.6753 107.038 95.4563 107.038 95.4563 107.852Z" fill="#444849"/>
<path d="M103.067 103.883C103.067 104.697 104.286 104.697 104.286 103.883C104.286 103.071 103.067 103.071 103.067 103.883Z" fill="#444849"/>
<path d="M100.483 95.051C100.483 95.8629 101.704 95.8629 101.704 95.051C101.704 94.2369 100.483 94.2369 100.483 95.051Z" fill="#444849"/>
<path d="M96.6653 102.665C96.6653 103.477 97.8843 103.477 97.8843 102.665C97.8843 101.851 96.6653 101.851 96.6653 102.665Z" fill="#444849"/>
<path d="M87.3675 113.801C87.3675 114.615 88.5864 114.615 88.5864 113.801C88.5864 112.989 87.3675 112.989 87.3675 113.801Z" fill="#444849"/>
<path d="M96.6751 92.4973C96.6751 93.3113 97.894 93.3113 97.894 92.4973C97.894 91.6832 96.6751 91.6832 96.6751 92.4973Z" fill="#444849"/>
<path d="M96.6751 88.8614C96.6751 89.6754 97.894 89.6754 97.894 88.8614C97.894 88.0495 96.6751 88.0495 96.6751 88.8614Z" fill="#444849"/>
<path d="M95.2589 96.2706C95.2589 97.0825 96.48 97.0825 96.48 96.2706C96.48 95.4565 95.2589 95.4565 95.2589 96.2706Z" fill="#444849"/>
<path d="M102.36 111.413C102.36 112.225 103.579 112.225 103.579 111.413C103.579 110.601 102.36 110.601 102.36 111.413Z" fill="#444849"/>
<path d="M84.8712 113.802C84.8712 114.614 86.0923 114.614 86.0923 113.802C86.0923 112.988 84.8712 112.988 84.8712 113.802Z" fill="#444849"/>
<path d="M89.0472 111.566C89.0472 112.579 90.5684 112.579 90.5684 111.566C90.5684 110.55 89.0472 110.55 89.0472 111.566Z" fill="#444849"/>
<path d="M91.639 114.059C91.639 114.871 92.8579 114.871 92.8579 114.059C92.8579 113.247 91.639 113.247 91.639 114.059Z" fill="#444849"/>
<path d="M93.0647 111.565C93.0647 112.379 94.2837 112.379 94.2837 111.565C94.2837 110.751 93.0647 110.751 93.0647 111.565Z" fill="#444849"/>
<path d="M85.4821 111.47C85.4821 112.611 87.1943 112.611 87.1943 111.47C87.1943 110.327 85.4821 110.327 85.4821 111.47Z" fill="#444849"/>
<path d="M82.0001 113.447C82.0001 114.261 83.2212 114.261 83.2212 113.447C83.2212 112.633 82.0001 112.633 82.0001 113.447Z" fill="#444849"/>
<path d="M108.295 104.641C108.295 106.011 110.355 106.011 110.355 104.641C110.355 103.267 108.295 103.267 108.295 104.641Z" fill="#444849"/>
<path d="M95.2589 86.6105C95.2589 87.4224 96.48 87.4224 96.48 86.6105C96.48 85.7965 95.2589 85.7965 95.2589 86.6105Z" fill="#444849"/>
<path d="M95.4563 105.103C95.4563 105.915 96.6753 105.915 96.6753 105.103C96.6753 104.289 95.4563 104.289 95.4563 105.103Z" fill="#444849"/>
<path d="M105.311 113.191C105.311 114.005 106.532 114.005 106.532 113.191C106.532 112.379 105.311 112.379 105.311 113.191Z" fill="#444849"/>
<path d="M105.613 103C105.613 103.814 106.834 103.814 106.834 103C106.834 102.186 105.613 102.186 105.613 103Z" fill="#444849"/>
<path d="M101.846 108.856C101.846 109.67 103.067 109.67 103.067 108.856C103.067 108.044 101.846 108.044 101.846 108.856Z" fill="#444849"/>
<path d="M107.685 108.856C107.685 109.67 108.904 109.67 108.904 108.856C108.904 108.044 107.685 108.044 107.685 108.856Z" fill="#444849"/>
<path d="M98.7508 95.051C98.7508 95.8629 99.9697 95.8629 99.9697 95.051C99.9697 94.2369 98.7508 94.2369 98.7508 95.051Z" fill="#444849"/>
<path d="M96.056 110.632C96.056 111.444 97.2749 111.444 97.2749 110.632C97.2749 109.818 96.056 109.818 96.056 110.632Z" fill="#444849"/>
<path d="M101.704 101.537C101.704 102.351 102.925 102.351 102.925 101.537C102.925 100.725 101.704 100.725 101.704 101.537Z" fill="#444849"/>
</svg>
