<svg width="24" height="24" viewBox="0 0 24 24" fill="none" xmlns="http://www.w3.org/2000/svg">
<path d="M16.1097 4.30558H8.1958V18.1789H18.3048V6.53052" stroke="black" stroke-width="0.5" stroke-linejoin="round"/>
<path d="M9.28467 18.3591V19.5182H19.6784V7.32532H18.2909" stroke="black" stroke-width="0.5" stroke-linejoin="round"/>
<line x1="10.1372" y1="7.61987" x2="16.3627" y2="7.61987" stroke="black" stroke-width="0.5" stroke-linecap="round"/>
<line x1="10.1372" y1="10.1001" x2="16.3627" y2="10.1001" stroke="black" stroke-width="0.5" stroke-linecap="round"/>
<line x1="10.1372" y1="12.8413" x2="16.3627" y2="12.8413" stroke="black" stroke-width="0.5" stroke-linecap="round"/>
<line x1="10.938" y1="15.7133" x2="14.773" y2="15.7133" stroke="black" stroke-width="0.5" stroke-linecap="round"/>
<path d="M16.01 6.6077L16.0098 4.30554L18.3043 6.60757L16.01 6.6077Z" stroke="black" stroke-width="0.5" stroke-linejoin="round"/>
<path d="M4.64564 15.8089L4.64564 15.8089L4.64375 15.8087C4.61519 15.8058 4.59571 15.7936 4.58542 15.7821C4.57715 15.7728 4.56978 15.759 4.57226 15.7332L4.5734 15.7213V15.7093V14.7344C4.5734 14.6871 4.61716 14.6395 4.6621 14.635L4.6621 14.635L4.664 14.6348L5.76943 14.514C5.8593 14.5084 5.9257 14.4646 5.96284 14.4329C6.00542 14.3965 6.03808 14.3523 6.06027 14.3087L6.06436 14.3007L6.06786 14.2924C6.1187 14.172 6.17026 14.0521 6.2222 13.9314C6.29215 13.7776 6.21308 13.6364 6.20042 13.6138C6.19973 13.6125 6.19923 13.6117 6.19897 13.6111L6.18669 13.587L6.16953 13.5661L5.45563 12.6959L5.45572 12.6958L5.45066 12.69C5.4358 12.673 5.42826 12.651 5.42956 12.6259C5.43092 12.5999 5.44158 12.577 5.45608 12.5621L6.15081 11.8843L6.15083 11.8844L6.15351 11.8817C6.16821 11.8669 6.19112 11.856 6.21727 11.8547C6.24219 11.8534 6.26436 11.861 6.28161 11.876L6.28154 11.8761L6.28749 11.881L7.13331 12.5748C7.19371 12.6453 7.27559 12.6722 7.33434 12.6788C7.4061 12.6869 7.47681 12.6715 7.53457 12.642L7.53468 12.6422L7.54427 12.6368C7.65181 12.5759 7.75521 12.5319 7.85532 12.5033L7.8787 12.4967L7.90036 12.4856C7.94389 12.4635 7.98814 12.4308 8.02453 12.3882C8.05628 12.3511 8.10007 12.2847 8.10559 12.1948L8.22639 11.0894L8.2264 11.0894L8.22659 11.0875C8.23116 11.0425 8.27873 10.9988 8.32598 10.9988L9.26474 10.9995H9.26492C9.31218 10.9995 9.35975 11.0432 9.36431 11.0882L9.3643 11.0882L9.36451 11.0901L9.48531 12.1955C9.49083 12.2853 9.53462 12.3518 9.56637 12.3889C9.60276 12.4315 9.64701 12.4641 9.69054 12.4863L9.69856 12.4904L9.70685 12.4939C9.82728 12.5448 9.94715 12.5963 10.0679 12.6483C10.2217 12.7182 10.3629 12.6391 10.3855 12.6265C10.3867 12.6258 10.3876 12.6253 10.3881 12.625L10.4122 12.6127L10.4331 12.5956L11.3034 11.8817L11.3035 11.8818L11.3093 11.8767C11.3263 11.8619 11.3483 11.8543 11.3734 11.8556C11.3998 11.857 11.423 11.868 11.4379 11.8828L12.1164 12.5614L12.1169 12.5619C12.1317 12.5766 12.1426 12.5995 12.1439 12.6256C12.1452 12.6506 12.1376 12.6727 12.1226 12.69L12.1225 12.6899L12.1176 12.6959L11.4237 13.5417C11.3533 13.6021 11.3264 13.684 11.3198 13.7427C11.3117 13.8145 11.3271 13.8852 11.3566 13.9429L11.3564 13.943L11.3618 13.9526C11.4227 14.0602 11.4667 14.1636 11.4952 14.2637L11.5019 14.2871L11.5129 14.3087C11.5351 14.3523 11.5678 14.3965 11.6104 14.4329C11.6475 14.4646 11.7139 14.5084 11.8038 14.514L12.9092 14.6348L12.9092 14.6348L12.9111 14.635C12.9561 14.6395 12.9998 14.6871 12.9998 14.7344V15.7093C12.9998 15.7566 12.9561 15.8042 12.9111 15.8087L12.9111 15.8087L12.9092 15.8089L11.8038 15.9297C11.7139 15.9352 11.6475 15.979 11.6104 16.0108C11.5678 16.0472 11.5351 16.0914 11.5129 16.135L11.5089 16.143L11.5054 16.1513C11.4545 16.2717 11.403 16.3916 11.351 16.5123C11.2811 16.6661 11.3601 16.8073 11.3728 16.8299C11.3735 16.8312 11.374 16.832 11.3742 16.8325L11.3865 16.8566L11.4037 16.8776L12.1176 17.7478L12.1175 17.7479L12.1226 17.7537C12.1374 17.7707 12.145 17.7927 12.1437 17.8178C12.1423 17.8442 12.1313 17.8674 12.1164 17.8823L11.4379 18.5608L11.4374 18.5613C11.4227 18.5761 11.3998 18.587 11.3736 18.5883C11.3487 18.5896 11.3265 18.582 11.3093 18.567L11.3094 18.5669L11.3034 18.562L10.4576 17.8682C10.3972 17.7977 10.3153 17.7708 10.2566 17.7642C10.1848 17.7562 10.1141 17.7715 10.0563 17.801L10.0562 17.8008L10.0466 17.8062C9.93909 17.8671 9.83569 17.9111 9.73558 17.9397L9.7122 17.9463L9.69054 17.9574C9.64701 17.9796 9.60276 18.0122 9.56637 18.0548C9.53462 18.0919 9.49083 18.1583 9.48531 18.2482L9.36451 19.3536L9.3645 19.3536L9.36431 19.3555C9.35974 19.4005 9.31217 19.4442 9.26492 19.4442H8.28993C8.24268 19.4442 8.19511 19.4005 8.19055 19.3555L8.19035 19.3536L8.06954 18.2482C8.06403 18.1583 8.02023 18.0919 7.98849 18.0548C7.95209 18.0122 7.90784 17.9796 7.86432 17.9574L7.8563 17.9533L7.84801 17.9498C7.72758 17.8989 7.6077 17.8474 7.48694 17.7954C7.33318 17.7255 7.19198 17.8046 7.16936 17.8172C7.16812 17.8179 7.16724 17.8184 7.16673 17.8187L7.14263 17.8309L7.12172 17.8481L6.25144 18.562L6.25137 18.5619L6.24557 18.567C6.22855 18.5818 6.20656 18.5894 6.18147 18.5881C6.15507 18.5867 6.13183 18.5757 6.11697 18.5608L5.43843 17.8823L5.43794 17.8818C5.42315 17.8671 5.41229 17.8442 5.41096 17.818C5.40969 17.7931 5.41723 17.771 5.43229 17.7537L5.43238 17.7538L5.43726 17.7478L6.13111 16.902C6.20157 16.8416 6.22843 16.7597 6.23504 16.701C6.24311 16.6292 6.22773 16.5585 6.19829 16.5008L6.1985 16.5006L6.19307 16.4911C6.13213 16.3835 6.08813 16.2801 6.05961 16.18L6.05295 16.1566L6.04191 16.135C6.01972 16.0914 5.98706 16.0472 5.94448 16.0108C5.90734 15.979 5.84093 15.9352 5.75106 15.9297L4.64564 15.8089ZM10.5777 15.2218C10.5777 14.2482 9.78722 13.4577 8.81355 13.4577C7.83988 13.4577 7.04941 14.2482 7.04941 15.2218C7.04941 16.1955 7.83988 16.986 8.81355 16.986C9.78722 16.986 10.5777 16.1955 10.5777 15.2218Z" fill="#CBC75F" stroke="black" stroke-width="0.5"/>
</svg>
