<svg width="24" height="24" viewBox="0 0 24 24" fill="none" xmlns="http://www.w3.org/2000/svg">
<rect x="6.0249" y="4.55396" width="11.2764" height="14.2295" stroke="black" stroke-width="0.5" stroke-linejoin="round"/>
<rect x="7.89844" y="6.10474" width="7.67509" height="3.8433" stroke="black" stroke-width="0.5" stroke-linejoin="round"/>
<line x1="7.73389" y1="12.1519" x2="12.4411" y2="12.1519" stroke="black" stroke-width="0.5" stroke-linecap="round"/>
<line x1="7.73389" y1="14.1365" x2="12.4411" y2="14.1365" stroke="black" stroke-width="0.5" stroke-linecap="round"/>
<line x1="7.73389" y1="16.3976" x2="13.9004" y2="16.3976" stroke="black" stroke-width="0.5" stroke-linecap="round"/>
<mask id="path-6-inside-1_2374_4342" fill="white">
<path fill-rule="evenodd" clip-rule="evenodd" d="M17.4361 15.3097C18.4307 14.5265 18.7253 13.1114 18.0738 11.9828C17.3588 10.7445 15.7754 10.3203 14.5371 11.0352C13.2988 11.7501 12.8745 13.3336 13.5894 14.5719C14.241 15.7005 15.614 16.1529 16.7896 15.683L18.2343 18.1853C18.3374 18.3638 18.5657 18.4249 18.7442 18.3219C18.9227 18.2188 18.9839 17.9905 18.8808 17.812L17.4361 15.3097Z"/>
</mask>
<path fill-rule="evenodd" clip-rule="evenodd" d="M17.4361 15.3097C18.4307 14.5265 18.7253 13.1114 18.0738 11.9828C17.3588 10.7445 15.7754 10.3203 14.5371 11.0352C13.2988 11.7501 12.8745 13.3336 13.5894 14.5719C14.241 15.7005 15.614 16.1529 16.7896 15.683L18.2343 18.1853C18.3374 18.3638 18.5657 18.4249 18.7442 18.3219C18.9227 18.2188 18.9839 17.9905 18.8808 17.812L17.4361 15.3097Z" fill="#386431"/>
<path d="M17.4361 15.3097L17.1268 14.9169L16.7866 15.1848L17.0031 15.5597L17.4361 15.3097ZM16.7896 15.683L17.2227 15.433L17.0062 15.058L16.6041 15.2187L16.7896 15.683ZM18.8808 17.812L18.4478 18.062L18.8808 17.812ZM17.6408 12.2328C18.1663 13.143 17.9289 14.2852 17.1268 14.9169L17.7454 15.7025C18.9325 14.7678 19.2844 13.0797 18.5068 11.7328L17.6408 12.2328ZM14.7871 11.4682C15.7863 10.8913 17.0639 11.2337 17.6408 12.2328L18.5068 11.7328C17.6538 10.2554 15.7645 9.74917 14.2871 10.6022L14.7871 11.4682ZM14.0224 14.3219C13.4456 13.3227 13.7879 12.0451 14.7871 11.4682L14.2871 10.6022C12.8096 11.4552 12.3034 13.3444 13.1564 14.8219L14.0224 14.3219ZM16.6041 15.2187C15.6559 15.5977 14.548 15.2321 14.0224 14.3219L13.1564 14.8219C13.9341 16.1688 15.5721 16.7081 16.9752 16.1473L16.6041 15.2187ZM18.6674 17.9353L17.2227 15.433L16.3566 15.933L17.8013 18.4353L18.6674 17.9353ZM18.4942 17.8889C18.5548 17.8539 18.6323 17.8746 18.6674 17.9353L17.8013 18.4353C18.0425 18.8529 18.5765 18.996 18.9942 18.7549L18.4942 17.8889ZM18.4478 18.062C18.4128 18.0014 18.4335 17.9239 18.4942 17.8889L18.9942 18.7549C19.4118 18.5137 19.5549 17.9797 19.3138 17.562L18.4478 18.062ZM17.0031 15.5597L18.4478 18.062L19.3138 17.562L17.8691 15.0597L17.0031 15.5597Z" fill="black" mask="url(#path-6-inside-1_2374_4342)"/>
<path d="M9.69821 8.18848L8.61133 9.74073H10.6515L9.69821 8.18848Z" fill="#386431"/>
<path d="M12.1635 7.49951L10.5942 9.74074H13.54L12.1635 7.49951Z" fill="#386431"/>
<circle cx="14.1505" cy="7.63211" r="0.448652" transform="rotate(-30 14.1505 7.63211)" fill="#386431"/>
</svg>
