<svg width="24" height="24" viewBox="0 0 24 24" fill="none" xmlns="http://www.w3.org/2000/svg">
<rect x="6.16016" y="4.97803" width="7.61523" height="13.1816" fill="white" stroke="black" stroke-width="0.5" stroke-linejoin="round"/>
<rect x="11.3916" y="10.1315" width="6.50098" height="8.07783" fill="white" stroke="black" stroke-width="0.5" stroke-linejoin="round"/>
<path d="M21.087 19.022L2.91309 19.022L4.27866 17.7352H18.3236C19.3895 17.7352 20.401 18.2062 21.087 19.022Z" fill="#386431"/>
<rect x="7.63818" y="6.85767" width="1.03955" height="2.7334" fill="black"/>
<rect x="7.63818" y="10.5614" width="1.03955" height="2.7334" fill="black"/>
<rect x="12.7358" y="11.5688" width="1.03955" height="1.72595" fill="black"/>
<rect x="15.521" y="11.5688" width="1.03955" height="1.72595" fill="black"/>
<rect x="12.7358" y="14.1704" width="1.03955" height="1.72595" fill="black"/>
<rect x="15.521" y="14.1704" width="1.03955" height="1.72595" fill="black"/>
<rect x="11.3687" y="6.85767" width="1.03955" height="2.7334" fill="black"/>
<path d="M3.58422 16.3916C3.90849 16.667 4.00604 17.9023 3.87093 18.2561H19.9429V16.6786C19.9429 16.6786 19.8714 17.4116 19.3508 17.5391C18.9294 17.6423 18.9294 16.2196 18.9294 16.2196C18.9294 16.2196 18.4872 17.7088 18.1785 17.4172C17.7939 17.0539 17.8869 16.3916 17.8869 16.3916C17.8869 16.3916 16.756 17.8926 16.1784 17.4172C15.7749 17.0852 16.1784 16.2196 16.1784 16.2196C15.7826 16.6212 14.9853 17.3383 14.9622 16.9941C14.939 16.6499 14.5005 15.8732 14.3268 15.7584C14.3268 15.7584 14.538 17.177 14.1513 17.1661C13.7675 17.1553 13.9197 16.2196 13.9197 16.2196C13.9197 16.2196 13.3962 17.5773 13.1066 17.1661C12.817 16.755 12.2517 15.9901 12.298 16.2196C12.3444 16.4492 12.0471 16.9463 11.8926 17.1661C11.7382 17.386 11.3135 16.3916 11.3135 16.3916C11.3135 16.3916 10.9358 17.2418 10.5026 17.1661C10.084 17.093 9.63707 15.9954 9.63707 15.9954C9.63707 15.9954 9.17099 17.7902 8.89542 17.4172C8.61985 17.0443 8.07016 16.5351 8.07016 16.5351C8.07016 16.5351 7.71282 17.2515 7.3462 17.1661C6.96328 17.077 6.7901 16.2196 6.7901 16.2196C6.7901 16.2196 6.55086 16.9941 6.0963 17.1661C5.3309 17.4558 5.18718 15.9954 5.18718 15.9954C5.18718 15.9954 4.95347 18.0949 4.68478 17.4172C4.41608 16.7396 3.25996 16.1163 3.58422 16.3916Z" fill="#386431"/>
</svg>
