<svg width="24" height="24" viewBox="0 0 24 24" fill="none" xmlns="http://www.w3.org/2000/svg">
<path d="M19.1229 10.0914C20.177 14.0255 17.8424 18.0692 13.9083 19.1233C9.97428 20.1774 5.93056 17.8428 4.87644 13.9088C3.82231 9.9747 6.15695 5.93098 10.091 4.87686C12.7502 4.16434 15.4594 5.0001 17.2617 6.83155M17.2617 6.83155L15.9308 6.86802M17.2617 6.83155L17.2204 5.63281" stroke="black" stroke-width="0.5" stroke-linecap="round" stroke-linejoin="round"/>
<path d="M9.71926 9.2903C9.71926 10.5383 10.7403 11.5503 12.0003 11.5503C13.2602 11.5503 14.2812 10.5383 14.2812 9.2903C14.2812 8.04232 13.2602 7.03027 12.0003 7.03027C10.7403 7.03027 9.71926 8.04232 9.71926 9.2903Z" fill="#CBC75F"/>
<path d="M8.40493 15.5233V15.7517C8.40493 15.917 8.54017 16.0523 8.70547 16.0523H15.2932C15.4585 16.0523 15.5938 15.917 15.5938 15.7517V15.5233C15.5938 13.5428 13.9829 11.9319 12.0023 11.9319H11.9963C10.0158 11.9319 8.40493 13.5428 8.40493 15.5233Z" fill="#CBC75F"/>
<mask id="path-4-inside-1_2379_4106" fill="white">
<path fill-rule="evenodd" clip-rule="evenodd" d="M17.1416 16.0751C18.1363 15.2919 18.4309 13.8767 17.7793 12.7482C17.0644 11.5099 15.481 11.0856 14.2427 11.8006C13.0043 12.5155 12.5801 14.0989 13.295 15.3373C13.9466 16.4658 15.3196 16.9183 16.4952 16.4484L17.9399 18.9506C18.043 19.1292 18.2712 19.1903 18.4497 19.0873C18.6283 18.9842 18.6894 18.7559 18.5864 18.5774L17.1416 16.0751Z"/>
</mask>
<path fill-rule="evenodd" clip-rule="evenodd" d="M17.1416 16.0751C18.1363 15.2919 18.4309 13.8767 17.7793 12.7482C17.0644 11.5099 15.481 11.0856 14.2427 11.8006C13.0043 12.5155 12.5801 14.0989 13.295 15.3373C13.9466 16.4658 15.3196 16.9183 16.4952 16.4484L17.9399 18.9506C18.043 19.1292 18.2712 19.1903 18.4497 19.0873C18.6283 18.9842 18.6894 18.7559 18.5864 18.5774L17.1416 16.0751Z" fill="#386431"/>
<path d="M17.1416 16.0751L16.8323 15.6823L16.4921 15.9501L16.7086 16.3251L17.1416 16.0751ZM16.4952 16.4484L16.9282 16.1984L16.7117 15.8234L16.3096 15.9841L16.4952 16.4484ZM18.5864 18.5774L18.1533 18.8274L18.5864 18.5774ZM17.3463 12.9982C17.8718 13.9084 17.6345 15.0506 16.8323 15.6823L17.451 16.4679C18.6381 15.5332 18.9899 13.8451 18.2123 12.4982L17.3463 12.9982ZM14.4927 12.2336C15.4918 11.6567 16.7695 11.9991 17.3463 12.9982L18.2123 12.4982C17.3593 11.0208 15.4701 10.5146 13.9927 11.3676L14.4927 12.2336ZM13.728 15.0873C13.1511 14.0881 13.4935 12.8105 14.4927 12.2336L13.9927 11.3676C12.5152 12.2206 12.009 14.1098 12.862 15.5873L13.728 15.0873ZM16.3096 15.9841C15.3615 16.3631 14.2536 15.9975 13.728 15.0873L12.862 15.5873C13.6396 16.9342 15.2777 17.4735 16.6808 16.9126L16.3096 15.9841ZM18.3729 18.7006L16.9282 16.1984L16.0622 16.6984L17.5069 19.2006L18.3729 18.7006ZM18.1997 18.6542C18.2604 18.6192 18.3379 18.64 18.3729 18.7006L17.5069 19.2006C17.748 19.6183 18.2821 19.7614 18.6997 19.5203L18.1997 18.6542ZM18.1533 18.8274C18.1183 18.7668 18.1391 18.6892 18.1997 18.6542L18.6997 19.5203C19.1174 19.2791 19.2605 18.7451 19.0194 18.3274L18.1533 18.8274ZM16.7086 16.3251L18.1533 18.8274L19.0194 18.3274L17.5747 15.8251L16.7086 16.3251Z" fill="black" mask="url(#path-4-inside-1_2379_4106)"/>
</svg>
