<svg width="25" height="24" viewBox="0 0 25 24" fill="none" xmlns="http://www.w3.org/2000/svg">
<path d="M15.7542 4.91553H6.52832C5.97604 4.91553 5.52832 5.36324 5.52832 5.91553V18.0845C5.52832 18.6368 5.97604 19.0845 6.52832 19.0845H17.3796" stroke="black" stroke-width="0.6"/>
<path d="M18.739 9.55298V17.5574C18.739 18.4007 18.0554 19.0844 17.2121 19.0844V19.0844C16.3687 19.0844 15.6851 18.4008 15.6851 17.5574L15.6851 4.9165" stroke="black" stroke-width="0.6" stroke-linecap="round" stroke-linejoin="round"/>
<rect x="7.10693" y="6.63965" width="7.12762" height="1.73024" fill="#CBC75F"/>
<rect x="7.10693" y="15.5688" width="7.12762" height="1.73024" fill="#CBC75F"/>
<rect x="7.10693" y="9.52246" width="3.31576" height="3.39218" fill="#CBC75F"/>
<path d="M11.4541 9.82642L12.7368 9.82642L14.0195 9.82642" stroke="black" stroke-width="0.6" stroke-linecap="round" stroke-linejoin="round"/>
<path d="M11.4541 11.7152L12.7368 11.7152L14.0195 11.7152" stroke="black" stroke-width="0.6" stroke-linecap="round" stroke-linejoin="round"/>
<path d="M17.2119 17.6301L17.2119 15.3107L17.2119 9.52246" stroke="black" stroke-width="0.6" stroke-linecap="round" stroke-linejoin="round"/>
<path d="M7.35693 14.1119L10.6881 14.1119L14.0193 14.1119" stroke="black" stroke-width="0.6" stroke-linecap="round" stroke-linejoin="round"/>
</svg>
