<svg width="24" height="24" viewBox="0 0 24 24" fill="none" xmlns="http://www.w3.org/2000/svg">
<path d="M15.4386 19.4532H18.4241C18.5165 19.4532 18.5913 19.3783 18.5913 19.286L18.5913 18.4749C18.5913 18.4306 18.5738 18.3881 18.5424 18.3567C18.511 18.3253 18.4685 18.3077 18.4241 18.3077H17.5032L17.5036 8.72152L17.5041 8.72014C17.5041 8.45225 17.7221 8.23424 17.9895 8.2347C18.1124 8.2347 18.2283 8.28042 18.3189 8.36356C18.3212 8.36587 18.3244 8.36818 18.3267 8.37049C18.5119 8.54277 18.8034 8.53862 18.9835 8.35849C19.0736 8.26842 19.1258 8.15064 19.1221 8.02225L19.1221 5.978C19.1221 5.39233 18.8944 4.84225 18.4805 4.42841C18.0667 4.01457 17.5166 3.78687 16.9309 3.78687C15.7227 3.78687 14.7398 4.76975 14.7398 5.97797L14.7398 8.02222C14.7375 8.14832 14.7883 8.2684 14.8779 8.35801C14.9675 8.44761 15.0862 8.49704 15.2128 8.49703C15.3333 8.49749 15.4465 8.45269 15.5342 8.3714C15.5375 8.36909 15.5402 8.36632 15.5435 8.36401C15.6335 8.28041 15.7509 8.23515 15.8733 8.23561C16.1384 8.23561 16.3545 8.449 16.3591 8.71319L16.3587 18.3077L15.4386 18.3077C15.3458 18.3081 15.2714 18.3825 15.2714 18.4749L15.2714 19.2859C15.2714 19.3783 15.3462 19.4532 15.4386 19.4532Z" fill="#386431" stroke="black" stroke-width="0.5"/>
<path d="M10.4662 4.06714L8.28837 4.06714C8.02653 4.06714 7.81379 4.27987 7.81379 4.54172C7.81379 4.80356 8.02653 5.0163 8.28837 5.0163L8.90269 5.0163L8.90268 14.4033C8.27915 14.5929 7.8159 15.1384 7.74754 15.8051H5.35251C5.09066 15.8051 4.87793 16.0179 4.87793 16.2797L4.87793 18.9785C4.87793 19.2404 5.09066 19.4531 5.35251 19.4531C5.48385 19.4527 5.60218 19.3998 5.68819 19.3138C5.7742 19.2278 5.82709 19.1094 5.8275 18.9781L5.8275 18.3848H6.48796L6.48796 18.9781C6.48796 19.24 6.70069 19.4527 6.96254 19.4527C7.09345 19.4527 7.21221 19.3994 7.29822 19.3134C7.38424 19.2274 7.43711 19.109 7.43752 18.9777L7.43752 18.3844L8.09798 18.3844V18.9777C8.09798 19.2395 8.31072 19.4523 8.57256 19.4523C8.70348 19.4523 8.82223 19.399 8.90824 19.313C8.99426 19.227 9.04714 19.1086 9.04755 18.9773L9.04755 18.384H9.70801L9.70801 18.9773C9.70801 19.2391 9.92074 19.4519 10.1826 19.4519C10.3135 19.4519 10.4323 19.3986 10.5183 19.3126C10.6043 19.2266 10.6572 19.1082 10.6576 18.9769V18.3836L11.318 18.3836V18.9769C11.318 19.2387 11.5308 19.4515 11.7926 19.4515C11.9235 19.4515 12.0423 19.3982 12.1283 19.3122C12.2143 19.2261 12.2672 19.1078 12.2676 18.9765V18.3832H12.9281L12.9281 18.9765C12.9281 19.2383 13.1408 19.4511 13.4026 19.4511C13.5331 19.4532 13.6519 19.3999 13.7379 19.3138C13.8239 19.2278 13.8768 19.1095 13.8772 18.9782L13.8768 16.2797C13.8768 16.0178 13.6641 15.8051 13.4022 15.8051H11.0072C10.9388 15.1383 10.4755 14.5928 9.85204 14.4032L9.85247 5.01669L10.4659 5.01669C10.4659 5.01669 10.716 4.96381 10.802 4.8778C10.8881 4.79179 10.9409 4.67345 10.9414 4.54212C10.9409 4.27985 10.728 4.06714 10.4662 4.06714Z" stroke="black" stroke-width="0.5"/>
</svg>
