<svg width="24" height="24" viewBox="0 0 24 24" fill="none" xmlns="http://www.w3.org/2000/svg">
<path fill-rule="evenodd" clip-rule="evenodd" d="M11.2786 4.02075C11.2314 4.02075 11.1813 4.03062 11.1376 4.04894C11.0939 4.06727 11.058 4.09476 11.0249 4.12788C10.9917 4.16101 10.9642 4.20259 10.9459 4.24629C10.9276 4.28999 10.9177 4.3344 10.9177 4.38162V9.7044C10.1784 10.1188 9.67725 10.9096 9.67725 11.8133C9.67725 12.5759 10.0304 13.2589 10.585 13.7023L9.74491 15.157C9.72024 15.1979 9.70614 15.2451 9.6998 15.2923C9.69346 15.3396 9.69346 15.3875 9.70544 15.4333C9.71742 15.4791 9.73856 15.5193 9.76746 15.5573C9.79636 15.5954 9.83372 15.6292 9.87459 15.6532C9.91618 15.6772 9.9627 15.692 10.0099 15.6983C10.0571 15.7046 10.1051 15.7004 10.1509 15.687C10.1967 15.6743 10.2432 15.6546 10.2806 15.625C10.3179 15.5954 10.3475 15.5595 10.3708 15.5179L11.2109 14.0631C11.4844 14.171 11.7797 14.2323 12.0905 14.2323C13.4219 14.2323 14.5094 13.1448 14.5094 11.8134C14.5094 10.9098 14.0083 10.119 13.2689 9.70449V4.38171C13.2689 4.33449 13.2591 4.29008 13.2407 4.24638C13.2224 4.20268 13.1949 4.1611 13.1618 4.12797C13.1287 4.09485 13.0927 4.06736 13.049 4.04903C13.0053 4.03071 12.9553 4.02084 12.9081 4.02084L11.2786 4.02075Z" fill="#CBC75F"/>
<path d="M10.1846 5.29535C9.50263 5.48549 8.23053 6.23396 7.62785 7.24138C6.52522 9.08445 6.89903 10.4294 6.79007 11.3356L5.83643 15.3876H7.62785L7.95536 17.4004L9.8887 16.9767L10.1846 19.5457L16.7216 17.8242L16.2979 14.5931C17.0836 14.0634 18.5384 12.289 18.0723 9.42873C17.6062 6.56844 15.3179 5.359 14.2321 5.11182" stroke="black" stroke-width="0.6" stroke-linecap="round" stroke-linejoin="round"/>
</svg>
