<svg width="25" height="24" viewBox="0 0 25 24" fill="none" xmlns="http://www.w3.org/2000/svg">
<path d="M6.51221 5.93103C6.51221 5.37875 6.95992 4.93103 7.51221 4.93103H16.7546C17.3069 4.93103 17.7546 5.37875 17.7546 5.93103V18.4292H6.51221V5.93103Z" fill="#386431"/>
<path d="M7.47709 17.7896H17.1998C17.4438 17.7896 17.5944 18.0558 17.4687 18.2649C17.4092 18.3639 17.4092 18.4881 17.4682 18.5873C17.5941 18.7991 17.4423 19.0689 17.196 19.0689H7.47709C7.1238 19.0689 6.8374 18.7825 6.8374 18.4292C6.8374 18.076 7.1238 17.7896 7.47709 17.7896Z" fill="white" stroke="black" stroke-width="0.6" stroke-linecap="round"/>
<circle cx="12.296" cy="11.4259" r="3.21721" fill="white" stroke="black" stroke-width="0.6"/>
<path d="M12.2959 9.57129V11.8622M12.2959 13.4115V12.9456" stroke="black" stroke-width="0.6" stroke-linecap="round"/>
</svg>
