<svg width="24" height="24" viewBox="0 0 24 24" fill="none" xmlns="http://www.w3.org/2000/svg">
<path d="M8.93666 4.91309C7.8666 4.91309 6.99561 5.80674 6.99561 6.9044C6.99561 8.00266 7.86603 8.89571 8.93666 8.89571C10.0067 8.89571 10.8777 8.00205 10.8777 6.9044C10.8777 5.80674 10.0067 4.91309 8.93666 4.91309Z" fill="#CBC75F"/>
<path d="M8.93765 9.29248C7.21334 9.29248 5.81152 10.6943 5.81152 12.4175V13.7563H6.83181L7.65247 13.7569L11.0543 13.7568C11.0543 12.9142 11.2967 12.1353 11.9493 11.5819C11.5788 10.2448 10.34 9.29248 8.93765 9.29248Z" fill="#CBC75F"/>
<path d="M12.8535 7.92634C12.8535 6.82591 13.7343 5.93677 14.8089 5.93677C15.8829 5.93677 16.7643 6.82596 16.7643 7.92634C16.7643 9.02677 15.8835 9.91592 14.8089 9.91592C13.7343 9.91592 12.8535 9.02677 12.8535 7.92634Z" fill="#386431" stroke="black" stroke-width="0.5"/>
<path d="M11.6792 14.0013C11.6792 12.2758 13.083 10.8719 14.8092 10.8719C16.5347 10.8719 17.9385 12.2758 17.9385 14.0013V15.1687H17.0355H16.2149H13.4023H12.5817H11.6792V14.0013Z" fill="#386431" stroke="black" stroke-width="0.5"/>
<path d="M4.56348 17.5359C4.56348 17.5359 7.30217 16.4702 9.20541 16.4702C11.1087 16.4702 12.0009 17.5359 12.0009 17.5359" stroke="black" stroke-width="0.5" stroke-linecap="round" stroke-linejoin="round"/>
<path d="M4.13379 18.9839C4.13379 18.9839 7.03019 17.8569 9.04303 17.8569C11.0559 17.8569 11.9995 18.9839 11.9995 18.9839" stroke="black" stroke-width="0.5" stroke-linecap="round" stroke-linejoin="round"/>
<path d="M19.4375 17.5359C19.4375 17.5359 16.6988 16.4702 14.7956 16.4702C12.8923 16.4702 12 17.5359 12 17.5359" stroke="black" stroke-width="0.5" stroke-linecap="round" stroke-linejoin="round"/>
<path d="M19.8662 18.9839C19.8662 18.9839 16.9698 17.8569 14.957 17.8569C12.9441 17.8569 12.0005 18.9839 12.0005 18.9839" stroke="black" stroke-width="0.5" stroke-linecap="round" stroke-linejoin="round"/>
</svg>
