<svg width="24" height="24" viewBox="0 0 24 24" fill="none" xmlns="http://www.w3.org/2000/svg">
<circle cx="11.8578" cy="12.007" r="4.57502" fill="#CBC75F" stroke="#444849" stroke-width="0.342857"/>
<path d="M13.6634 7.81702C12.9329 8.0654 11.5036 8.845 12.3803 9.65152C13.4761 10.6597 13.6075 8.9502 14.3527 9.65152C15.0979 10.3528 12.1731 12.1462 13.6634 13.2421C15.1537 14.3379 14.803 10.3929 16.4686 11.6641" stroke="#444849" stroke-width="0.171429"/>
<path d="M7.73291 9.84366C8.34785 9.83084 9.55467 9.97431 9.46244 10.6508C9.34714 11.4963 7.92507 11.7269 8.84749 12.4187C9.76992 13.1106 11.8847 12.6831 11.461 13.8793C10.8076 15.7241 11.8838 16.5697 13.3443 16.2238" stroke="#444849" stroke-width="0.171429"/>
<path d="M12.7665 4.3892C12.7665 5.22548 11.8489 6.36576 11.8489 6.36576C11.8489 6.36576 10.9492 5.22548 10.9492 4.3892C10.9492 3.55293 11.8489 2.50354 11.8489 2.50354C11.8489 2.50354 12.7665 3.55293 12.7665 4.3892Z" fill="#386431"/>
<path d="M11.234 19.6247C11.234 18.7884 12.1515 17.6482 12.1515 17.6482C12.1515 17.6482 13.0513 18.7884 13.0513 19.6247C13.0513 20.461 12.1515 21.5104 12.1515 21.5104C12.1515 21.5104 11.234 20.461 11.234 19.6247Z" fill="#386431"/>
<path d="M8.92484 4.9827C9.34297 5.70693 9.1185 7.15322 9.1185 7.15322C9.1185 7.15322 7.76917 6.61557 7.35103 5.89133C6.9329 5.1671 7.18739 3.80844 7.18739 3.80844C7.18739 3.80844 8.5067 4.25846 8.92484 4.9827Z" fill="#386431"/>
<path d="M15.0752 19.0313C14.657 18.3071 14.8815 16.8608 14.8815 16.8608C14.8815 16.8608 16.2308 17.3985 16.649 18.1227C17.0671 18.8469 16.8126 20.2056 16.8126 20.2056C16.8126 20.2056 15.4933 19.7556 15.0752 19.0313Z" fill="#386431"/>
<path d="M15.0752 4.9827C14.657 5.70693 14.8815 7.15322 14.8815 7.15322C14.8815 7.15322 16.2308 6.61557 16.649 5.89133C17.0671 5.1671 16.8126 3.80844 16.8126 3.80844C16.8126 3.80844 15.4933 4.25846 15.0752 4.9827Z" fill="#386431"/>
<path d="M8.92484 19.0313C9.34297 18.3071 9.1185 16.8608 9.1185 16.8608C9.1185 16.8608 7.76917 17.3985 7.35103 18.1227C6.9329 18.8469 7.18739 20.2056 7.18739 20.2056C7.18739 20.2056 8.5067 19.7556 8.92484 19.0313Z" fill="#386431"/>
<path d="M4.23967 11.0984C5.07594 11.0984 6.21622 12.0159 6.21622 12.0159C6.21622 12.0159 5.07594 12.9156 4.23967 12.9156C3.40339 12.9156 2.354 12.0159 2.354 12.0159C2.354 12.0159 3.40339 11.0984 4.23967 11.0984Z" fill="#386431"/>
<path d="M19.7603 12.9155C18.9241 12.9155 17.7838 11.998 17.7838 11.998C17.7838 11.998 18.9241 11.0983 19.7603 11.0983C20.5966 11.0983 21.646 11.998 21.646 11.998C21.646 11.998 20.5966 12.9155 19.7603 12.9155Z" fill="#386431"/>
<path d="M5.91862 7.3086C6.64286 7.72674 7.1716 9.0915 7.1716 9.0915C7.1716 9.0915 5.73422 9.30054 5.00998 8.88241C4.28575 8.46427 3.82682 7.16039 3.82682 7.16039C3.82682 7.16039 5.19439 6.89047 5.91862 7.3086Z" fill="#386431"/>
<path d="M18.0819 16.7053C17.3576 16.2872 16.8289 14.9224 16.8289 14.9224C16.8289 14.9224 18.2663 14.7134 18.9905 15.1315C19.7147 15.5496 20.1737 16.8535 20.1737 16.8535C20.1737 16.8535 18.8061 17.1234 18.0819 16.7053Z" fill="#386431"/>
<path d="M18.0819 7.3086C17.3576 7.72674 16.8289 9.0915 16.8289 9.0915C16.8289 9.0915 18.2663 9.30054 18.9905 8.88241C19.7147 8.46427 20.1737 7.16039 20.1737 7.16039C20.1737 7.16039 18.8061 6.89047 18.0819 7.3086Z" fill="#386431"/>
<path d="M5.91862 16.7053C6.64286 16.2872 7.1716 14.9224 7.1716 14.9224C7.1716 14.9224 5.73422 14.7134 5.00998 15.1315C4.28575 15.5496 3.82682 16.8535 3.82682 16.8535C3.82682 16.8535 5.19439 17.1235 5.91862 16.7053Z" fill="#386431"/>
</svg>
