<svg width="25" height="24" viewBox="0 0 25 24" fill="none" xmlns="http://www.w3.org/2000/svg">
<circle cx="12.1333" cy="12.5914" r="7.12451" stroke="black" stroke-width="0.5"/>
<path d="M13.7439 5.6296C13.7439 6.51072 13.023 7.22527 12.1334 7.22527C11.2439 7.22527 10.5229 6.51072 10.5229 5.6296C10.5229 4.74848 11.2439 4.03394 12.1334 4.03394C13.023 4.03394 13.7439 4.74848 13.7439 5.6296Z" fill="#386431"/>
<path d="M9.00154 12.4909C9.00154 12.9981 8.58485 13.4199 8.05774 13.4199C7.53062 13.4199 7.11393 12.9981 7.11393 12.4909C7.11393 11.9837 7.53062 11.5619 8.05774 11.5619C8.58485 11.5619 9.00154 11.9837 9.00154 12.4909Z" fill="black" stroke="black" stroke-width="1.33333"/>
<path d="M17.8196 12.4909C17.8196 13.3721 17.0987 14.0866 16.2091 14.0866C15.3195 14.0866 14.5986 13.3721 14.5986 12.4909C14.5986 11.6098 15.3195 10.8953 16.2091 10.8953C17.0987 10.8953 17.8196 11.6098 17.8196 12.4909Z" fill="#CBC75F"/>
<path d="M14.6713 10.0303V10.1916C14.6713 10.3083 14.5758 10.4038 14.4591 10.4038H9.80789C9.69119 10.4038 9.5957 10.3083 9.5957 10.1916V10.0303C9.5957 8.63197 10.733 7.49463 12.1314 7.49463H12.1356C13.534 7.49463 14.6713 8.63197 14.6713 10.0303Z" fill="#386431"/>
<path d="M8.05995 15.0226C8.99037 15.0226 9.76473 15.7069 9.90594 16.5984H6.20968C6.35089 15.7069 7.12527 15.0226 8.0557 15.0226H8.05995Z" fill="black" stroke="black" stroke-width="1.33333"/>
<path d="M18.747 16.8916V17.0529C18.747 17.1696 18.6515 17.2651 18.5348 17.2651H13.8836C13.7669 17.2651 13.6714 17.1696 13.6714 17.0529V16.8916C13.6714 15.4933 14.8087 14.356 16.2071 14.356H16.2113C17.6097 14.356 18.747 15.4933 18.747 16.8916Z" fill="#CBC75F"/>
</svg>
