<svg width="24" height="24" viewBox="0 0 24 24" fill="none" xmlns="http://www.w3.org/2000/svg">
<path d="M2.9292 16.4277L12.0001 13.3286L21.0711 16.4277L12.0001 19.6866L2.9292 16.4277Z" fill="#386431" stroke="black" stroke-width="0.5" stroke-linejoin="round"/>
<path d="M2.9292 13.4277L12.0001 10.3286L21.0711 13.4277L12.0001 16.6866L2.9292 13.4277Z" fill="#CBC75F" stroke="#CBC75F" stroke-linejoin="round"/>
<path d="M4.12159 11.3099L4.12506 10.6642L6.30174 8.71315C6.47763 8.55808 6.59682 8.40996 6.65931 8.26879C6.72411 8.12761 6.75652 7.98643 6.75652 7.84525C6.75652 7.66705 6.71717 7.50735 6.63848 7.36618C6.55979 7.22269 6.45102 7.10928 6.31215 7.02596C6.17329 6.94265 6.0136 6.90099 5.83308 6.90099C5.64793 6.90099 5.48245 6.94496 5.33664 7.03291C5.19315 7.11854 5.0809 7.2331 4.9999 7.37659C4.9189 7.52008 4.87955 7.67515 4.88187 7.84178H4.13895C4.13895 7.51777 4.21185 7.23426 4.35766 6.99125C4.50578 6.74592 4.70829 6.55499 4.96518 6.41844C5.22208 6.27958 5.51601 6.21014 5.84696 6.21014C6.16172 6.21014 6.44407 6.28189 6.69403 6.42538C6.94398 6.56656 7.1407 6.76097 7.28419 7.00861C7.43 7.25624 7.5029 7.5386 7.5029 7.85567C7.5029 8.08479 7.47282 8.2792 7.41264 8.43889C7.35247 8.59859 7.26221 8.74671 7.14186 8.88325C7.02151 9.0198 6.87108 9.16792 6.69056 9.32762L5.01031 10.8273L4.93047 10.619H7.5029V11.3099H4.12159ZM10.0782 11.4175C9.738 11.4175 9.43713 11.3434 9.1756 11.1953C8.91408 11.0449 8.7081 10.8389 8.55766 10.5774C8.40954 10.3159 8.33548 10.015 8.33548 9.67477V7.95287C8.33548 7.61266 8.40954 7.31179 8.55766 7.05026C8.7081 6.78874 8.91408 6.58392 9.1756 6.4358C9.43713 6.28536 9.738 6.21014 10.0782 6.21014C10.4184 6.21014 10.7193 6.28536 10.9808 6.4358C11.2423 6.58392 11.4472 6.78874 11.5953 7.05026C11.7457 7.31179 11.8209 7.61266 11.8209 7.95287V9.67477C11.8209 10.015 11.7457 10.3159 11.5953 10.5774C11.4472 10.8389 11.2423 11.0449 10.9808 11.1953C10.7193 11.3434 10.4184 11.4175 10.0782 11.4175ZM10.0782 10.7232C10.2634 10.7232 10.4312 10.6792 10.5816 10.5913C10.7343 10.501 10.8558 10.3807 10.9461 10.2302C11.0364 10.0775 11.0815 9.90737 11.0815 9.7199V7.9008C11.0815 7.71565 11.0364 7.54786 10.9461 7.39742C10.8558 7.24467 10.7343 7.12432 10.5816 7.03638C10.4312 6.94612 10.2634 6.90099 10.0782 6.90099C9.89306 6.90099 9.72411 6.94612 9.57136 7.03638C9.42093 7.12432 9.30058 7.24467 9.21032 7.39742C9.12006 7.54786 9.07493 7.71565 9.07493 7.9008V9.7199C9.07493 9.90737 9.12006 10.0775 9.21032 10.2302C9.30058 10.3807 9.42093 10.501 9.57136 10.5913C9.72411 10.6792 9.89306 10.7232 10.0782 10.7232ZM14.5329 11.4175C14.1927 11.4175 13.8919 11.3434 13.6303 11.1953C13.3688 11.0449 13.1628 10.8389 13.0124 10.5774C12.8643 10.3159 12.7902 10.015 12.7902 9.67477V7.95287C12.7902 7.61266 12.8643 7.31179 13.0124 7.05026C13.1628 6.78874 13.3688 6.58392 13.6303 6.4358C13.8919 6.28536 14.1927 6.21014 14.5329 6.21014C14.8732 6.21014 15.174 6.28536 15.4356 6.4358C15.6971 6.58392 15.9019 6.78874 16.05 7.05026C16.2005 7.31179 16.2757 7.61266 16.2757 7.95287V9.67477C16.2757 10.015 16.2005 10.3159 16.05 10.5774C15.9019 10.8389 15.6971 11.0449 15.4356 11.1953C15.174 11.3434 14.8732 11.4175 14.5329 11.4175ZM14.5329 10.7232C14.7181 10.7232 14.8859 10.6792 15.0363 10.5913C15.1891 10.501 15.3106 10.3807 15.4008 10.2302C15.4911 10.0775 15.5362 9.90737 15.5362 9.7199V7.9008C15.5362 7.71565 15.4911 7.54786 15.4008 7.39742C15.3106 7.24467 15.1891 7.12432 15.0363 7.03638C14.8859 6.94612 14.7181 6.90099 14.5329 6.90099C14.3478 6.90099 14.1788 6.94612 14.0261 7.03638C13.8757 7.12432 13.7553 7.24467 13.6651 7.39742C13.5748 7.54786 13.5297 7.71565 13.5297 7.9008V9.7199C13.5297 9.90737 13.5748 10.0775 13.6651 10.2302C13.7553 10.3807 13.8757 10.501 14.0261 10.5913C14.1788 10.6792 14.3478 10.7232 14.5329 10.7232ZM18.8696 6.21362C19.1913 6.21362 19.4818 6.29115 19.741 6.44621C20.0002 6.59896 20.2062 6.80957 20.3589 7.07804C20.5117 7.34651 20.5881 7.65316 20.5881 7.998V9.58798C20.5881 9.95366 20.5117 10.2742 20.3589 10.5496C20.2085 10.8227 19.9979 11.0356 19.7271 11.1884C19.4587 11.3411 19.1485 11.4175 18.7967 11.4175C18.5329 11.4175 18.2853 11.3677 18.0538 11.2682C17.8224 11.1687 17.621 11.0206 17.4498 10.8239L17.9844 10.3274C18.0793 10.4501 18.1985 10.5485 18.342 10.6225C18.4855 10.6966 18.637 10.7336 18.7967 10.7336C19.0027 10.7336 19.1844 10.6838 19.3418 10.5843C19.5015 10.4848 19.6253 10.3552 19.7132 10.1955C19.8012 10.0358 19.8452 9.86455 19.8452 9.68172V8.76522L19.991 8.92491C19.8475 9.11238 19.6693 9.2605 19.4563 9.36927C19.2434 9.47805 19.0154 9.53244 18.7724 9.53244C18.46 9.53244 18.1823 9.46069 17.9393 9.3172C17.6963 9.17371 17.5042 8.97814 17.363 8.73051C17.2218 8.48287 17.1512 8.20283 17.1512 7.89038C17.1512 7.57794 17.2299 7.29559 17.3873 7.04332C17.5447 6.79105 17.753 6.5897 18.0122 6.43927C18.2714 6.28883 18.5572 6.21362 18.8696 6.21362ZM18.8696 6.91487C18.6891 6.91487 18.5236 6.95885 18.3732 7.04679C18.2251 7.13243 18.1071 7.2493 18.0191 7.39742C17.9312 7.54554 17.8872 7.70986 17.8872 7.89038C17.8872 8.07091 17.9312 8.23638 18.0191 8.38682C18.1071 8.53494 18.2251 8.65297 18.3732 8.74092C18.5213 8.82887 18.6856 8.87284 18.8662 8.87284C19.0467 8.87284 19.211 8.82887 19.3591 8.74092C19.5073 8.65297 19.6253 8.53494 19.7132 8.38682C19.8012 8.23638 19.8452 8.07091 19.8452 7.89038C19.8452 7.71218 19.8012 7.54901 19.7132 7.40089C19.6276 7.25277 19.5107 7.13474 19.3626 7.04679C19.2145 6.95885 19.0502 6.91487 18.8696 6.91487Z" fill="black"/>
</svg>
