<svg width="24" height="24" viewBox="0 0 24 24" fill="none" xmlns="http://www.w3.org/2000/svg">
<path d="M9.77564 4C7.91554 4.39376 6.2405 5.39782 5.01678 6.85255C3.79307 8.30728 3.09093 10.1292 3.02197 12.0287H6.05303C6.15112 10.016 7.29513 8.35141 8.31161 6.86703C9.03014 5.82882 9.76583 4.75629 9.77564 4Z" fill="#99C33C"/>
<path d="M17.0296 12.6477C16.9635 13.6816 16.607 14.6759 16.0009 15.5163C15.3949 16.3567 14.564 17.0092 13.6037 17.3987H13.5963C13.5215 17.4281 13.4467 17.4575 13.3695 17.4845L13.3315 17.498C13.2641 17.5213 13.1966 17.5434 13.1279 17.5642L13.0617 17.5826L12.879 17.6328L12.7871 17.6537C12.7319 17.6672 12.6779 17.6794 12.6228 17.6904L12.5002 17.7113C12.4511 17.7199 12.4033 17.7297 12.3542 17.737L12.2181 17.7566L12.0955 17.7726C12.0403 17.7726 11.9839 17.7811 11.9275 17.7848L11.8233 17.7934C11.7314 17.7934 11.6394 17.7934 11.5474 17.7934C11.4542 17.7934 11.3623 17.791 11.2715 17.786C11.236 17.786 11.2017 17.7861 11.1673 17.7787C11.1109 17.7787 11.0545 17.7713 10.9981 17.7652C10.9417 17.7591 10.9135 17.7554 10.8755 17.7505C10.8375 17.7456 10.7811 17.7395 10.7357 17.7321L10.5898 17.7076L10.4672 17.6868C10.412 17.6757 10.3568 17.6622 10.3029 17.65L10.2109 17.6279C10.1496 17.6132 10.0883 17.5961 10.027 17.5777L9.96201 17.5593C9.89335 17.5384 9.82591 17.5164 9.75847 17.4931L9.71924 17.4796C9.64321 17.4526 9.56842 17.4245 9.49362 17.3938H9.48627C8.52583 17.0053 7.69446 16.3538 7.08761 15.5143C6.48076 14.6748 6.12302 13.6813 6.05548 12.6477H3.02197C3.1026 14.8529 4.03558 16.9409 5.62467 18.4726C7.21376 20.0042 9.33511 20.8601 11.5425 20.8602V20.8602C13.7501 20.8601 15.8716 20.0043 17.4608 18.4727C19.0501 16.9411 19.9834 14.853 20.0643 12.6477H17.0296Z" fill="#676868"/>
<path d="M13.3105 4C15.1706 4.39456 16.8455 5.39898 18.0693 6.85377C19.2931 8.30856 19.9956 10.1304 20.0654 12.0299H17.0319C16.9351 10.016 15.7911 8.35264 14.7733 6.86826C14.0573 5.83004 13.3216 4.75751 13.3105 4Z" fill="#99C33C"/>
<path d="M11.5428 4.01465C11.5428 6.58137 7.89991 9.11132 7.89991 12.221C7.8991 12.6998 7.99273 13.174 8.17545 13.6165C8.35816 14.0591 8.62637 14.4613 8.96472 14.8001C9.30308 15.1389 9.70494 15.4077 10.1473 15.5911C10.5897 15.7745 11.0639 15.8689 11.5428 15.8689C11.6654 15.8689 11.788 15.8689 11.9107 15.8505C12.8098 15.7596 13.6431 15.3378 14.2486 14.667C14.854 13.9963 15.1885 13.1245 15.187 12.221C15.187 9.11132 11.5428 6.58137 11.5428 4.01465Z" fill="#0579BF"/>
</svg>
