<svg width="25" height="24" viewBox="0 0 25 24" fill="none" xmlns="http://www.w3.org/2000/svg">
<g clip-path="url(#clip0_2270_3104)">
<rect x="5.32051" y="5.48237" width="13.6256" height="10.0802" rx="0.7" stroke="black" stroke-width="0.6"/>
<path d="M5.21632 15.9324C5.34278 15.7214 5.57074 15.5922 5.81677 15.5922H18.6035C18.8591 15.5922 19.0943 15.7315 19.2172 15.9556L20.054 17.4809C20.3099 17.9474 19.9723 18.5176 19.4402 18.5176H4.90272C4.35879 18.5176 4.02269 17.9244 4.30228 17.4578L5.21632 15.9324Z" fill="#386431" stroke="black" stroke-width="0.6"/>
<path d="M15.5068 8.94651L14.5298 9.51411V9.02531C14.5298 8.7415 14.3094 8.52112 14.0256 8.52112H9.48661C9.20281 8.52112 8.98242 8.7415 8.98242 9.02531V12.0197C8.98242 12.3035 9.20281 12.5239 9.48661 12.5239H14.0256C14.3094 12.5239 14.5298 12.3035 14.5298 12.0197V11.5309L15.5068 12.0985C15.7432 12.2401 16.0424 12.0671 16.0424 11.7833V9.2617C16.0424 8.99391 15.7432 8.8203 15.5068 8.94651ZM12.5598 10.7428L11.4092 11.4206C11.2356 11.5154 11.0153 11.4046 11.0153 11.2002V9.84463C11.0153 9.63963 11.2356 9.51342 11.4092 9.62424L12.5598 10.302C12.7328 10.3962 12.7328 10.6486 12.5598 10.7428Z" fill="#386431"/>
</g>
<defs>
<clipPath id="clip0_2270_3104">
<rect width="24" height="24" fill="white" transform="translate(0.133301)"/>
</clipPath>
</defs>
</svg>
