<svg width="24" height="24" viewBox="0 0 24 24" fill="none" xmlns="http://www.w3.org/2000/svg">
<path d="M2.54395 20.0216L5.67258 16.1197H7.94945L10.7683 13.4918H15.2819L20.4282 7.11084M20.4282 7.11084L18.3162 7.43568M20.4282 7.11084V9.22415" stroke="black" stroke-width="0.5" stroke-linecap="round" stroke-linejoin="round"/>
<circle cx="11.9995" cy="7.90674" r="3.73835" fill="#CBC75F" stroke="black" stroke-width="0.379747"/>
<path d="M11.7839 9.95621V9.43438H12.2499V9.95621H11.7839ZM11.7839 6.38148V5.85742H12.2499V6.38148H11.7839ZM12.0403 9.57933C11.8173 9.57933 11.6181 9.53919 11.4427 9.45891C11.2672 9.37863 11.123 9.2649 11.01 9.11772C10.8985 8.96905 10.8257 8.79362 10.7915 8.59143L11.2531 8.51784C11.2977 8.70814 11.3929 8.85978 11.5386 8.97277C11.6843 9.08427 11.8589 9.14002 12.0626 9.14002C12.2648 9.14002 12.4291 9.0917 12.5555 8.99507C12.6833 8.89843 12.7472 8.77504 12.7472 8.62488C12.7472 8.51784 12.7145 8.43087 12.6491 8.36397C12.5852 8.29707 12.4804 8.24057 12.3347 8.19449L11.5809 7.96256C11.1349 7.8243 10.9119 7.5567 10.9119 7.15976C10.9119 6.97243 10.9565 6.80964 11.0457 6.67138C11.1364 6.53312 11.2635 6.42608 11.4271 6.35026C11.5906 6.27444 11.7816 6.23653 12.0002 6.23653C12.2098 6.2395 12.3956 6.27815 12.5577 6.35249C12.7212 6.42682 12.8565 6.53386 12.9635 6.67361C13.0721 6.81336 13.1472 6.98135 13.1888 7.1776L12.7138 7.26234C12.693 7.14786 12.6491 7.04677 12.5822 6.95905C12.5168 6.87134 12.4335 6.80295 12.3325 6.75389C12.2328 6.70483 12.1206 6.67956 11.9957 6.67807C11.8783 6.6751 11.7727 6.69368 11.6791 6.73382C11.5869 6.77248 11.5133 6.82748 11.4583 6.89884C11.4048 6.96872 11.378 7.04825 11.378 7.13746C11.378 7.23558 11.4159 7.31883 11.4917 7.38722C11.5676 7.45561 11.6872 7.51433 11.8508 7.56339L12.4417 7.7351C12.7123 7.81538 12.9078 7.92317 13.0282 8.05846C13.1486 8.19374 13.2089 8.37363 13.2089 8.59812C13.2089 8.79436 13.1598 8.96608 13.0617 9.11326C12.965 9.25895 12.829 9.37343 12.6536 9.45668C12.4781 9.53845 12.2737 9.57933 12.0403 9.57933Z" fill="black"/>
<path fill-rule="evenodd" clip-rule="evenodd" d="M14.5157 15.6932C12.7437 15.0492 11.5737 14.6476 9.79525 14.0201C8.95572 13.7718 8.1076 13.9885 7.66985 14.1926C7.06606 14.4764 3.76847 15.975 3.57227 16.1265L5.01558 19.1989L6.90735 18.3212C7.22538 18.1717 7.18324 18.1381 7.47362 18.2053C8.70689 18.4871 10.1443 18.7505 11.3565 19.0389C11.5079 19.0744 12.9031 19.3819 13.0652 19.3859C13.1685 19.4109 13.2522 19.4089 13.3305 19.3839L20.0374 16.2569C20.3996 16.0383 20.6096 15.3687 20.2165 14.8531C19.8544 14.3757 19.3559 14.3856 18.8509 14.6194C17.7948 15.1139 16.736 15.6044 15.6799 16.0989C15.4903 16.1871 15.377 16.3682 15.377 16.5763C15.379 16.9384 15.2342 17.2709 14.9602 17.5251C14.5224 17.9333 13.9502 17.9399 13.5584 17.7944L11.2058 16.9654C11.1386 16.9404 11.1024 16.8666 11.1261 16.7968L11.1577 16.7066C11.1682 16.673 11.1913 16.648 11.2249 16.6309C11.2565 16.6138 11.2901 16.6138 11.3256 16.6243C11.6667 16.7461 12.6175 17.0852 13.0303 17.2261C13.6051 17.4322 14.4486 17.8405 14.901 17.0286C14.9998 16.8495 15.057 16.627 15.0103 16.3761C14.9576 16.0752 14.8417 15.9678 14.6863 15.8059C14.6356 15.7532 14.583 15.7176 14.5158 15.692L14.5157 15.6932Z" fill="#386431"/>
</svg>
