<svg width="25" height="24" viewBox="0 0 25 24" fill="none" xmlns="http://www.w3.org/2000/svg">
<path d="M12.4742 19.6632C14.4156 19.6632 15.9894 19.1678 15.9894 18.5566C15.9894 18.1052 15.1309 17.717 13.9 17.5448H11.0484C9.81743 17.717 8.95898 18.1052 8.95898 18.5566C8.95898 19.1678 10.5328 19.6632 12.4742 19.6632Z" fill="#CBC75F"/>
<path d="M18.6824 10.1316C18.6824 11.0883 18.3036 12.1174 17.7065 13.1391C17.1113 14.1576 16.3134 15.145 15.5083 16.0121C14.7042 16.8782 13.8991 17.6178 13.2945 18.1412C12.9924 18.4027 12.7409 18.6098 12.5654 18.7512C12.5321 18.778 12.5015 18.8025 12.4739 18.8245C12.4462 18.8025 12.4157 18.778 12.3824 18.7512C12.2068 18.6098 11.9554 18.4027 11.6533 18.1412C11.0487 17.6178 10.2436 16.8782 9.43946 16.0121C8.6344 15.145 7.83647 14.1576 7.24131 13.1391C6.6442 12.1174 6.26533 11.0883 6.26533 10.1316C6.26533 6.70271 9.04499 3.92305 12.4739 3.92305C15.9028 3.92305 18.6824 6.70271 18.6824 10.1316Z" fill="white" stroke="black" stroke-width="0.6"/>
<rect x="9.72168" y="8.27075" width="5.50366" height="5.7314" fill="#CBC75F"/>
<path d="M12.4737 6.27783L15.215 8.27087H9.73242L12.4737 6.27783Z" fill="black"/>
<path d="M13.4934 14.0022V11.2277H11.4536V14.0022" stroke="black" stroke-width="0.6"/>
</svg>
