<svg width="25" height="24" viewBox="0 0 25 24" fill="none" xmlns="http://www.w3.org/2000/svg">
<path d="M14.4626 9.27795H10.875V16.3341C10.875 17.9909 12.2181 19.3341 13.875 19.3341L22.9849 19.334V16.4559L15.4626 16.4559C14.9104 16.4559 14.4626 16.0082 14.4626 15.4559V9.27795Z" fill="black"/>
<path d="M5.77022 5.39501C5.89165 4.96393 6.2849 4.66615 6.73276 4.66615L19.1678 4.66614C19.6136 4.66614 20.0055 4.96116 20.1288 5.38952L22.6171 14.034C22.8012 14.6732 22.3214 15.3106 21.6562 15.3106L4.29767 15.3106C3.63483 15.3106 3.1554 14.6775 3.33512 14.0395L5.77022 5.39501Z" fill="#CBC75F"/>
<path d="M13.9335 11.016C13.9335 11.5947 13.4644 12.0638 12.8857 12.0638C12.307 12.0638 11.8379 11.5947 11.8379 11.016C11.8379 10.4374 12.8857 9.27795 12.8857 9.27795C12.8857 9.27795 13.9335 10.4374 13.9335 11.016Z" fill="white" stroke="black" stroke-width="0.6"/>
<path d="M10.3637 8.23015C10.3637 8.80883 9.89454 9.27794 9.31586 9.27794C8.73718 9.27794 8.26807 8.80883 8.26807 8.23015C8.26807 7.65147 9.31586 6.49207 9.31586 6.49207C9.31586 6.49207 10.3637 7.65147 10.3637 8.23015Z" fill="white" stroke="black" stroke-width="0.6"/>
<path d="M17.1972 8.23015C17.1972 8.80883 16.728 9.27794 16.1494 9.27794C15.5707 9.27794 15.1016 8.80883 15.1016 8.23015C15.1016 7.65147 16.1494 6.49207 16.1494 6.49207C16.1494 6.49207 17.1972 7.65147 17.1972 8.23015Z" fill="white" stroke="black" stroke-width="0.6"/>
<path d="M6.52686 9.98828H7.67643C9.33328 9.98828 10.6764 11.3314 10.6764 12.9883V13.393" stroke="black" stroke-width="0.5" stroke-linecap="round"/>
<path d="M18.9863 9.98828H17.8368C16.1799 9.98828 14.8368 11.3314 14.8368 12.9883V13.393" stroke="black" stroke-width="0.5" stroke-linecap="round"/>
</svg>
