<svg width="24" height="24" viewBox="0 0 24 24" fill="none" xmlns="http://www.w3.org/2000/svg">
<path d="M9.96611 13C9.64716 13.0906 9.01882 13.462 9.05709 14.223C9.10494 15.1742 9.64136 15.5511 8.78012 16.457C7.91888 17.3629 7.04757 17.5749 6.95188 18.2996C6.85619 19.0243 7.64941 19.026 7.39814 19.4542C7.14688 19.8824 5.84034 19.9537 6.01623 20.9052" stroke="#CBC75F" stroke-width="0.5" stroke-linecap="round" stroke-linejoin="round"/>
<path d="M9.27583 13.6233C9.52665 13.9505 10.0183 14.8104 9.97816 15.633C9.92803 16.6612 9.90434 17.3766 10.3308 17.7505C10.7573 18.1244 11.6603 18.9423 11.6353 19.3863C11.6102 19.8303 10.8997 19.8287 11.3844 20.2976C12.0366 20.9286 12.0868 21.4193 12.0366 22.0036" stroke="#CBC75F" stroke-width="0.5" stroke-linecap="round" stroke-linejoin="round"/>
<path d="M11.6602 13.1234C12.0281 13.248 12.8343 13.6983 13.1152 14.5022C13.4664 15.507 13.1152 16.3016 13.642 16.582C14.1688 16.8624 15.1471 16.7456 15.2725 17.6803C15.398 18.6151 15.122 19.9237 16.0251 20.2743C16.9282 20.6248 18.1323 21.1856 17.9065 22.8916" stroke="#CBC75F" stroke-width="0.5" stroke-linecap="round" stroke-linejoin="round"/>
<path d="M13.6422 16.6288C13.6673 16.769 13.6924 16.956 13.1907 17.7271C12.689 18.4983 13.015 18.8255 13.6422 19.5265C14.2694 20.2276 14.8464 20.2042 14.9216 20.695C14.9969 21.1857 13.6422 21.7232 13.6422 22.4009" stroke="#CBC75F" stroke-width="0.5" stroke-linecap="round" stroke-linejoin="round"/>
<path d="M13.5167 16.8157C13.2491 16.8312 12.6387 16.9933 12.3377 17.5167C11.9613 18.1711 12.3878 18.2879 11.56 18.5917C10.7321 18.8955 10.0799 18.6151 9.75377 19.246C9.42765 19.877 10.105 19.7601 9.32731 20.2041C8.54966 20.6482 7.97272 20.4378 7.89746 20.9052" stroke="#CBC75F" stroke-width="0.5" stroke-linecap="round" stroke-linejoin="round"/>
<path d="M12.5885 14.0115C12.2707 14.0894 11.7325 14.4078 11.4847 14.8294C10.9077 15.8109 11.2339 16.7223 11.2339 17.0728C11.2339 17.3532 11.0164 17.6414 10.9077 17.7505" stroke="#CBC75F" stroke-width="0.5" stroke-linecap="round" stroke-linejoin="round"/>
<path d="M13.3159 15.2499C13.6588 15.1954 14.4082 15.3099 15.0719 15.6706C15.975 16.1614 15.9165 16.6287 15.975 16.8157" stroke="#CBC75F" stroke-width="0.5" stroke-linecap="round" stroke-linejoin="round"/>
<path d="M4 17C4 17 4.41837 18.2064 5.65211 18.2064C7.19428 18.2064 6.36986 17 7.85882 17C9.34778 17 8.63879 18.2064 10.0214 18.2064C11.404 18.2064 10.4696 17 11.932 17C13.3943 17 12.6451 18.2064 14.3202 18.2064C15.9952 18.2064 15.0338 17 16.4695 17C17.9053 17 17.342 18.2064 18.5848 18.2064C19.8276 18.2064 20.4612 17 20.4612 17" stroke="black" stroke-width="0.5" stroke-linecap="round" stroke-linejoin="round"/>
<path d="M5 6.17391C5 6.17391 5.18817 6.27826 5.26344 6.33043C5.82796 6.66087 6.33602 7.09565 6.76882 7.56522C7.65323 8.50435 8.23656 9.58261 8.63172 10.7652C8.63172 10.7826 8.63172 10.8174 8.66935 10.8348C8.23656 8.17391 7.46505 5.58261 6.54301 3.0087C6.67473 3.09565 6.78763 3.18261 6.90054 3.25217C7.59677 3.77391 8.16129 4.4 8.63172 5.09565C9.12097 5.8087 9.51613 6.57391 9.83602 7.37391C10.043 7.91304 10.2312 8.45217 10.3817 8.9913C10.3817 8.9913 10.3817 9.02609 10.4005 9.04348C10.4005 8.86957 10.4005 8.67826 10.4194 8.50435C10.4382 8.05217 10.4758 7.6 10.5134 7.16522C10.5511 6.78261 10.5699 6.4 10.6263 6.01739C10.7769 4.8 10.9839 3.58261 11.3414 2.4C11.379 2.26087 11.4167 2.13913 11.4731 2C11.4731 2 11.4731 2.03478 11.4919 2.05217C11.7177 2.74783 11.9059 3.46087 12.0376 4.17391C12.1317 4.66087 12.207 5.13043 12.2823 5.61739C12.3387 6.03478 12.3763 6.43478 12.414 6.85217C12.4704 7.58261 12.5081 8.31304 12.5645 9.04348C12.5645 9.0087 12.5645 8.9913 12.5833 8.95652C12.9032 7.86087 13.3172 6.78261 13.9005 5.77391C14.3522 4.9913 14.879 4.27826 15.5565 3.66957C15.8011 3.44348 16.0645 3.23478 16.3656 3.04348C16.3656 3.04348 16.4032 3.02609 16.422 3.0087C15.5 5.56522 14.7285 8.13913 14.3145 10.8C14.371 10.6435 14.4274 10.487 14.4839 10.3304C14.8414 9.3913 15.3683 8.66087 16.2903 8.13913C17.3253 7.54783 18.7177 7.75652 19 8.15652C16.2151 8.34783 15.6129 11.3565 15.3306 12.4C15.1989 12.8522 15.1048 13.3217 15.0296 13.7913C15.0296 13.8261 15.0296 13.8609 15.0296 13.8957C15.0296 13.9304 15.0296 13.9652 15.0296 14H7.97312C7.97312 14 7.9543 13.8435 7.93548 13.7565C7.87903 13.3565 7.78495 12.9391 7.69086 12.5391C7.31452 11.0957 6.76882 9.70435 6.12903 8.34783C5.79032 7.63478 5.41398 6.92174 5.03763 6.22609C5.03763 6.2087 5.01882 6.1913 5 6.17391Z" fill="#386431"/>
</svg>
