<svg width="24" height="25" viewBox="0 0 24 25" fill="none" xmlns="http://www.w3.org/2000/svg">
<path fill-rule="evenodd" clip-rule="evenodd" d="M17.4303 7.51248C16.0665 6.14869 14.1828 5.30566 12.102 5.30566C10.0214 5.30566 8.13754 6.14948 6.77371 7.51248C5.40992 8.87627 4.56689 10.76 4.56689 12.8408C4.56689 13.5646 4.66843 14.263 4.85842 14.9245C5.05303 15.6022 5.33917 16.2399 5.70301 16.8229C5.77377 16.9229 5.79454 17.056 5.74454 17.1783L4.3623 20.5912L8.81906 19.7043C8.89137 19.6897 8.96906 19.6982 9.04136 19.7305C9.51364 19.9404 10.0136 20.1043 10.5351 20.2143C11.039 20.3212 11.5628 20.3773 12.1027 20.3773C14.1833 20.3773 16.0672 19.5335 17.431 18.1705C18.7948 16.8067 19.6379 14.923 19.6379 12.8422C19.6371 10.7601 18.7933 8.87611 17.4303 7.51248Z" fill="black"/>
<path fill-rule="evenodd" clip-rule="evenodd" d="M16.9768 8.02122C15.7269 6.77213 14.0005 6 12.0934 6C10.1866 6 8.45999 6.77285 7.21004 8.02122C5.96014 9.27032 5.1875 10.9956 5.1875 12.9014C5.1875 13.5644 5.28056 14.204 5.45469 14.8099C5.63305 15.4306 5.89529 16.0146 6.22875 16.5486C6.29361 16.6402 6.31264 16.7621 6.26682 16.8741L5 20L9.0846 19.1877C9.15087 19.1743 9.22207 19.1821 9.28834 19.2117C9.72118 19.404 10.1794 19.554 10.6574 19.6548C11.1191 19.7527 11.5992 19.8041 12.0941 19.8041C14.0009 19.8041 15.7275 19.0313 16.9775 17.7829C18.2274 16.5338 19 14.8085 19 12.9027C18.9993 10.9957 18.226 9.27017 16.9768 8.02122Z" fill="#386431"/>
<circle cx="12.0002" cy="12.9484" r="5.23602" fill="white"/>
<path fill-rule="evenodd" clip-rule="evenodd" d="M10.0579 12.0261C10.2533 12.0261 10.4269 11.8524 10.4269 11.6571C10.4269 10.7673 11.1214 10.0729 12.0111 10.0729C12.8792 10.0729 13.5736 10.7674 13.5736 11.6571C13.5736 12.5251 12.8792 13.2196 12.0111 13.2196C11.7723 13.2196 11.6204 13.4149 11.6422 13.632V14.8038C11.6422 14.9991 11.794 15.1728 12.0111 15.1728C12.2065 15.1728 12.3801 14.9991 12.3801 14.8038L12.3583 13.9357C13.4869 13.7621 14.3115 12.7857 14.3115 11.6571C14.3115 10.3766 13.2698 9.33496 12.0111 9.33496C10.7306 9.33496 9.68896 10.3766 9.68896 11.6571C9.68896 11.8524 9.86257 12.0261 10.0579 12.0261ZM12.4225 16.1494C12.4225 15.9106 12.2489 15.7152 12.0101 15.7152C11.7713 15.7152 11.5977 15.9106 11.5977 16.1494C11.5977 16.3665 11.7713 16.5618 12.0101 16.5618C12.2489 16.5618 12.4225 16.3665 12.4225 16.1494Z" fill="#386431"/>
</svg>
