<svg width="1659" height="842" viewBox="0 0 1659 842" fill="none" xmlns="http://www.w3.org/2000/svg">
<path d="M134.931 692H24C10.7452 692 0 681.255 0 668V136C0 122.745 10.7452 112 24 112H556.638C589.524 112 621.064 98.9358 644.319 75.6813L683.681 36.3188C706.936 13.0642 738.476 0 771.362 0H968.195C994.002 0 1018.75 10.2518 1037 28.5C1055.25 46.7482 1080 57 1105.81 57H1293.64C1326.52 57 1358.06 70.0643 1381.32 93.3188L1404.18 116.181C1427.44 139.436 1458.98 152.5 1491.86 152.5H1634.5C1647.75 152.5 1658.5 163.245 1658.5 176.5V782.5C1658.5 795.755 1647.75 806.5 1634.5 806.5H1415.25C1399.4 806.5 1384.21 812.795 1373 824C1361.79 835.205 1346.6 841.5 1330.75 841.5H625.012C598.753 841.5 573.568 831.068 555 812.5C536.432 793.932 511.247 783.5 484.988 783.5H259.569C248.96 783.5 238.786 779.286 231.284 771.784L163.216 703.716C155.714 696.214 145.54 692 134.931 692Z" fill="#F1F5F7"/>
</svg>
