<svg width="24" height="24" viewBox="0 0 24 24" fill="none" xmlns="http://www.w3.org/2000/svg">
<path d="M4.02148 6.89453C4.02148 6.34225 4.4692 5.89453 5.02148 5.89453H18.978C19.5303 5.89453 19.978 6.34225 19.978 6.89453V8.5993V17.1054C19.978 17.6576 19.5303 18.1054 18.978 18.1054H5.02148C4.4692 18.1054 4.02148 17.6576 4.02148 17.1054V8.5993V6.89453Z" fill="white"/>
<path d="M4.02148 8.5993V17.1054C4.02148 17.6576 4.4692 18.1054 5.02148 18.1054H18.978C19.5303 18.1054 19.978 17.6576 19.978 17.1054V8.5993M4.02148 8.5993V6.89453C4.02148 6.34225 4.4692 5.89453 5.02148 5.89453H18.978C19.5303 5.89453 19.978 6.34225 19.978 6.89453V8.5993M4.02148 8.5993H19.978" stroke="black" stroke-width="0.5"/>
<rect x="5.85791" y="11.0192" width="4.00781" height="4.74573" fill="#386431"/>
<rect x="11.0889" y="11.1803" width="6.86367" height="0.502191" fill="black"/>
<rect x="11.0889" y="13.0636" width="6.86367" height="0.502191" fill="black"/>
<rect x="14.4839" y="14.9469" width="3.46875" height="0.502191" fill="black"/>
<circle cx="6.38656" cy="7.29635" r="0.52865" fill="#CBC75F"/>
<circle cx="9.71615" cy="7.29635" r="0.52865" fill="#CBC75F"/>
<circle cx="8.05111" cy="7.29635" r="0.52865" fill="#CBC75F"/>
</svg>
