<svg width="24" height="24" viewBox="0 0 24 24" fill="none" xmlns="http://www.w3.org/2000/svg">
<rect x="5.3" y="5.3" width="13.4" height="3.4" rx="0.7" fill="#386431" stroke="black" stroke-width="0.6"/>
<rect x="7.25" y="4.25" width="0.5" height="1.5" rx="0.25" stroke="black" stroke-width="0.5"/>
<rect x="10.25" y="4.25" width="0.5" height="1.5" rx="0.25" stroke="black" stroke-width="0.5"/>
<rect x="13.25" y="4.25" width="0.5" height="1.5" rx="0.25" stroke="black" stroke-width="0.5"/>
<rect x="16.25" y="4.25" width="0.5" height="1.5" rx="0.25" stroke="black" stroke-width="0.5"/>
<rect x="5.3" y="5.3" width="13.4" height="13.4" rx="0.7" stroke="black" stroke-width="0.6"/>
<path d="M11.916 10.8951C11.9423 10.8126 12.0577 10.8126 12.084 10.8951L12.5521 12.3617C12.5639 12.3986 12.5979 12.4236 12.6363 12.4235L14.1613 12.4201C14.2471 12.4199 14.2827 12.5309 14.2133 12.5816L12.9776 13.4847C12.9465 13.5074 12.9334 13.5478 12.9454 13.5847L13.4198 15.0492C13.4465 15.1315 13.3531 15.2001 13.2839 15.149L12.0521 14.2405C12.021 14.2177 11.979 14.2177 11.9479 14.2405L10.7161 15.149C10.6469 15.2001 10.5535 15.1315 10.5802 15.0492L11.0546 13.5847C11.0666 13.5478 11.0535 13.5074 11.0224 13.4847L9.78672 12.5816C9.71726 12.5309 9.75293 12.4199 9.83865 12.4201L11.3637 12.4235C11.4021 12.4236 11.4361 12.3986 11.4479 12.3617L11.916 10.8951Z" stroke="#CBC75F" stroke-width="0.5"/>
<path d="M11.5 12.5L12 11L12.5 12.5H14L13 13.5L13.5 15L12 14.5L10.5 15L11 13.5L10 12.5H11.5Z" fill="#CBC75F"/>
</svg>
