<svg width="24" height="24" viewBox="0 0 24 24" fill="none" xmlns="http://www.w3.org/2000/svg">
<path d="M6.23434 8.45152C6.35577 8.02043 6.74902 7.72266 7.19688 7.72266L17.2934 7.72266C17.7391 7.72266 18.1311 8.01768 18.2544 8.44603L20.509 16.2785C20.693 16.9177 20.2132 17.5551 19.548 17.5551H4.99053C4.3277 17.5551 3.84827 16.9219 4.02799 16.2839L6.23434 8.45152Z" fill="#CBC75F"/>
<circle cx="6.05714" cy="13.3428" r="2.05714" stroke="black" stroke-width="0.5" stroke-linejoin="round"/>
<circle cx="10.1714" cy="8.05714" r="2.05714" stroke="black" stroke-width="0.5" stroke-linejoin="round"/>
<circle cx="17.8858" cy="11.8286" r="2.05714" stroke="black" stroke-width="0.5" stroke-linejoin="round"/>
<path d="M15.975 9.38559C15.975 9.65084 15.5767 9.65084 15.5767 9.38559C15.5767 9.11984 15.975 9.11984 15.975 9.38559Z" fill="black"/>
<path d="M13.0615 9.43613C13.0615 9.70137 12.6631 9.70137 12.6631 9.43613C12.6631 9.17038 13.0615 9.17038 13.0615 9.43613Z" fill="black"/>
<path d="M12.143 9.55429C12.143 9.81954 11.7446 9.81954 11.7446 9.55429C11.7446 9.28854 12.143 9.28854 12.143 9.55429Z" fill="black"/>
<path d="M8.26752 10.8664C8.26752 11.1322 7.86914 11.1322 7.86914 10.8664C7.86914 10.6007 8.26752 10.6007 8.26752 10.8664Z" fill="black"/>
<path d="M15.0834 10.8391C15.0834 11.1048 14.6851 11.1048 14.6851 10.8391C14.6851 10.5733 15.0834 10.5733 15.0834 10.8391Z" fill="black"/>
<path d="M11.9931 10.8664C11.9931 11.1322 11.5947 11.1322 11.5947 10.8664C11.5947 10.6007 11.9931 10.6007 11.9931 10.8664Z" fill="black"/>
<path d="M13.789 8.19931C13.789 8.46506 13.3906 8.46506 13.3906 8.19931C13.3906 7.93356 13.789 7.93356 13.789 8.19931Z" fill="black"/>
<path d="M14.1581 9.08212C14.1581 9.34787 13.7598 9.34787 13.7598 9.08212C13.7598 8.81638 14.1581 8.81638 14.1581 9.08212Z" fill="black"/>
<path d="M14.9233 8.45786C14.9233 8.7236 14.5249 8.7236 14.5249 8.45786C14.5249 8.19211 14.9233 8.19211 14.9233 8.45786Z" fill="black"/>
<path d="M15.7763 8.40683C15.7763 8.67258 15.3779 8.67258 15.3779 8.40683C15.3779 8.14108 15.7763 8.14108 15.7763 8.40683Z" fill="black"/>
<path d="M10.5087 10.6028C10.5087 10.8685 10.1104 10.8685 10.1104 10.6028C10.1104 10.337 10.5087 10.337 10.5087 10.6028Z" fill="black"/>
<path d="M10.3095 11.2144C10.3095 11.4802 9.91113 11.4802 9.91113 11.2144C9.91113 10.9487 10.3095 10.9487 10.3095 11.2144Z" fill="black"/>
<path d="M10.4272 11.9174C10.4272 12.1832 10.0288 12.1832 10.0288 11.9174C10.0288 11.6517 10.4272 11.6517 10.4272 11.9174Z" fill="black"/>
<path d="M11.2226 11.7716C11.2226 12.0373 10.8242 12.0373 10.8242 11.7716C10.8242 11.5058 11.2226 11.5058 11.2226 11.7716Z" fill="black"/>
<path d="M11.5624 12.4901C11.5624 12.7558 11.1641 12.7558 11.1641 12.4901C11.1641 12.2243 11.5624 12.2243 11.5624 12.4901Z" fill="black"/>
<path d="M12.4531 12.2124C12.4531 12.4781 12.0547 12.4781 12.0547 12.2124C12.0547 11.9466 12.4531 11.9466 12.4531 12.2124Z" fill="black"/>
<path d="M15.2558 9.89975C15.2558 10.1655 14.8574 10.1655 14.8574 9.89975C14.8574 9.634 15.2558 9.634 15.2558 9.89975Z" fill="black"/>
<path d="M9.36713 11.1013C9.36713 11.367 8.96875 11.367 8.96875 11.1013C8.96875 10.836 9.36713 10.836 9.36713 11.1013Z" fill="black"/>
<path d="M9.1684 11.7271C9.1684 11.9929 8.77002 11.9929 8.77002 11.7271C8.77002 11.4619 9.1684 11.4619 9.1684 11.7271Z" fill="black"/>
<path d="M13.0703 11.7503C13.0703 12.0161 12.6719 12.0161 12.6719 11.7503C12.6719 11.4851 13.0703 11.4851 13.0703 11.7503Z" fill="black"/>
<path d="M8.76952 11.0423C8.76952 11.2295 8.48926 11.2295 8.48926 11.0423C8.48926 10.8557 8.76952 10.8557 8.76952 11.0423Z" fill="black"/>
<path d="M15.5854 11.015C15.5854 11.2022 15.3052 11.2022 15.3052 11.015C15.3052 10.8283 15.5854 10.8283 15.5854 11.015Z" fill="black"/>
<path d="M14.6489 9.47814C14.6489 9.66531 14.3687 9.66531 14.3687 9.47814C14.3687 9.29147 14.6489 9.29147 14.6489 9.47814Z" fill="black"/>
<path d="M13.0522 12.4117C13.0522 12.5989 12.772 12.5989 12.772 12.4117C12.772 12.2251 13.0522 12.2251 13.0522 12.4117Z" fill="black"/>
<path d="M13.5312 9.64684C13.5312 9.83401 13.251 9.83401 13.251 9.64684C13.251 9.46017 13.5312 9.46017 13.5312 9.64684Z" fill="black"/>
<path d="M9.10058 12.5105C9.10058 12.6972 8.82031 12.6972 8.82031 12.5105C8.82031 12.3233 9.10058 12.3233 9.10058 12.5105Z" fill="black"/>
<path d="M9.3081 13.378C9.3081 13.5647 9.02783 13.5647 9.02783 13.378C9.02783 13.1909 9.3081 13.1909 9.3081 13.378Z" fill="black"/>
<path d="M15.1377 13.0472C15.1377 13.2339 14.8574 13.2339 14.8574 13.0472C14.8574 12.8601 15.1377 12.8601 15.1377 13.0472Z" fill="black"/>
<path d="M8.80322 10.3392C8.80322 10.5259 8.52246 10.5259 8.52246 10.3392C8.52246 10.1521 8.80322 10.1521 8.80322 10.3392Z" fill="black"/>
<path d="M9.68017 12.09C9.68017 12.2766 9.3999 12.2766 9.3999 12.09C9.3999 11.9028 9.68017 11.9028 9.68017 12.09Z" fill="black"/>
<path d="M16.8183 13.3271C16.8183 13.5143 16.5381 13.5143 16.5381 13.3271C16.5381 13.1405 16.8183 13.1405 16.8183 13.3271Z" fill="black"/>
<path d="M15.9165 13.9264C15.9165 14.1136 15.6362 14.1136 15.6362 13.9264C15.6362 13.7397 15.9165 13.7397 15.9165 13.9264Z" fill="black"/>
<path d="M12.7334 14.2067C12.7334 14.3938 12.4531 14.3938 12.4531 14.2067C12.4531 14.02 12.7334 14.02 12.7334 14.2067Z" fill="black"/>
<path d="M12.1333 13.2374C12.1333 13.4246 11.853 13.4246 11.853 13.2374C11.853 13.0507 12.1333 13.0507 12.1333 13.2374Z" fill="black"/>
<path d="M14.1807 13.4629C14.1807 13.6501 13.9004 13.6501 13.9004 13.4629C13.9004 13.2762 14.1807 13.2762 14.1807 13.4629Z" fill="black"/>
<path d="M5.86571 15.3433C5.86571 15.5304 5.58545 15.5304 5.58545 15.3433C5.58545 15.1566 5.86571 15.1566 5.86571 15.3433Z" fill="black"/>
<path d="M10.0034 10.6199C10.0034 10.8065 9.72266 10.8065 9.72266 10.6199C9.72266 10.4327 10.0034 10.4327 10.0034 10.6199Z" fill="black"/>
<path d="M14.7246 11.42C14.7246 11.6072 14.4438 11.6072 14.4438 11.42C14.4438 11.2329 14.7246 11.2329 14.7246 11.42Z" fill="black"/>
<path d="M13.8223 11.7009C13.8223 11.8881 13.5415 11.8881 13.5415 11.7009C13.5415 11.5138 13.8223 11.5138 13.8223 11.7009Z" fill="black"/>
<path d="M13.0137 10.1393C13.0137 10.3265 12.7329 10.3265 12.7329 10.1393C12.7329 9.95211 13.0137 9.95211 13.0137 10.1393Z" fill="black"/>
<path d="M14.2676 10.1875C14.2676 10.3747 13.9868 10.3747 13.9868 10.1875C13.9868 10.0003 14.2676 10.0003 14.2676 10.1875Z" fill="black"/>
<path d="M16.0171 10.2352C16.0171 10.4224 15.7363 10.4224 15.7363 10.2352C15.7363 10.0481 16.0171 10.0481 16.0171 10.2352Z" fill="black"/>
<path d="M19.9751 14.6095C19.9751 14.7967 19.6943 14.7967 19.6943 14.6095C19.6943 14.4223 19.9751 14.4223 19.9751 14.6095Z" fill="black"/>
<path d="M16.2891 10.7837C16.2891 10.9709 16.0083 10.9709 16.0083 10.7837C16.0083 10.5965 16.2891 10.5965 16.2891 10.7837Z" fill="black"/>
<path d="M16.0571 11.5723C16.0571 11.7594 15.7764 11.7594 15.7764 11.5723C15.7764 11.3851 16.0571 11.3851 16.0571 11.5723Z" fill="black"/>
<path d="M7.98291 10.2797C7.98291 10.4668 7.70215 10.4668 7.70215 10.2797C7.70215 10.0925 7.98291 10.0925 7.98291 10.2797Z" fill="black"/>
<path d="M10.7686 14.1373C10.7686 14.3245 10.4878 14.3245 10.4878 14.1373C10.4878 13.9502 10.7686 13.9502 10.7686 14.1373Z" fill="black"/>
<path d="M10.9766 11.1553C10.9766 11.3424 10.6958 11.3424 10.6958 11.1553C10.6958 10.9681 10.9766 10.9681 10.9766 11.1553Z" fill="black"/>
<path d="M11.1177 10.6313C11.1177 10.8185 10.8369 10.8185 10.8369 10.6313C10.8369 10.4442 11.1177 10.4442 11.1177 10.6313Z" fill="black"/>
<path d="M11.3628 10.2069C11.3628 10.3941 11.082 10.3941 11.082 10.2069C11.082 10.0197 11.3628 10.0197 11.3628 10.2069Z" fill="black"/>
<path d="M12.3355 10.1064C12.3355 10.2936 12.0547 10.2936 12.0547 10.1064C12.0547 9.91927 12.3355 9.91927 12.3355 10.1064Z" fill="black"/>
<path d="M13.8999 10.9402C13.8999 11.1274 13.6191 11.1274 13.6191 10.9402C13.6191 10.753 13.8999 10.753 13.8999 10.9402Z" fill="black"/>
<path d="M13.8225 12.5171C13.8225 12.8321 13.3486 12.8321 13.3486 12.5171C13.3486 12.2012 13.8225 12.2012 13.8225 12.5171Z" fill="black"/>
<path d="M10.9084 12.5676C10.9084 12.8826 10.4346 12.8826 10.4346 12.5676C10.4346 12.2517 10.9084 12.2517 10.9084 12.5676Z" fill="black"/>
<path d="M9.958 12.6506C9.958 12.8373 9.67773 12.8373 9.67773 12.6506C9.67773 12.4635 9.958 12.4635 9.958 12.6506Z" fill="black"/>
<path d="M14.439 12.1396C14.439 12.3268 14.1582 12.3268 14.1582 12.1396C14.1582 11.9525 14.439 11.9525 14.439 12.1396Z" fill="black"/>
<path d="M13.5024 10.6029C13.5024 10.7901 13.2217 10.7901 13.2217 10.6029C13.2217 10.4157 13.5024 10.4157 13.5024 10.6029Z" fill="black"/>
<path d="M12.3843 10.7717C12.3843 10.9589 12.1035 10.9589 12.1035 10.7717C12.1035 10.5846 12.3843 10.5846 12.3843 10.7717Z" fill="black"/>
<path d="M9.20116 10.3392C9.20116 10.5259 8.9209 10.5259 8.9209 10.3392C8.9209 10.1521 9.20116 10.1521 9.20116 10.3392Z" fill="black"/>
<path d="M8.52197 11.8306C8.52197 12.0177 8.24121 12.0177 8.24121 11.8306C8.24121 11.6439 8.52197 11.6439 8.52197 11.8306Z" fill="black"/>
<path d="M15.3379 11.8031C15.3379 11.9903 15.0571 11.9903 15.0571 11.8031C15.0571 11.6164 15.3379 11.6164 15.3379 11.8031Z" fill="black"/>
<path d="M6.20463 10.4463C6.42704 10.5917 6.64508 10.2583 6.42267 10.1129C6.20026 9.96742 5.98222 10.3008 6.20463 10.4463Z" fill="black"/>
<path d="M7.0225 9.92345C7.24491 10.0689 7.46295 9.73549 7.24054 9.59004C7.01813 9.44459 6.80009 9.77801 7.0225 9.92345Z" fill="black"/>
<path d="M9.05881 14.5089C9.28121 14.6544 9.49926 14.321 9.27685 14.1755C9.05485 14.0304 8.83681 14.3638 9.05881 14.5089Z" fill="black"/>
<path d="M6.93665 8.87191C7.0933 8.97435 7.24696 8.73937 7.09032 8.63693C6.93409 8.53476 6.78042 8.76974 6.93665 8.87191Z" fill="black"/>
<path d="M7.99751 9.1381C8.15374 9.24027 8.30741 9.00529 8.15118 8.90313C7.99453 8.80068 7.84086 9.03566 7.99751 9.1381Z" fill="black"/>
<path d="M6.97181 10.6395C7.12845 10.7419 7.28212 10.507 7.12547 10.4045C6.96924 10.3023 6.81558 10.5373 6.97181 10.6395Z" fill="black"/>
<path d="M5.70179 10.7608C5.85843 10.8633 6.0121 10.6283 5.85545 10.5258C5.69922 10.4237 5.54556 10.6587 5.70179 10.7608Z" fill="black"/>
<path d="M6.43692 9.63711C6.59357 9.73956 6.74696 9.505 6.59032 9.40255C6.43409 9.30039 6.28069 9.53494 6.43692 9.63711Z" fill="black"/>
<path d="M7.62561 8.71834C7.78226 8.82078 7.93593 8.58581 7.77928 8.48337C7.62305 8.3812 7.46938 8.61617 7.62561 8.71834Z" fill="black"/>
<path d="M13.1567 8.99181C12.9343 9.13726 12.7163 8.80385 12.9387 8.6584C13.1611 8.51295 13.3791 8.84637 13.1567 8.99181Z" fill="black"/>
<path d="M19.1863 15.9276C18.9639 16.0731 18.7459 15.7397 18.9683 15.5942C19.1903 15.4491 19.4083 15.7825 19.1863 15.9276Z" fill="black"/>
<path d="M18.0476 14.5843C17.8914 14.6865 17.738 14.452 17.8942 14.3498C18.0509 14.2473 18.2043 14.4819 18.0476 14.5843Z" fill="black"/>
<path d="M17.0738 13.9442C16.9172 14.0467 16.7638 13.8121 16.9204 13.7097C17.0767 13.6075 17.23 13.8421 17.0738 13.9442Z" fill="black"/>
<path d="M15.6385 12.7329C15.4819 12.8353 15.3282 12.6003 15.4849 12.4979C15.6411 12.3957 15.7948 12.6307 15.6385 12.7329Z" fill="black"/>
<path d="M11.234 15.1206C11.0777 15.2228 10.9244 14.9882 11.0806 14.8861C11.2368 14.7839 11.3902 15.0185 11.234 15.1206Z" fill="black"/>
<path d="M16.1392 13.4982C15.9826 13.6006 15.8292 13.3661 15.9859 13.2636C16.1421 13.1615 16.2955 13.396 16.1392 13.4982Z" fill="black"/>
<path d="M14.3518 13.9971C14.3518 14.2372 14.7124 14.2372 14.7124 13.9971C14.7124 13.7565 14.3518 13.7565 14.3518 13.9971Z" fill="black"/>
<path d="M16.716 8.9965C16.716 9.23707 17.0767 9.23707 17.0767 8.9965C17.0767 8.75638 16.716 8.75638 16.716 8.9965Z" fill="black"/>
<path d="M16.8967 9.56315C16.8967 9.80372 17.2573 9.80372 17.2573 9.56315C17.2573 9.32303 16.8967 9.32303 16.8967 9.56315Z" fill="black"/>
<path d="M17.2575 8.94315C17.2575 9.11259 17.5112 9.11259 17.5112 8.94315C17.5112 8.77416 17.2575 8.77416 17.2575 8.94315Z" fill="black"/>
<path d="M17.2273 8.30689C17.2273 8.47588 17.4814 8.47588 17.4814 8.30689C17.4814 8.13745 17.2273 8.13745 17.2273 8.30689Z" fill="black"/>
<path d="M16.4328 9.89161C16.4328 10.0606 16.6865 10.0606 16.6865 9.89161C16.6865 9.72217 16.4328 9.72217 16.4328 9.89161Z" fill="black"/>
<path d="M13.883 14.3043C13.883 14.4738 14.1367 14.4738 14.1367 14.3043C14.1367 14.1349 13.883 14.1349 13.883 14.3043Z" fill="black"/>
<path d="M13.5881 15.0897C13.5881 15.2587 13.8423 15.2587 13.8423 15.0897C13.8423 14.9203 13.5881 14.9203 13.5881 15.0897Z" fill="black"/>
<path d="M16.0022 15.2167C16.0022 15.3857 16.2563 15.3857 16.2563 15.2167C16.2563 15.0472 16.0022 15.0472 16.0022 15.2167Z" fill="black"/>
<path d="M16.8664 8.30689C16.8664 8.47588 17.1201 8.47588 17.1201 8.30689C17.1201 8.13745 16.8664 8.13745 16.8664 8.30689Z" fill="black"/>
<path d="M17.4812 9.65677C17.4812 9.82621 17.7354 9.82621 17.7354 9.65677C17.7354 9.48778 17.4812 9.48778 17.4812 9.65677Z" fill="black"/>
<path d="M21.9257 16.6982H2.62061L5.86236 6.28284H18.8061L21.9257 16.6982Z" stroke="black" stroke-width="0.5" stroke-linejoin="round"/>
<line x1="2.17578" y1="15.8467" x2="2.17578" y2="17.5498" stroke="black" stroke-width="0.5" stroke-linecap="round"/>
<line x1="6.17578" y1="15.8467" x2="6.17578" y2="17.5498" stroke="black" stroke-width="0.5" stroke-linecap="round"/>
<line x1="5.77881" y1="5.48242" x2="5.77881" y2="7.18555" stroke="black" stroke-width="0.5" stroke-linecap="round"/>
<line x1="18.7451" y1="5.43127" x2="18.7451" y2="7.1344" stroke="black" stroke-width="0.5" stroke-linecap="round"/>
<line x1="10.1758" y1="15.8467" x2="10.1758" y2="17.5498" stroke="black" stroke-width="0.5" stroke-linecap="round"/>
<line x1="14.1758" y1="15.8467" x2="14.1758" y2="17.5498" stroke="black" stroke-width="0.5" stroke-linecap="round"/>
<line x1="18.1758" y1="15.8467" x2="18.1758" y2="17.5498" stroke="black" stroke-width="0.5" stroke-linecap="round"/>
<line x1="22.1758" y1="15.8467" x2="22.1758" y2="17.5498" stroke="black" stroke-width="0.5" stroke-linecap="round"/>
</svg>
