<svg width="24" height="24" viewBox="0 0 24 24" fill="none" xmlns="http://www.w3.org/2000/svg">
<path fill-rule="evenodd" clip-rule="evenodd" d="M17.4303 6.564C16.0665 5.20021 14.1828 4.35718 12.102 4.35718C10.0214 4.35718 8.13754 5.20099 6.77371 6.564C5.40992 7.92778 4.56689 9.8115 4.56689 11.8923C4.56689 12.6161 4.66843 13.3145 4.85842 13.976C5.05303 14.6537 5.33917 15.2914 5.70301 15.8744C5.77377 15.9744 5.79454 16.1075 5.74454 16.2298L4.3623 19.6427L8.81906 18.7558C8.89137 18.7412 8.96906 18.7497 9.04136 18.782C9.51364 18.992 10.0136 19.1558 10.5351 19.2658C11.039 19.3727 11.5628 19.4289 12.1027 19.4289C14.1833 19.4289 16.0672 18.585 17.431 17.222C18.7948 15.8583 19.6379 13.9745 19.6379 11.8937C19.6371 9.81157 18.7933 7.92763 17.4303 6.564Z" fill="black"/>
<path fill-rule="evenodd" clip-rule="evenodd" d="M16.9768 7.07274C15.7269 5.82364 14.0005 5.05151 12.0934 5.05151C10.1866 5.05151 8.45999 5.82436 7.21004 7.07274C5.96014 8.32183 5.1875 10.0471 5.1875 11.9529C5.1875 12.6159 5.28056 13.2556 5.45469 13.8614C5.63305 14.4821 5.89529 15.0661 6.22875 15.6001C6.29361 15.6917 6.31264 15.8136 6.26682 15.9256L5 19.0515L9.0846 18.2392C9.15087 18.2258 9.22207 18.2336 9.28834 18.2632C9.72118 18.4555 10.1794 18.6056 10.6574 18.7063C11.1191 18.8042 11.5992 18.8557 12.0941 18.8557C14.0009 18.8557 15.7275 18.0828 16.9775 16.8344C18.2274 15.5853 19 13.86 19 11.9542C18.9993 10.0472 18.226 8.32168 16.9768 7.07274Z" fill="#386431"/>
<circle cx="12.0002" cy="11.9999" r="5.23602" fill="white"/>
<path d="M10.0542 12.6518L12.1626 9L14.7607 10.5L12.6523 14.1518L10.2991 15.2277L10.0542 12.6518Z" stroke="black" stroke-width="0.6" stroke-linecap="round" stroke-linejoin="round"/>
</svg>
