<svg width="140" height="140" viewBox="0 0 140 140" fill="none" xmlns="http://www.w3.org/2000/svg">
<path d="M30.2258 37.3655L25.217 33.184L24.9635 34.876L23.999 34.0708L24.265 32.3891L25.001 31.5074L30.9619 36.4838L30.2258 37.3655Z" fill="#444849"/>
<path d="M42.6085 29.4082L41.9135 26.2142L42.4131 26.97L36.9169 23.0583L37.9089 22.4277L42.0999 25.4822L41.8087 25.6674L40.7485 20.6225L41.7133 20.0092L43.5141 28.8325L42.6085 29.4082Z" fill="#444849"/>
<path d="M48.1532 23.441C47.6303 23.6892 47.1168 23.7937 46.6127 23.7545C46.1103 23.7105 45.6515 23.5363 45.2364 23.2319C44.823 22.9228 44.4876 22.4971 44.2301 21.9547C43.9572 21.3799 43.8277 20.8306 43.8416 20.3066C43.8588 19.7811 44.0058 19.3114 44.2828 18.8973C44.5598 18.4833 44.9548 18.1544 45.468 17.9108C46.0038 17.6564 46.5194 17.5648 47.0149 17.636C47.5088 17.704 47.957 17.923 48.3595 18.293C48.7652 18.6615 49.0982 19.17 49.3583 19.8185L48.3402 20.3019L48.1644 19.9316C47.8681 19.3242 47.5369 18.9283 47.1708 18.7439C46.8079 18.5581 46.3959 18.5746 45.9348 18.7935C45.4249 19.0356 45.118 19.3783 45.0141 19.8216C44.9102 20.2649 45.0024 20.7902 45.2907 21.3975C45.5652 21.9755 45.9062 22.3628 46.3139 22.5592C46.72 22.7524 47.165 22.7342 47.6489 22.5044C47.9671 22.3533 48.2076 22.1516 48.3703 21.8993C48.5348 21.6421 48.618 21.3479 48.6199 21.0167L49.7688 20.8592C49.7878 21.4273 49.6511 21.9398 49.3588 22.397C49.0649 22.8509 48.663 23.1989 48.1532 23.441ZM45.0959 21.8421L44.719 21.0481L48.4747 19.265L48.8517 20.059L45.0959 21.8421Z" fill="#444849"/>
<path d="M53.4545 21.2396C53.0453 21.3761 52.6775 21.4153 52.3512 21.3574C52.0238 21.296 51.747 21.1647 51.5208 20.9635C51.2968 20.7578 51.1348 20.5049 51.0347 20.2048C50.9415 19.9251 50.909 19.6631 50.9374 19.4187C50.9658 19.1742 51.0528 18.9463 51.1983 18.7348C51.3426 18.52 51.541 18.3193 51.7934 18.1328C52.015 17.9794 52.2719 17.8236 52.5641 17.6656C52.8562 17.5075 53.1649 17.3478 53.49 17.1863C53.8185 17.0237 54.1436 16.8623 54.4653 16.7019L54.1482 17.0464C54.0106 16.611 53.8116 16.3212 53.5513 16.1768C53.2932 16.0279 52.934 16.0302 52.4736 16.1837C52.1837 16.2804 51.9404 16.4373 51.7438 16.6544C51.546 16.8682 51.4511 17.1461 51.4591 17.4883L50.3592 17.514C50.3376 16.9944 50.4711 16.5312 50.7598 16.1242C51.052 15.716 51.5169 15.4056 52.1546 15.193C52.6491 15.0281 53.1073 14.9701 53.529 15.019C53.9531 15.0633 54.3112 15.2394 54.6034 15.5475C54.7523 15.6987 54.8705 15.8715 54.9581 16.0658C55.0456 16.2602 55.1281 16.4734 55.2054 16.7053L56.3397 20.1071L55.3933 20.4227L54.972 19.1591L55.2107 19.2614C55.1232 19.7605 54.9368 20.1732 54.6515 20.4995C54.3685 20.8212 53.9695 21.0679 53.4545 21.2396ZM53.3521 20.3018C53.6556 20.2006 53.8989 20.0607 54.0819 19.8822C54.2638 19.7003 54.3934 19.5036 54.4707 19.2922C54.548 19.0807 54.5769 18.8778 54.5576 18.6834C54.561 18.5004 54.532 18.3054 54.4706 18.0985C54.4126 17.8905 54.3631 17.7251 54.3222 17.6023L54.7127 17.6142C54.3921 17.7779 54.1005 17.9263 53.8379 18.0594C53.5753 18.1924 53.3383 18.3169 53.1269 18.4329C52.9177 18.5443 52.7353 18.6563 52.5795 18.7688C52.4499 18.8689 52.3391 18.974 52.247 19.0843C52.1584 19.1935 52.097 19.3106 52.0629 19.4356C52.0322 19.5595 52.0413 19.6948 52.0902 19.8415C52.138 19.9847 52.2181 20.1058 52.3307 20.2047C52.4421 20.3001 52.5831 20.3592 52.7536 20.382C52.9241 20.4047 53.1236 20.378 53.3521 20.3018Z" fill="#444849"/>
<path d="M57.7897 19.7393L56.5205 14.0555L57.4994 13.8369L57.8073 15.2158L57.6305 15.0674C57.6599 14.8693 57.7139 14.6823 57.7925 14.5063C57.8703 14.3269 57.9719 14.1716 58.0974 14.0404C58.2177 13.9031 58.3593 13.7867 58.5222 13.6914C58.6878 13.5918 58.8624 13.516 59.046 13.4639C59.2289 13.4084 59.4098 13.3772 59.5887 13.3704L59.819 14.4019C59.6221 14.3943 59.412 14.4265 59.1886 14.4985C58.9688 14.5697 58.7779 14.6878 58.6158 14.8529C58.4627 15.0086 58.352 15.1807 58.2835 15.3691C58.2186 15.5567 58.1861 15.7574 58.1859 15.9711C58.1849 16.1812 58.2095 16.3986 58.2597 16.6231L58.9001 19.4914L57.7897 19.7393Z" fill="#444849"/>
<path d="M67.9187 20.9553C67.6064 20.9717 67.3005 20.9392 67.001 20.8577C66.7051 20.7761 66.4319 20.6464 66.1814 20.4688C65.9311 20.2948 65.7196 20.0737 65.5472 19.8055L66.5588 19.2232C66.6974 19.4643 66.8864 19.6362 67.1258 19.7388C67.3652 19.8415 67.6141 19.886 67.8726 19.8724C68.1921 19.8556 68.4619 19.7838 68.6821 19.6571C68.9024 19.5339 69.0641 19.3562 69.1671 19.124C69.2737 18.8916 69.3164 18.6086 69.2953 18.2749L69.2098 16.6487L69.3445 16.6416L69.1168 12.3067L70.113 12.2544L70.4267 18.2263C70.4348 18.3807 70.4371 18.5281 70.4337 18.6687C70.4303 18.8093 70.4179 18.9503 70.3965 19.0919C70.3345 19.4875 70.1935 19.8189 69.9736 20.086C69.7572 20.353 69.4728 20.5587 69.1204 20.7032C68.7716 20.8476 68.371 20.9316 67.9187 20.9553ZM67.6968 18.3751C67.1547 18.4036 66.6791 18.2935 66.2701 18.045C65.8646 17.7963 65.542 17.4461 65.3023 16.9943C65.066 16.5387 64.9326 16.0201 64.902 15.4386C64.8713 14.8534 64.9516 14.3254 65.1428 13.8546C65.3339 13.3801 65.6199 12.9997 66.0009 12.7133C66.3852 12.4232 66.8502 12.2637 67.3959 12.2351C67.9452 12.2062 68.4135 12.3166 68.801 12.5663C69.1919 12.8121 69.4947 13.1616 69.7093 13.6147C69.9275 14.0677 70.0518 14.5849 70.0824 15.1665C70.1129 15.7481 70.0434 16.2755 69.8739 16.7488C69.7043 17.2221 69.4383 17.605 69.0756 17.8977C68.7128 18.1867 68.2532 18.3459 67.6968 18.3751ZM67.7995 17.3491C68.1692 17.3297 68.4662 17.2259 68.6903 17.0377C68.9144 16.8496 69.0722 16.5983 69.1637 16.2839C69.2552 15.9695 69.2904 15.6113 69.2692 15.2092C69.2481 14.8071 69.1738 14.4546 69.0463 14.1517C68.9224 13.8486 68.741 13.617 68.5022 13.4567C68.267 13.2963 67.9735 13.2253 67.6217 13.2438C67.2483 13.2634 66.9462 13.3711 66.7153 13.5668C66.4843 13.7625 66.3178 14.0178 66.2155 14.3328C66.1168 14.6476 66.0775 14.9952 66.0975 15.3758C66.1177 15.7599 66.1934 16.1051 66.3247 16.4114C66.4594 16.7139 66.6482 16.9506 66.8912 17.1214C67.1377 17.2921 67.4405 17.368 67.7995 17.3491Z" fill="#444849"/>
<path d="M74.263 18.3835C73.8615 18.3532 73.5294 18.2633 73.2667 18.1137C73.004 17.9641 72.7945 17.7788 72.6381 17.5579C72.4855 17.3337 72.3738 17.0945 72.3029 16.8404C72.2319 16.5863 72.1892 16.3397 72.1748 16.1007C72.1604 15.8617 72.16 15.6526 72.1735 15.4733L72.417 12.2471L73.5569 12.3331L73.3414 15.1883C73.3244 15.4142 73.3247 15.6485 73.3425 15.8914C73.364 16.131 73.4191 16.3568 73.5076 16.569C73.5998 16.7815 73.7361 16.9576 73.9166 17.0974C74.1007 17.2375 74.3469 17.3191 74.6552 17.3424C74.8559 17.3575 75.0484 17.3396 75.2325 17.2886C75.4169 17.234 75.5809 17.1383 75.7246 17.0013C75.8719 16.8646 75.9923 16.679 76.0857 16.4445C76.1827 16.2103 76.2442 15.9211 76.2701 15.577L76.9493 15.8932C76.9095 16.4202 76.7758 16.8787 76.548 17.2689C76.3206 17.6555 76.0137 17.9478 75.6274 18.1458C75.2412 18.3438 74.7864 18.423 74.263 18.3835ZM76.1944 18.3725L76.321 16.6948L76.1866 16.6847L76.4982 12.555L77.6328 12.6407L77.1945 18.4479L76.1944 18.3725Z" fill="#444849"/>
<path d="M80.3615 19.1451C79.9384 19.0606 79.5996 18.9124 79.345 18.7002C79.0912 18.4846 78.9159 18.2333 78.8192 17.9464C78.7267 17.6567 78.7115 17.3567 78.7734 17.0464C78.8311 16.7574 78.9329 16.5137 79.0788 16.3156C79.2246 16.1174 79.4132 15.9626 79.6444 15.8511C79.8763 15.7361 80.1481 15.6602 80.4597 15.6235C80.7283 15.6001 81.0286 15.5923 81.3607 15.5999C81.6928 15.6075 82.04 15.6219 82.4024 15.6429C82.7683 15.6646 83.1307 15.6856 83.4895 15.706L83.0433 15.8478C83.1397 15.4015 83.1107 15.0511 82.9562 14.7967C82.806 14.5394 82.4929 14.3632 82.017 14.2682C81.7173 14.2084 81.4282 14.224 81.1498 14.3151C80.872 14.4026 80.6518 14.5969 80.489 14.898L79.5212 14.3748C79.76 13.913 80.1057 13.5769 80.5583 13.3667C81.0144 13.1571 81.572 13.1181 82.2313 13.2497C82.7425 13.3518 83.1691 13.5286 83.5111 13.7802C83.8573 14.0289 84.0809 14.3595 84.1819 14.7719C84.2363 14.9771 84.2533 15.1857 84.2329 15.398C84.2125 15.6102 84.1784 15.8362 84.1305 16.0759L83.4285 19.5924L82.4502 19.3971L82.711 18.091L82.8676 18.2982C82.5441 18.6882 82.1776 18.9541 81.768 19.096C81.3627 19.235 80.8938 19.2514 80.3615 19.1451ZM80.7377 18.2799C81.0514 18.3425 81.332 18.3417 81.5795 18.2775C81.8276 18.2097 82.0377 18.1032 82.2097 17.9579C82.3816 17.8126 82.5074 17.6508 82.587 17.4724C82.6807 17.3151 82.7522 17.1314 82.8015 16.9213C82.8543 16.7119 82.8934 16.5437 82.9187 16.4168L83.2519 16.6208C82.8923 16.604 82.5656 16.5883 82.2716 16.5736C81.9776 16.5589 81.71 16.5494 81.4689 16.5453C81.232 16.5383 81.018 16.5451 80.827 16.5656C80.6648 16.5882 80.5164 16.6246 80.3818 16.6747C80.2507 16.7255 80.1393 16.7967 80.0477 16.8884C79.9596 16.9808 79.9004 17.1028 79.8701 17.2544C79.8406 17.4025 79.8501 17.5473 79.8988 17.689C79.9482 17.8272 80.0414 17.9484 80.1782 18.0527C80.315 18.157 80.5015 18.2328 80.7377 18.2799Z" fill="#444849"/>
<path d="M84.837 19.9889L86.567 14.428L87.5247 14.726L87.1051 16.075L87.0256 15.8583C87.1498 15.7012 87.2898 15.5659 87.4456 15.4525C87.6024 15.3356 87.7679 15.2515 87.9419 15.2003C88.1147 15.1411 88.2955 15.1107 88.4842 15.1092C88.6774 15.1053 88.8666 15.1265 89.0517 15.1728C89.2379 15.2157 89.4103 15.2787 89.5689 15.362L89.2549 16.3712C89.0879 16.2665 88.8897 16.1898 88.6601 16.1409C88.4341 16.0932 88.2096 16.1005 87.9869 16.163C87.7766 16.2218 87.5948 16.3159 87.4417 16.4452C87.2919 16.5755 87.1638 16.7333 87.0572 16.9185C86.9517 17.1003 86.8648 17.3011 86.7965 17.5207L85.9234 20.3269L84.837 19.9889Z" fill="#444849"/>
<path d="M90.4911 22.1081C90.0938 21.9401 89.7918 21.7266 89.5852 21.4676C89.3799 21.2052 89.2588 20.9238 89.2219 20.6232C89.1897 20.3208 89.2352 20.0239 89.3583 19.7325C89.4731 19.461 89.6219 19.2429 89.8047 19.0782C89.9875 18.9134 90.2033 18.7998 90.4523 18.7372C90.7026 18.6712 90.9841 18.6516 91.2967 18.6784C91.5645 18.7096 91.8603 18.7624 92.184 18.8368C92.5077 18.9112 92.8449 18.9951 93.1957 19.0887C93.5497 19.1837 93.9004 19.2773 94.2478 19.3695L93.7822 19.4186C93.9665 19.0008 94.0087 18.6518 93.9086 18.3714C93.8133 18.0891 93.5421 17.8535 93.095 17.6646C92.8136 17.5456 92.5273 17.5027 92.2362 17.5358C91.9465 17.5656 91.6917 17.7115 91.4716 17.9737L90.629 17.2663C90.956 16.862 91.3623 16.6025 91.8479 16.4877C92.3368 16.3743 92.8909 16.4485 93.5101 16.7102C93.9903 16.9131 94.3725 17.1722 94.6569 17.4875C94.9459 17.8009 95.0983 18.1698 95.1142 18.5941C95.1261 18.8059 95.1007 19.0138 95.038 19.2175C94.9753 19.4213 94.8964 19.6358 94.8012 19.8609L93.4052 23.164L92.4863 22.7756L93.0048 21.5488L93.1164 21.7833C92.721 22.1002 92.3085 22.2868 91.8787 22.3432C91.4537 22.3978 90.9912 22.3194 90.4911 22.1081ZM91.0339 21.3364C91.3286 21.4609 91.6036 21.5167 91.8589 21.5036C92.1156 21.4872 92.3428 21.4251 92.5406 21.3175C92.7383 21.2098 92.8941 21.0766 93.008 20.9179C93.1315 20.7827 93.2385 20.6172 93.3291 20.4213C93.423 20.2269 93.4951 20.07 93.5455 19.9508L93.8308 20.2177C93.482 20.1288 93.1651 20.0476 92.8801 19.974C92.5951 19.9004 92.3349 19.8372 92.0995 19.7846C91.8689 19.7301 91.658 19.6936 91.4667 19.6752C91.3033 19.6647 91.1506 19.6704 91.0086 19.6924C90.87 19.7157 90.7465 19.7631 90.6383 19.8344C90.5334 19.9072 90.4509 20.0147 90.3907 20.1571C90.3319 20.2962 90.3121 20.44 90.3313 20.5886C90.3518 20.7339 90.4186 20.8714 90.5316 21.0011C90.6446 21.1309 90.812 21.2426 91.0339 21.3364Z" fill="#444849"/>
<path d="M98.1792 25.8053L99.6169 23.329C99.7306 23.1331 99.8299 22.9227 99.9148 22.6976C100.005 22.4713 100.054 22.2424 100.064 22.0111C100.077 21.7815 100.031 21.5636 99.926 21.3573C99.8244 21.1528 99.6399 20.973 99.3726 20.8178C99.1984 20.7167 99.0165 20.6506 98.8268 20.6194C98.6388 20.5851 98.4488 20.5974 98.2567 20.6563C98.0676 20.717 97.8784 20.8316 97.6891 21.0002C97.5029 21.1706 97.3232 21.405 97.1499 21.7035L96.6763 21.123C96.9416 20.666 97.2608 20.313 97.634 20.0641C98.0089 19.812 98.4134 19.681 98.8473 19.6711C99.2813 19.6611 99.7252 19.7879 100.179 20.0514C100.527 20.2536 100.787 20.4792 100.958 20.7283C101.13 20.9774 101.235 21.2361 101.275 21.5044C101.319 21.7713 101.318 22.0346 101.271 22.2943C101.225 22.5539 101.156 22.7944 101.064 23.0159C100.973 23.2373 100.883 23.4258 100.792 23.5812L99.1679 26.3793L98.1792 25.8053ZM94.6396 23.7504L97.5637 18.7138L98.4357 19.2201L97.591 20.6751L97.7076 20.7428L95.6283 24.3244L94.6396 23.7504Z" fill="#444849"/>
<path d="M103.123 29.2288C102.785 29.0695 102.478 28.8813 102.2 28.6639C101.923 28.4466 101.71 28.2052 101.561 27.9399C101.413 27.6746 101.362 27.3918 101.408 27.0915C101.45 26.8229 101.539 26.5855 101.678 26.3792C101.821 26.1722 101.986 25.9412 102.174 25.6863L105.224 21.537L106.136 22.2077L103.118 26.3136C102.979 26.5019 102.861 26.6666 102.761 26.8077C102.665 26.951 102.609 27.0907 102.594 27.2267C102.566 27.483 102.656 27.7072 102.862 27.8993C103.074 28.0907 103.35 28.2775 103.689 28.4598L103.123 29.2288ZM102.83 22.9093L103.366 22.1793L106.573 24.5364L106.036 25.2663L102.83 22.9093Z" fill="#444849"/>
<path d="M106.361 32.2243C105.937 31.83 105.651 31.3913 105.501 30.9083C105.357 30.4251 105.349 29.9344 105.479 29.4363C105.614 28.938 105.886 28.4692 106.295 28.0297C106.728 27.5639 107.191 27.2408 107.683 27.0604C108.178 26.8824 108.669 26.8457 109.156 26.9504C109.643 27.055 110.094 27.3008 110.51 27.6878C110.944 28.092 111.22 28.5374 111.336 29.0241C111.455 29.5082 111.417 30.0056 111.222 30.5163C111.029 31.0294 110.679 31.5265 110.173 32.0076L109.348 31.2397L109.627 30.9397C110.082 30.4401 110.328 29.9862 110.364 29.5779C110.403 29.1721 110.235 28.7952 109.862 28.4474C109.449 28.0629 109.017 27.9041 108.567 27.9712C108.116 28.0382 107.662 28.3177 107.204 28.8098C106.768 29.2782 106.534 29.7381 106.502 30.1895C106.472 30.6382 106.653 31.045 107.045 31.41C107.303 31.65 107.579 31.7991 107.874 31.8572C108.174 31.9151 108.478 31.8839 108.786 31.7635L109.357 32.7732C108.836 33.0004 108.309 33.0626 107.776 32.9596C107.246 32.8539 106.774 32.6089 106.361 32.2243ZM106.719 28.7929L107.318 28.1495L110.361 30.9821L109.762 31.6255L106.719 28.7929Z" fill="#444849"/>
<path d="M110.957 37.056C110.586 36.6114 110.357 36.1401 110.27 35.642C110.187 35.1445 110.242 34.6568 110.433 34.179C110.63 33.7017 110.959 33.2708 111.42 32.8864C111.909 32.479 112.408 32.2168 112.919 32.0999C113.433 31.9857 113.924 32.0112 114.394 32.1763C114.864 32.3415 115.281 32.6423 115.645 33.0786C116.024 33.5342 116.241 34.0108 116.296 34.5084C116.353 35.0036 116.252 35.4923 115.994 35.9742C115.738 36.4589 115.329 36.908 114.765 37.3214L114.044 36.4556L114.359 36.1932C114.873 35.755 115.174 35.3356 115.262 34.9352C115.351 34.5375 115.233 34.1426 114.906 33.7505C114.545 33.3169 114.136 33.105 113.681 33.1147C113.226 33.1244 112.74 33.3445 112.224 33.7749C111.732 34.1846 111.442 34.6113 111.353 35.0551C111.267 35.4965 111.396 35.9229 111.739 36.3344C111.964 36.605 112.219 36.7877 112.504 36.8825C112.794 36.9777 113.1 36.9851 113.421 36.9045L113.86 37.9781C113.314 38.1378 112.784 38.1331 112.268 37.9637C111.756 37.7921 111.318 37.4895 110.957 37.056ZM111.744 33.697L112.42 33.1342L115.082 36.3278L114.406 36.8906L111.744 33.697Z" fill="#444849"/>
<path d="M34.4305 32.9991C34.1331 33.2769 33.7994 33.4756 33.4295 33.5952C33.0598 33.7096 32.6837 33.7447 32.3013 33.7005C31.9163 33.6536 31.5536 33.5257 31.2132 33.3168L31.8185 32.3453C32.0242 32.4743 32.2408 32.5505 32.4683 32.5738C32.6985 32.5947 32.9211 32.5699 33.1363 32.4994C33.3489 32.4263 33.5356 32.3147 33.6965 32.1645C33.9082 31.9668 34.0523 31.737 34.1287 31.475C34.2078 31.2105 34.2169 30.9462 34.1559 30.6821C34.0976 30.4155 33.9721 30.179 33.7794 29.9726C33.5817 29.7609 33.3505 29.6181 33.0859 29.5442C32.8239 29.4677 32.5595 29.4613 32.2927 29.5247C32.0261 29.5831 31.7896 29.7085 31.5832 29.9012C31.3474 30.1214 31.1915 30.3548 31.1156 30.6012C31.0397 30.8477 31.0137 31.0751 31.0377 31.2834L30.0658 31.7093L27.4013 28.5009L30.5249 25.5844L31.2643 26.3764L28.5709 28.8913L28.6161 28.2546L30.6036 30.6654L30.2399 30.6062C30.25 30.3108 30.3234 30.0241 30.46 29.746C30.5967 29.4679 30.7695 29.2313 30.9786 29.0361C31.3377 28.7008 31.7355 28.4848 32.1721 28.3882C32.6113 28.2891 33.0466 28.3067 33.4778 28.4408C33.9065 28.5722 34.2898 28.8188 34.6276 29.1806C34.9629 29.5398 35.1758 29.9531 35.2661 30.4205C35.3539 30.8853 35.3264 31.3475 35.1835 31.8069C35.0407 32.2664 34.7897 32.6638 34.4305 32.9991Z" fill="#444849"/>
<path d="M105.569 107.059C105.867 106.782 106.201 106.583 106.571 106.463C106.94 106.349 107.316 106.314 107.699 106.358C108.084 106.405 108.446 106.533 108.787 106.742L108.181 107.713C107.976 107.584 107.759 107.508 107.532 107.485C107.302 107.464 107.079 107.489 106.864 107.559C106.651 107.632 106.464 107.744 106.304 107.894C106.092 108.092 105.948 108.322 105.871 108.584C105.792 108.848 105.783 109.112 105.844 109.376C105.902 109.643 106.028 109.88 106.221 110.086C106.418 110.298 106.649 110.441 106.914 110.514C107.176 110.591 107.441 110.597 107.707 110.534C107.974 110.476 108.21 110.35 108.417 110.157C108.653 109.937 108.809 109.704 108.884 109.457C108.96 109.211 108.986 108.984 108.962 108.775L109.934 108.349L112.599 111.558L109.475 114.474L108.736 113.682L111.429 111.167L111.384 111.804L109.396 109.393L109.76 109.452C109.75 109.748 109.677 110.035 109.54 110.313C109.403 110.591 109.23 110.827 109.021 111.023C108.662 111.358 108.264 111.574 107.828 111.67C107.389 111.769 106.953 111.752 106.522 111.618C106.093 111.486 105.71 111.24 105.372 110.878C105.037 110.519 104.824 110.106 104.734 109.638C104.646 109.173 104.674 108.711 104.816 108.252C104.959 107.792 105.21 107.395 105.569 107.059Z" fill="#444849"/>
<path d="M110.084 102.635L115.093 106.816L115.347 105.124L116.311 105.929L116.045 107.611L115.309 108.493L109.348 103.516L110.084 102.635Z" fill="#444849"/>
<path d="M97.7016 110.592L98.3966 113.786L97.8969 113.03L103.393 116.942L102.401 117.572L98.2101 114.518L98.5014 114.333L99.5615 119.378L98.5968 119.991L96.796 111.168L97.7016 110.592Z" fill="#444849"/>
<path d="M92.1569 116.559C92.6797 116.311 93.1932 116.206 93.6973 116.246C94.1998 116.29 94.6585 116.464 95.0736 116.768C95.487 117.077 95.8225 117.503 96.0799 118.045C96.3528 118.62 96.4823 119.169 96.4684 119.693C96.4513 120.219 96.3042 120.689 96.0272 121.103C95.7503 121.517 95.3552 121.846 94.8421 122.089C94.3063 122.344 93.7906 122.435 93.2952 122.364C92.8013 122.296 92.3531 122.077 91.9506 121.707C91.5448 121.339 91.2119 120.83 90.9518 120.181L91.9699 119.698L92.1456 120.068C92.442 120.676 92.7732 121.072 93.1393 121.256C93.5021 121.442 93.9141 121.425 94.3753 121.206C94.8851 120.964 95.192 120.622 95.2959 120.178C95.3998 119.735 95.3076 119.21 95.0193 118.603C94.7449 118.024 94.4038 117.637 93.9962 117.441C93.5901 117.248 93.1451 117.266 92.6612 117.496C92.3429 117.647 92.1024 117.848 91.9397 118.101C91.7753 118.358 91.6921 118.652 91.6902 118.983L90.5412 119.141C90.5223 118.573 90.6589 118.06 90.9513 117.603C91.2452 117.149 91.647 116.801 92.1569 116.559ZM95.2141 118.158L95.5911 118.952L91.8353 120.735L91.4584 119.941L95.2141 118.158Z" fill="#444849"/>
<path d="M86.8555 118.76C87.2648 118.624 87.6325 118.585 87.9588 118.643C88.2862 118.704 88.5631 118.835 88.7893 119.036C89.0133 119.242 89.1753 119.495 89.2753 119.795C89.3686 120.075 89.401 120.337 89.3726 120.581C89.3442 120.826 89.2573 121.054 89.1118 121.265C88.9674 121.48 88.7691 121.681 88.5167 121.867C88.295 122.021 88.0381 122.176 87.746 122.334C87.4538 122.492 87.1452 122.652 86.8201 122.814C86.4915 122.976 86.1664 123.138 85.8447 123.298L86.1619 122.954C86.2995 123.389 86.4984 123.679 86.7588 123.823C87.0168 123.972 87.3761 123.97 87.8365 123.816C88.1264 123.72 88.3696 123.563 88.5663 123.346C88.7641 123.132 88.859 122.854 88.851 122.512L89.9508 122.486C89.9725 123.006 89.839 123.469 89.5502 123.876C89.2581 124.284 88.7932 124.594 88.1554 124.807C87.6609 124.972 87.2028 125.03 86.781 124.981C86.357 124.937 85.9989 124.761 85.7067 124.453C85.5578 124.301 85.4395 124.129 85.352 123.934C85.2644 123.74 85.182 123.527 85.1047 123.295L83.9704 119.893L84.9168 119.577L85.3381 120.841L85.0993 120.739C85.1868 120.24 85.3732 119.827 85.6585 119.501C85.9416 119.179 86.3406 118.932 86.8555 118.76ZM86.9579 119.698C86.6544 119.799 86.4111 119.939 86.2281 120.118C86.0463 120.3 85.9167 120.496 85.8394 120.708C85.7621 120.919 85.7331 121.122 85.7525 121.317C85.7491 121.5 85.7781 121.695 85.8395 121.901C85.8975 122.11 85.947 122.275 85.9879 122.398L85.5974 122.386C85.918 122.222 86.2095 122.074 86.4721 121.941C86.7347 121.808 86.9717 121.683 87.1832 121.567C87.3923 121.456 87.5748 121.344 87.7305 121.231C87.8601 121.131 87.971 121.026 88.063 120.916C88.1517 120.807 88.2131 120.689 88.2472 120.564C88.2778 120.44 88.2687 120.305 88.2198 120.159C88.1721 120.015 88.0919 119.894 87.9794 119.795C87.868 119.7 87.727 119.641 87.5565 119.618C87.3859 119.595 87.1864 119.622 86.9579 119.698Z" fill="#444849"/>
<path d="M82.5204 120.261L83.7896 125.945L82.8107 126.163L82.5028 124.784L82.6796 124.933C82.6501 125.131 82.5961 125.318 82.5175 125.494C82.4397 125.673 82.3381 125.828 82.2127 125.96C82.0924 126.097 81.9507 126.213 81.7878 126.309C81.6222 126.408 81.4476 126.484 81.264 126.536C81.0812 126.592 80.9003 126.623 80.7213 126.63L80.491 125.598C80.6879 125.606 80.8981 125.574 81.1214 125.502C81.3413 125.43 81.5322 125.312 81.6943 125.147C81.8473 124.991 81.9581 124.819 82.0265 124.631C82.0915 124.443 82.124 124.243 82.1242 124.029C82.1251 123.819 82.1005 123.601 82.0504 123.377L81.41 120.509L82.5204 120.261Z" fill="#444849"/>
<path d="M72.3914 119.045C72.7037 119.028 73.0096 119.061 73.3091 119.142C73.6049 119.224 73.8782 119.354 74.1287 119.531C74.379 119.705 74.5904 119.926 74.7629 120.194L73.7513 120.777C73.6126 120.536 73.4236 120.364 73.1842 120.261C72.9449 120.159 72.6959 120.114 72.4375 120.128C72.1179 120.144 71.8481 120.216 71.628 120.343C71.4077 120.466 71.246 120.644 71.143 120.876C71.0364 121.108 70.9937 121.391 71.0148 121.725L71.1002 123.351L70.9656 123.358L71.1933 127.693L70.197 127.746L69.8834 121.774C69.8753 121.619 69.8729 121.472 69.8764 121.331C69.8798 121.191 69.8922 121.05 69.9135 120.908C69.9755 120.512 70.1165 120.181 70.3365 119.914C70.5529 119.647 70.8372 119.441 71.1897 119.297C71.5385 119.152 71.939 119.068 72.3914 119.045ZM72.6133 121.625C73.1554 121.596 73.6309 121.706 74.04 121.955C74.4454 122.204 74.768 122.554 75.0077 123.006C75.2441 123.461 75.3775 123.98 75.408 124.561C75.4388 125.147 75.3585 125.675 75.1672 126.145C74.9762 126.62 74.6902 127 74.3092 127.287C73.9249 127.577 73.4598 127.736 72.9142 127.765C72.3649 127.794 71.8965 127.683 71.509 127.434C71.1181 127.188 70.8154 126.838 70.6008 126.385C70.3826 125.932 70.2582 125.415 70.2277 124.834C70.1971 124.252 70.2666 123.725 70.4362 123.251C70.6057 122.778 70.8718 122.395 71.2344 122.102C71.5972 121.813 72.0568 121.654 72.6133 121.625ZM72.5106 122.651C72.1408 122.67 71.8439 122.774 71.6198 122.962C71.3956 123.15 71.2379 123.402 71.1464 123.716C71.0549 124.03 71.0197 124.389 71.0408 124.791C71.0619 125.193 71.1362 125.545 71.2638 125.848C71.3877 126.151 71.569 126.383 71.8078 126.543C72.0431 126.704 72.3366 126.775 72.6884 126.756C73.0618 126.737 73.3639 126.629 73.5948 126.433C73.8257 126.237 73.9923 125.982 74.0946 125.667C74.1932 125.352 74.2326 125.005 74.2126 124.624C74.1924 124.24 74.1167 123.895 73.9854 123.589C73.8507 123.286 73.6619 123.049 73.4189 122.879C73.1724 122.708 72.8696 122.632 72.5106 122.651Z" fill="#444849"/>
<path d="M66.0471 121.616C66.4486 121.647 66.7807 121.737 67.0434 121.886C67.3061 122.036 67.5156 122.221 67.672 122.442C67.8245 122.666 67.9362 122.905 68.0072 123.16C68.0781 123.414 68.1208 123.66 68.1352 123.899C68.1496 124.138 68.1501 124.347 68.1366 124.527L67.8931 127.753L66.7532 127.667L66.9686 124.812C66.9857 124.586 66.9853 124.351 66.9676 124.109C66.946 123.869 66.891 123.643 66.8024 123.431C66.7103 123.219 66.574 123.042 66.3935 122.903C66.2093 122.763 65.9631 122.681 65.6549 122.658C65.4541 122.642 65.2617 122.66 65.0776 122.711C64.8932 122.766 64.7292 122.862 64.5854 122.999C64.4381 123.135 64.3178 123.321 64.2244 123.555C64.1274 123.79 64.0659 124.079 64.0399 124.423L63.3608 124.107C63.4005 123.58 63.5343 123.121 63.762 122.731C63.9895 122.344 64.2963 122.052 64.6826 121.854C65.0689 121.656 65.5237 121.577 66.0471 121.616ZM64.1157 121.628L63.9891 123.305L64.1235 123.315L63.8119 127.445L62.6773 127.359L63.1155 121.552L64.1157 121.628Z" fill="#444849"/>
<path d="M59.9486 120.855C60.3716 120.939 60.7104 121.088 60.965 121.3C61.2189 121.515 61.3942 121.767 61.4909 122.054C61.5833 122.343 61.5986 122.643 61.5367 122.954C61.4789 123.243 61.3772 123.486 61.2313 123.684C61.0854 123.883 60.8969 124.037 60.6657 124.149C60.4338 124.264 60.162 124.34 59.8504 124.377C59.5818 124.4 59.2814 124.408 58.9494 124.4C58.6173 124.392 58.2701 124.378 57.9077 124.357C57.5418 124.335 57.1794 124.314 56.8205 124.294L57.2667 124.152C57.1703 124.598 57.1993 124.949 57.3538 125.203C57.5041 125.461 57.8172 125.637 58.2931 125.732C58.5928 125.792 58.8818 125.776 59.1603 125.685C59.438 125.597 59.6583 125.403 59.821 125.102L60.7889 125.625C60.55 126.087 60.2043 126.423 59.7518 126.633C59.2957 126.843 58.738 126.882 58.0788 126.75C57.5676 126.648 57.141 126.471 56.799 126.22C56.4527 125.971 56.2291 125.64 56.1282 125.228C56.0738 125.023 56.0568 124.814 56.0772 124.602C56.0975 124.39 56.1317 124.164 56.1795 123.924L56.8816 120.408L57.8598 120.603L57.5991 121.909L57.4425 121.702C57.766 121.312 58.1325 121.046 58.5421 120.904C58.9474 120.765 59.4162 120.749 59.9486 120.855ZM59.5724 121.72C59.2586 121.657 58.978 121.658 58.7306 121.722C58.4824 121.79 58.2724 121.897 58.1004 122.042C57.9284 122.187 57.8026 122.349 57.723 122.528C57.6293 122.685 57.5578 122.869 57.5085 123.079C57.4557 123.288 57.4167 123.456 57.3913 123.583L57.0581 123.379C57.4177 123.396 57.7445 123.412 58.0385 123.426C58.3325 123.441 58.6001 123.451 58.8412 123.455C59.0781 123.462 59.292 123.455 59.4831 123.434C59.6452 123.412 59.7936 123.375 59.9283 123.325C60.0594 123.275 60.1708 123.203 60.2624 123.112C60.3505 123.019 60.4097 122.897 60.4399 122.746C60.4695 122.598 60.4599 122.453 60.4112 122.311C60.3618 122.173 60.2687 122.052 60.1319 121.947C59.9951 121.843 59.8086 121.767 59.5724 121.72Z" fill="#444849"/>
<path d="M55.4731 120.011L53.743 125.572L52.7853 125.274L53.205 123.925L53.2844 124.142C53.1602 124.299 53.0203 124.434 52.8645 124.548C52.7077 124.664 52.5422 124.748 52.3681 124.8C52.1954 124.859 52.0146 124.889 51.8259 124.891C51.6327 124.895 51.4435 124.873 51.2584 124.827C51.0722 124.784 50.8998 124.721 50.7412 124.638L51.0551 123.629C51.2221 123.734 51.4204 123.81 51.6499 123.859C51.876 123.907 52.1004 123.899 52.3232 123.837C52.5335 123.778 52.7152 123.684 52.8684 123.555C53.0181 123.424 53.1463 123.267 53.2528 123.081C53.3583 122.9 53.4453 122.699 53.5136 122.479L54.3866 119.673L55.4731 120.011Z" fill="#444849"/>
<path d="M49.8189 117.892C50.2163 118.06 50.5183 118.273 50.7249 118.532C50.9301 118.795 51.0512 119.076 51.0881 119.377C51.1203 119.679 51.0749 119.976 50.9517 120.267C50.837 120.539 50.6882 120.757 50.5054 120.922C50.3226 121.087 50.1067 121.2 49.8578 121.263C49.6075 121.329 49.326 121.348 49.0134 121.322C48.7456 121.29 48.4498 121.238 48.1261 121.163C47.8023 121.089 47.4651 121.005 47.1144 120.911C46.7604 120.816 46.4096 120.723 46.0622 120.631L46.5279 120.581C46.3435 120.999 46.3014 121.348 46.4014 121.629C46.4968 121.911 46.768 122.146 47.215 122.335C47.4965 122.454 47.7828 122.497 48.0738 122.464C48.3635 122.434 48.6184 122.288 48.8385 122.026L49.6811 122.734C49.3541 123.138 48.9478 123.398 48.4622 123.512C47.9732 123.626 47.4192 123.552 46.7999 123.29C46.3198 123.087 45.9375 122.828 45.6532 122.512C45.3642 122.199 45.2117 121.83 45.1959 121.406C45.184 121.194 45.2094 120.986 45.2721 120.782C45.3348 120.579 45.4137 120.364 45.5089 120.139L46.9049 116.836L47.8238 117.224L47.3053 118.451L47.1936 118.217C47.589 117.9 48.0016 117.713 48.4313 117.657C48.8564 117.602 49.3189 117.681 49.8189 117.892ZM49.2762 118.664C48.9814 118.539 48.7064 118.483 48.4511 118.496C48.1944 118.513 47.9672 118.575 47.7695 118.683C47.5718 118.79 47.416 118.923 47.302 119.082C47.1786 119.217 47.0715 119.383 46.981 119.579C46.887 119.773 46.8149 119.93 46.7645 120.049L46.4793 119.782C46.8281 119.871 47.145 119.952 47.43 120.026C47.715 120.1 47.9752 120.163 48.2105 120.215C48.4412 120.27 48.6521 120.306 48.8434 120.325C49.0068 120.335 49.1594 120.33 49.3014 120.308C49.4401 120.284 49.5635 120.237 49.6717 120.166C49.7766 120.093 49.8592 119.985 49.9193 119.843C49.9781 119.704 49.9979 119.56 49.9788 119.411C49.9582 119.266 49.8914 119.129 49.7785 118.999C49.6655 118.869 49.498 118.757 49.2762 118.664Z" fill="#444849"/>
<path d="M42.1308 114.195L40.6932 116.671C40.5795 116.867 40.4802 117.077 40.3952 117.302C40.3054 117.529 40.2557 117.758 40.2461 117.989C40.2333 118.218 40.2793 118.436 40.384 118.643C40.4856 118.847 40.6701 119.027 40.9375 119.182C41.1116 119.283 41.2935 119.349 41.4833 119.381C41.6712 119.415 41.8613 119.403 42.0534 119.344C42.2424 119.283 42.4316 119.168 42.6209 119C42.8072 118.829 42.9869 118.595 43.1602 118.297L43.6338 118.877C43.3684 119.334 43.0492 119.687 42.6761 119.936C42.3011 120.188 41.8967 120.319 41.4627 120.329C41.0288 120.339 40.5849 120.212 40.131 119.949C39.7828 119.746 39.523 119.521 39.3517 119.272C39.1804 119.023 39.0749 118.764 39.0353 118.496C38.9907 118.229 38.9919 117.965 39.0387 117.706C39.0855 117.446 39.1545 117.206 39.2457 116.984C39.3368 116.763 39.4275 116.574 39.5177 116.419L41.1422 113.621L42.1308 114.195ZM45.6704 116.25L42.7464 121.286L41.8743 120.78L42.719 119.325L42.6025 119.257L44.6818 115.676L45.6704 116.25Z" fill="#444849"/>
<path d="M37.1868 110.771C37.5248 110.93 37.8325 111.119 38.11 111.336C38.3875 111.553 38.6005 111.795 38.749 112.06C38.8975 112.325 38.9484 112.608 38.9017 112.909C38.8604 113.177 38.7707 113.415 38.6324 113.621C38.4892 113.828 38.3239 114.059 38.1365 114.314L35.0865 118.463L34.174 117.792L37.1922 113.686C37.3306 113.498 37.4494 113.333 37.5487 113.192C37.6451 113.049 37.7009 112.909 37.7162 112.773C37.7439 112.517 37.6544 112.293 37.4476 112.101C37.2358 111.909 36.9604 111.722 36.6215 111.54L37.1868 110.771ZM37.4805 117.091L36.944 117.821L33.7375 115.464L34.274 114.734L37.4805 117.091Z" fill="#444849"/>
<path d="M33.949 107.776C34.3727 108.17 34.6593 108.609 34.8089 109.092C34.9534 109.575 34.9608 110.066 34.8311 110.564C34.6964 111.062 34.4245 111.531 34.0154 111.97C33.5819 112.436 33.1191 112.759 32.627 112.94C32.1323 113.118 31.6414 113.154 31.1544 113.05C30.6673 112.945 30.2159 112.699 29.8002 112.312C29.366 111.908 29.0905 111.463 28.9739 110.976C28.8548 110.492 28.8929 109.994 29.0883 109.484C29.281 108.971 29.6308 108.474 30.1375 107.992L30.9625 108.76L30.6832 109.06C30.228 109.56 29.9823 110.014 29.9461 110.422C29.9072 110.828 30.0746 111.205 30.4483 111.553C30.8614 111.937 31.2931 112.096 31.7435 112.029C32.1939 111.962 32.6481 111.682 33.1061 111.19C33.5421 110.722 33.7761 110.262 33.8083 109.811C33.838 109.362 33.6568 108.955 33.2647 108.59C33.0068 108.35 32.7306 108.201 32.436 108.143C32.1363 108.085 31.8322 108.116 31.5236 108.237L30.9533 107.227C31.4742 107 32.001 106.937 32.5338 107.04C33.0641 107.146 33.5359 107.391 33.949 107.776ZM33.5913 111.207L32.9924 111.851L29.9492 109.018L30.548 108.375L33.5913 111.207Z" fill="#444849"/>
<path d="M29.353 102.944C29.7236 103.389 29.9526 103.86 30.0401 104.358C30.1226 104.856 30.0681 105.343 29.8767 105.821C29.6802 106.298 29.3513 106.729 28.8902 107.114C28.4014 107.521 27.9016 107.783 27.3907 107.9C26.8775 108.014 26.3859 107.989 25.9159 107.824C25.4459 107.658 25.0291 107.358 24.6655 106.921C24.2857 106.466 24.0686 105.989 24.0142 105.492C23.9571 104.996 24.0576 104.508 24.3158 104.026C24.5716 103.541 24.9812 103.092 25.5446 102.679L26.2662 103.544L25.9514 103.807C25.4368 104.245 25.1358 104.664 25.0484 105.065C24.9587 105.463 25.0773 105.857 25.4041 106.25C25.7655 106.683 26.1738 106.895 26.629 106.885C27.0842 106.876 27.57 106.656 28.0864 106.225C28.578 105.815 28.8681 105.389 28.9569 104.945C29.0429 104.504 28.9145 104.077 28.5715 103.666C28.3459 103.395 28.0907 103.212 27.8058 103.118C27.5158 103.022 27.2101 103.015 26.8889 103.096L26.4503 102.022C26.9958 101.862 27.5262 101.867 28.0418 102.036C28.5545 102.208 28.9916 102.51 29.353 102.944ZM28.5656 106.303L27.8904 106.866L25.2285 103.672L25.9036 103.109L28.5656 106.303Z" fill="#444849"/>
<path fill-rule="evenodd" clip-rule="evenodd" d="M25.5865 40.8536C20.0127 49.2854 16.7676 59.3916 16.7676 70.2558C16.7676 80.4358 19.6169 89.9504 24.5615 98.0455L23.1079 99.4991C17.8215 91.0122 14.7676 80.9906 14.7676 70.2558C14.7676 58.8378 18.2225 48.2268 24.144 39.4111L25.5865 40.8536ZM115.497 42.0581C120.596 50.2408 123.542 59.9042 123.542 70.2558C123.542 80.9496 120.398 90.9091 114.984 99.2602L116.429 100.705C122.19 91.9684 125.542 81.5036 125.542 70.2558C125.542 59.3497 122.39 49.1799 116.947 40.6076L115.497 42.0581Z" fill="#444849"/>
<path d="M60.4896 73.08V53.72L56.1536 56.36V52.632L60.4896 50.04H63.8976V73.08H60.4896ZM76.8056 73.56C75.6216 73.56 74.5176 73.32 73.4936 72.84C72.4803 72.3493 71.611 71.6773 70.8856 70.824C70.1603 69.96 69.643 68.968 69.3336 67.848L72.5496 66.984C72.731 67.6666 73.0403 68.2586 73.4776 68.76C73.9256 69.2613 74.4483 69.6506 75.0456 69.928C75.643 70.1946 76.2616 70.328 76.9016 70.328C77.7443 70.328 78.507 70.1253 79.1896 69.72C79.883 69.3146 80.427 68.7706 80.8216 68.088C81.227 67.4053 81.4296 66.6533 81.4296 65.832C81.4296 64.9893 81.2216 64.2266 80.8056 63.544C80.4003 62.8613 79.851 62.3226 79.1576 61.928C78.475 61.5226 77.723 61.32 76.9016 61.32C75.963 61.32 75.1683 61.5066 74.5176 61.88C73.867 62.2533 73.3603 62.6853 72.9976 63.176L70.0856 62.152L70.7896 50.04H83.2216V53.192H72.5016L73.8616 51.928L73.3016 61L72.6456 60.152C73.2536 59.544 73.979 59.08 74.8216 58.76C75.6643 58.44 76.5016 58.28 77.3336 58.28C78.763 58.28 80.0376 58.6106 81.1576 59.272C82.2883 59.9333 83.179 60.8346 83.8296 61.976C84.4803 63.1066 84.8056 64.392 84.8056 65.832C84.8056 67.2613 84.4376 68.5626 83.7016 69.736C82.9656 70.8986 81.9896 71.8266 80.7736 72.52C79.5576 73.2133 78.235 73.56 76.8056 73.56Z" fill="#444849"/>
<circle cx="70.4998" cy="61.4744" r="25.5002" stroke="#444849" stroke-width="2"/>
<path d="M56.4224 84.1333V105.926L70.6946 95.283L84.9668 105.926V82.8662" stroke="#444849" stroke-width="2" stroke-linecap="round" stroke-linejoin="round"/>
</svg>
