<svg width="24" height="24" viewBox="0 0 24 24" fill="none" xmlns="http://www.w3.org/2000/svg">
<path d="M13.1428 4.92459L14.4106 8.82646L14.4747 9.02388H14.6823H18.785L15.4659 11.4354L15.2979 11.5574L15.3621 11.7548L16.6299 15.6567L13.3107 13.2452L13.1428 13.1232L12.9748 13.2452L9.65572 15.6567L10.9235 11.7548L10.9877 11.5574L10.8197 11.4354L7.50059 9.02388H11.6033H11.8108L11.875 8.82646L13.1428 4.92459Z" fill="#386431" stroke="black" stroke-width="0.571429"/>
<path d="M8.57143 11.7817L9.32605 14.1042L9.39019 14.3016H9.59778H12.0398L10.0642 15.737L9.89622 15.859L9.96037 16.0564L10.715 18.3789L8.73937 16.9435L8.57143 16.8215L8.40349 16.9435L6.42787 18.3789L7.18249 16.0564L7.24664 15.859L7.0787 15.737L5.10308 14.3016H7.54508H7.75266L7.81681 14.1042L8.57143 11.7817Z" fill="#CBC75F" stroke="black" stroke-width="0.571429"/>
</svg>
