<svg width="24" height="24" viewBox="0 0 24 24" fill="none" xmlns="http://www.w3.org/2000/svg">
<path d="M5.26055 19.6604C4.6478 19.0477 5.08177 18 5.94833 18H15.9885C17.0204 18 18.01 18.4099 18.7396 19.1396V19.1396C19.3524 19.7523 18.9184 20.8 18.0519 20.8H8.01167C6.9798 20.8 5.99019 20.3901 5.26055 19.6604V19.6604Z" fill="#386431"/>
<path d="M10.6639 12.8259C10.5058 12.6824 10.3623 12.5675 10.2906 12.4957C10.0036 12.2519 9.86006 11.9789 9.80288 11.6919L9.14254 12.5243C9.12796 12.5529 9.08536 12.5675 9.05621 12.5675L6.78927 12.5675C6.34418 12.5675 6 12.9263 6 13.3568C6 13.8019 6.35876 14.146 6.78927 14.146L9.0707 14.146C9.58755 14.146 10.0752 13.9162 10.4054 13.5003L10.8213 12.9548C10.8213 12.9548 10.8068 12.9403 10.7928 12.9403L10.6639 12.8259Z" fill="black"/>
<path d="M14.8409 13.8869C14.6256 13.4132 14.31 12.9827 13.9227 12.6525L12.9036 11.7915L14.1234 9.1226C14.2523 9.22294 14.3818 9.33786 14.5539 9.48136C14.884 9.76837 15.3146 9.92645 15.7591 9.94046L17.2944 9.98362C17.6532 9.9982 17.9548 9.71119 17.9688 9.33785C17.9834 8.97909 17.6964 8.6775 17.323 8.6635L15.7877 8.62034C15.6442 8.62034 15.5152 8.56316 15.4143 8.47683C14.1659 7.41513 13.9939 7.38597 13.8211 7.34338L12.7594 7.1427C12.6159 7.11411 12.4438 7.08552 10.4634 7.4583C10.0757 7.53349 9.64553 7.88867 9.32819 8.23855C9.23793 8.33807 9.16838 8.45942 9.16998 8.59376C9.17747 9.22102 9.85635 10.1501 10.1014 10.3564C10.2304 10.4568 10.3739 10.4999 10.5174 10.4999C10.704 10.4999 11.1674 10.1277 11.0174 9.89787L10.349 8.96509C10.4353 8.85017 10.5643 8.77842 10.7078 8.74983C10.9516 8.70667 11.1815 8.66351 11.3681 8.63492L10.8944 9.89787L10.8081 10.1277C10.4639 11.0459 10.2773 11.5913 10.765 12.0218C10.8653 12.1081 11.052 12.2657 11.2672 12.4669C11.9276 13.0409 12.9322 13.8734 12.9322 13.8734C13.1474 14.06 13.3195 14.2893 13.4344 14.5477L14.3818 16.6571C14.5107 16.9441 14.7977 17.1308 15.0993 17.1308C15.2142 17.1308 15.3146 17.1162 15.4149 17.059C15.8168 16.8869 15.9889 16.4132 15.8168 16.0113L14.8409 13.8869Z" fill="black"/>
<path d="M9.96842 8.91807C10.5853 10.0555 12.0074 10.4775 13.1449 9.86064C13.2871 9.78353 13.3398 9.60576 13.2627 9.46358C12.6458 8.32614 11.2237 7.90414 10.0862 8.52101C9.94406 8.59812 9.89131 8.77589 9.96842 8.91807Z" fill="#F5F5F5" stroke="black" stroke-width="0.0931881"/>
<path d="M12.6317 8.71458V8.71458C12.2287 9.07076 12.064 9.62561 12.2076 10.144V10.144" stroke="black" stroke-width="0.5"/>
<path d="M11.5375 10.9165C11.5375 10.9165 10.922 10.301 10.3065 8.45435L10.1889 8.45435C9.91387 8.45435 9.69092 8.6773 9.69092 8.95233C9.69092 9.02964 9.70892 9.10589 9.74349 9.17504L9.94612 9.58029C10.18 10.0481 10.5593 10.4274 11.0272 10.6613L11.5375 10.9165Z" fill="black"/>
<path fill-rule="evenodd" clip-rule="evenodd" d="M12.6146 4.42641C12.9793 3.53681 13.7223 3.43672 14.0047 3.39868C14.053 3.39216 14.0879 3.38746 14.105 3.38093C15.6209 3.38852 15.8989 4.65753 15.9763 5.01077L15.9864 5.05582C16.0496 5.32682 15.9581 5.33104 15.1524 5.28194C14.5079 5.24266 14.3298 5.67649 14.3214 5.89832C14.7792 6.07778 15.2854 6.17183 15.5978 6.21109C15.6979 6.22367 15.7675 6.32064 15.7426 6.41843L15.5782 7.06398C15.5619 7.12811 15.5084 7.1762 15.4422 7.17685C14.9985 7.1812 14.0355 6.97958 13.8349 6.76085C13.6157 6.52184 13.4625 6.45019 13.3389 6.41168C13.2152 6.37317 13.0185 6.29274 12.9179 5.95983C12.8375 5.69351 12.6254 5.67898 12.5294 5.705C12.4154 5.62613 12.2729 5.25999 12.6146 4.42641ZM13.929 5.67613C13.972 5.83479 13.8783 5.99828 13.7196 6.04129C13.561 6.08431 13.3975 5.99057 13.3545 5.83191C13.3115 5.67326 13.4052 5.50977 13.5639 5.46675C13.7225 5.42374 13.886 5.51748 13.929 5.67613ZM14.1049 6.27602L14.037 6.36645C14.3108 6.49116 14.94 6.74523 15.2661 6.76383L15.3012 6.58966C15.0922 6.57772 14.5605 6.49828 14.1049 6.27602Z" fill="black"/>
<path d="M15.8918 4.92255C15.8902 4.68157 15.8271 4.44414 15.7072 4.22804C15.5874 4.01195 15.414 3.8228 15.2 3.67476C14.986 3.52672 14.7369 3.42364 14.4714 3.37323C14.2059 3.32282 13.9309 3.3264 13.667 3.38369C13.4031 3.44099 13.1571 3.55051 12.9475 3.70406C12.7379 3.85761 12.5701 4.0512 12.4567 4.27033C12.3433 4.48945 12.2872 4.72844 12.2926 4.96937C12.298 5.2103 12.3648 5.44693 12.4879 5.66153L14.092 4.93494L15.8918 4.92255Z" fill="black"/>
</svg>
