<svg width="140" height="140" viewBox="0 0 140 140" fill="none" xmlns="http://www.w3.org/2000/svg">
<g clip-path="url(#clip0_9288_8978)">
<path d="M110.062 104.695V109.579H105.118" stroke="#45494A" stroke-width="2" stroke-linecap="round" stroke-linejoin="round"/>
<path d="M95.0887 109.58H39.9307" stroke="#45494A" stroke-width="2" stroke-linecap="round" stroke-linejoin="round"/>
<path d="M34.9178 109.579H29.9385V104.695" stroke="#45494A" stroke-width="2" stroke-linecap="round" stroke-linejoin="round"/>
<path d="M29.9385 94.7872V40.2937" stroke="#45494A" stroke-width="2" stroke-linecap="round" stroke-linejoin="round"/>
<path d="M29.9385 35.3397V30.4204H34.9178" stroke="#45494A" stroke-width="2" stroke-linecap="round" stroke-linejoin="round"/>
<path d="M44.9458 30.4204H100.104" stroke="#45494A" stroke-width="2" stroke-linecap="round" stroke-linejoin="round"/>
<path d="M105.118 30.4204H110.062V35.3397" stroke="#45494A" stroke-width="2" stroke-linecap="round" stroke-linejoin="round"/>
<path d="M110.062 45.2473V99.7408" stroke="#45494A" stroke-width="2" stroke-linecap="round" stroke-linejoin="round"/>
<path d="M56.7268 57.3033L49.6436 50.3054" stroke="#45494A" stroke-width="2" stroke-linecap="round" stroke-linejoin="round"/>
<path d="M57.1483 50.8944H50.2404V57.7191L47.2949 54.809V47.9844H54.2028L57.1483 50.8944Z" fill="#45494A"/>
<path d="M85.2002 85.4683L92.2834 92.5008" stroke="#45494A" stroke-width="2" stroke-linecap="round" stroke-linejoin="round"/>
<path d="M84.7793 91.9116H91.6872V85.0869L94.6327 87.9969V94.787H87.7248L84.7793 91.9116Z" fill="#45494A"/>
<path d="M92.2834 49.3354L85.2002 56.368" stroke="#45494A" stroke-width="2" stroke-linecap="round" stroke-linejoin="round"/>
<path d="M84.8496 49.7513H91.7575V56.576L94.703 53.666V46.8413H87.7951L84.8496 49.7513Z" fill="#45494A"/>
<path d="M56.7268 84.2554L49.6436 91.2879" stroke="#45494A" stroke-width="2" stroke-linecap="round" stroke-linejoin="round"/>
<path d="M50.2404 83.8743V90.6989H57.1483L54.2028 93.5743H47.2949V86.7496L50.2404 83.8743Z" fill="#45494A"/>
<path d="M101.016 39.3928H39.02V100.642H101.016V39.3928Z" stroke="#45494A" stroke-width="2" stroke-linecap="round" stroke-linejoin="round"/>
</g>
<defs>
<clipPath id="clip0_9288_8978">
<rect width="83" height="82" fill="white" transform="translate(28.5 29)"/>
</clipPath>
</defs>
</svg>
