<svg width="140" height="140" viewBox="0 0 140 140" fill="none" xmlns="http://www.w3.org/2000/svg">
<ellipse cx="59.9998" cy="100.128" rx="13.0769" ry="1.74359" stroke="#444849" stroke-width="4" stroke-linejoin="round"/>
<ellipse cx="60" cy="101" rx="34" ry="11.3333" stroke="#444849" stroke-width="2" stroke-linejoin="round"/>
<path d="M60.8718 100.128V75.7179M60.8718 75.7179V67L52.1538 71.359L60.8718 75.7179Z" stroke="#444849" stroke-width="2" stroke-linejoin="round"/>
<path d="M106.311 101.745C106.311 102.901 108.044 102.901 108.044 101.745C108.044 100.589 106.311 100.589 106.311 101.745Z" fill="#444849"/>
<path d="M99.9314 93.0214C99.9314 94.175 101.664 94.175 101.664 93.0214C101.664 91.8656 99.9314 91.8656 99.9314 93.0214Z" fill="#444849"/>
<path d="M104.578 99.2424C104.578 100.398 106.311 100.398 106.311 99.2424C106.311 98.0865 104.578 98.0865 104.578 99.2424Z" fill="#444849"/>
<path d="M107.224 108.257C107.224 109.413 108.957 109.413 108.957 108.257C108.957 107.102 107.224 107.102 107.224 108.257Z" fill="#444849"/>
<path d="M105.187 111.937C105.187 113.093 106.92 113.093 106.92 111.937C106.92 110.782 105.187 110.782 105.187 111.937Z" fill="#444849"/>
<path d="M109.038 113.671C109.038 114.827 110.771 114.827 110.771 113.671C110.771 112.515 109.038 112.515 109.038 113.671Z" fill="#444849"/>
<path d="M99.7507 109.38C99.7507 110.536 101.483 110.536 101.483 109.38C101.483 108.226 99.7507 108.226 99.7507 109.38Z" fill="#444849"/>
<path d="M99.0281 100.365C99.0281 101.521 100.761 101.521 100.761 100.365C100.761 99.2111 99.0281 99.2111 99.0281 100.365Z" fill="#444849"/>
<path d="M99.8943 103.087C99.8943 104.242 101.627 104.242 101.627 103.087C101.627 101.933 99.8943 101.933 99.8943 103.087Z" fill="#444849"/>
<path d="M96.1897 115.191C96.1897 116.347 97.9224 116.347 97.9224 115.191C97.9224 114.037 96.1897 114.037 96.1897 115.191Z" fill="#444849"/>
<path d="M100.969 115.802C100.969 116.956 102.702 116.956 102.702 115.802C102.702 114.647 100.969 114.647 100.969 115.802Z" fill="#444849"/>
<path d="M101.627 100.108C101.627 100.922 102.846 100.922 102.846 100.108C102.846 99.2965 101.627 99.2965 101.627 100.108Z" fill="#444849"/>
<path d="M100.188 106.494C100.188 107.305 101.407 107.305 101.407 106.494C101.407 105.68 100.188 105.68 100.188 106.494Z" fill="#444849"/>
<path d="M104.835 108.514C104.835 109.328 106.054 109.328 106.054 108.514C106.054 107.702 104.835 107.702 104.835 108.514Z" fill="#444849"/>
<path d="M112.662 110.856C112.662 111.67 113.883 111.67 113.883 110.856C113.883 110.044 112.662 110.044 112.662 110.856Z" fill="#444849"/>
<path d="M100.616 112.632C100.616 113.444 101.835 113.444 101.835 112.632C101.835 111.818 100.616 111.818 100.616 112.632Z" fill="#444849"/>
<path d="M96.4563 109.852C96.4563 110.664 97.6753 110.664 97.6753 109.852C97.6753 109.038 96.4563 109.038 96.4563 109.852Z" fill="#444849"/>
<path d="M104.067 105.883C104.067 106.697 105.286 106.697 105.286 105.883C105.286 105.071 104.067 105.071 104.067 105.883Z" fill="#444849"/>
<path d="M101.483 97.051C101.483 97.8629 102.704 97.8629 102.704 97.051C102.704 96.2369 101.483 96.2369 101.483 97.051Z" fill="#444849"/>
<path d="M97.6653 104.665C97.6653 105.477 98.8843 105.477 98.8843 104.665C98.8843 103.851 97.6653 103.851 97.6653 104.665Z" fill="#444849"/>
<path d="M88.3675 115.801C88.3675 116.615 89.5864 116.615 89.5864 115.801C89.5864 114.989 88.3675 114.989 88.3675 115.801Z" fill="#444849"/>
<path d="M97.6751 94.4973C97.6751 95.3113 98.894 95.3113 98.894 94.4973C98.894 93.6832 97.6751 93.6832 97.6751 94.4973Z" fill="#444849"/>
<path d="M97.6751 90.8614C97.6751 91.6754 98.894 91.6754 98.894 90.8614C98.894 90.0495 97.6751 90.0495 97.6751 90.8614Z" fill="#444849"/>
<path d="M96.2589 98.2705C96.2589 99.0824 97.48 99.0824 97.48 98.2705C97.48 97.4564 96.2589 97.4564 96.2589 98.2705Z" fill="#444849"/>
<path d="M103.36 113.413C103.36 114.225 104.579 114.225 104.579 113.413C104.579 112.601 103.36 112.601 103.36 113.413Z" fill="#444849"/>
<path d="M85.8712 115.802C85.8712 116.614 87.0923 116.614 87.0923 115.802C87.0923 114.988 85.8712 114.988 85.8712 115.802Z" fill="#444849"/>
<path d="M90.0472 113.566C90.0472 114.579 91.5684 114.579 91.5684 113.566C91.5684 112.55 90.0472 112.55 90.0472 113.566Z" fill="#444849"/>
<path d="M92.639 116.059C92.639 116.871 93.8579 116.871 93.8579 116.059C93.8579 115.247 92.639 115.247 92.639 116.059Z" fill="#444849"/>
<path d="M94.0647 113.565C94.0647 114.379 95.2837 114.379 95.2837 113.565C95.2837 112.751 94.0647 112.751 94.0647 113.565Z" fill="#444849"/>
<path d="M86.4821 113.47C86.4821 114.611 88.1943 114.611 88.1943 113.47C88.1943 112.327 86.4821 112.327 86.4821 113.47Z" fill="#444849"/>
<path d="M83.0001 115.447C83.0001 116.261 84.2212 116.261 84.2212 115.447C84.2212 114.633 83.0001 114.633 83.0001 115.447Z" fill="#444849"/>
<path d="M109.295 106.641C109.295 108.011 111.355 108.011 111.355 106.641C111.355 105.267 109.295 105.267 109.295 106.641Z" fill="#444849"/>
<path d="M96.2589 88.6105C96.2589 89.4224 97.48 89.4224 97.48 88.6105C97.48 87.7965 96.2589 87.7965 96.2589 88.6105Z" fill="#444849"/>
<path d="M96.4563 107.103C96.4563 107.915 97.6753 107.915 97.6753 107.103C97.6753 106.289 96.4563 106.289 96.4563 107.103Z" fill="#444849"/>
<path d="M106.311 115.191C106.311 116.005 107.532 116.005 107.532 115.191C107.532 114.379 106.311 114.379 106.311 115.191Z" fill="#444849"/>
<path d="M106.613 105C106.613 105.814 107.834 105.814 107.834 105C107.834 104.186 106.613 104.186 106.613 105Z" fill="#444849"/>
<path d="M102.846 110.856C102.846 111.67 104.067 111.67 104.067 110.856C104.067 110.044 102.846 110.044 102.846 110.856Z" fill="#444849"/>
<path d="M108.685 110.856C108.685 111.67 109.904 111.67 109.904 110.856C109.904 110.044 108.685 110.044 108.685 110.856Z" fill="#444849"/>
<path d="M99.7508 97.051C99.7508 97.8629 100.97 97.8629 100.97 97.051C100.97 96.2369 99.7508 96.2369 99.7508 97.051Z" fill="#444849"/>
<path d="M97.056 112.632C97.056 113.444 98.2749 113.444 98.2749 112.632C98.2749 111.818 97.056 111.818 97.056 112.632Z" fill="#444849"/>
<path d="M102.704 103.537C102.704 104.351 103.925 104.351 103.925 103.537C103.925 102.725 102.704 102.725 102.704 103.537Z" fill="#444849"/>
<path d="M70.5 94V87L78 88L70.5 94Z" fill="white"/>
<circle cx="85.1278" cy="49.1278" r="25.1278" stroke="#444849" stroke-width="2"/>
<path d="M70.5098 69.2954L70.5098 94.023L84.5814 83.5296L98.653 94.023V71.2874" stroke="#444849" stroke-width="2" stroke-linecap="round" stroke-linejoin="round"/>
<path d="M85.1283 33.2688L89.4199 41.6781C89.7105 42.2476 90.2558 42.6438 90.8871 42.7442L100.211 44.2271L93.5395 50.9073C93.0877 51.3596 92.8794 52.0007 92.979 52.6322L94.45 61.958L86.0351 57.6772C85.4653 57.3873 84.7913 57.3873 84.2214 57.6772L75.8066 61.958L77.2775 52.6322C77.3771 52.0007 77.1688 51.3596 76.7171 50.9073L70.0455 44.2271L79.3694 42.7442C80.0008 42.6438 80.5461 42.2476 80.8367 41.6781L85.1283 33.2688Z" stroke="#444849" stroke-width="2" stroke-linejoin="round"/>
</svg>
