<svg width="1440" height="752" viewBox="0 0 1440 752" fill="none" xmlns="http://www.w3.org/2000/svg">
<path fill-rule="evenodd" clip-rule="evenodd" d="M1440 0H0V752H1440V0ZM61 221V545.931C61 556.54 65.2143 566.714 72.7157 574.216L96.2843 597.784C103.786 605.286 113.96 609.5 124.569 609.5H546.431C557.04 609.5 567.214 605.286 574.716 597.784L598.284 574.216C605.786 566.714 615.96 562.5 626.569 562.5H1329.93C1340.54 562.5 1350.71 558.286 1358.22 550.784L1368.28 540.716C1375.79 533.214 1380 523.04 1380 512.431V221C1380 198.909 1362.09 181 1340 181H1168.57C1157.96 181 1147.79 176.786 1140.28 169.284L1125.72 154.716C1118.21 147.214 1108.04 143 1097.43 143H506.069C495.46 143 485.286 147.214 477.784 154.716L463.216 169.284C455.714 176.786 445.54 181 434.931 181H101C78.9086 181 61 198.909 61 221Z" fill="white"/>
</svg>
