<svg width="140" height="140" viewBox="0 0 140 140" fill="none" xmlns="http://www.w3.org/2000/svg">
<path fill-rule="evenodd" clip-rule="evenodd" d="M102.552 67.5255L114.486 79.7343H114.56C115.38 80.6302 115.826 81.8326 115.826 83.0755V91.6027L115.829 91.6327C115.965 92.7521 115.559 93.8434 114.769 94.6333C113.987 95.4153 112.894 95.7954 111.754 95.6917L111.731 95.6897H108.105V96.1897C108.105 100.181 104.875 103.411 100.883 103.411C96.8917 103.411 93.6624 100.181 93.6624 96.1897V95.6897H64.882V96.1897C64.882 100.181 61.6527 103.411 57.6609 103.411C53.6691 103.411 50.4398 100.181 50.4398 96.1897V95.6897H46.3358V96.1897C46.3358 100.181 43.1066 103.411 39.1148 103.411C35.123 103.411 31.8937 100.181 31.8937 96.1897V95.6897H25.2245C24.8458 95.6897 24.5627 95.5485 24.4048 95.3004C24.2062 94.9883 24.1602 94.6396 24.2633 94.3302L27.287 85.0654C27.4534 84.6326 27.8545 84.3514 28.2897 84.3514H30.3417V53.1352L29.0618 51.5994L29.0594 51.5965C28.7808 51.2673 28.7392 50.797 28.96 50.377L36.67 37.049C36.9208 36.666 37.345 36.4661 37.7838 36.5425L37.7863 36.5429L63.3885 41.3531L63.3914 41.3536C64.6115 41.5754 65.7996 42.0199 66.9183 42.6535L66.9203 42.6546L74.8315 47.2308L74.8325 47.2313C77.5735 48.8084 79.7523 51.2122 81.0674 54.1052L84.6551 62.0136C84.7944 62.6209 84.8637 63.2265 84.8637 63.8309V84.3902H88.9677V66.9349C88.9677 66.3574 89.4422 65.8829 90.0196 65.8829H98.6595C100.124 65.9571 101.479 66.5276 102.552 67.5255ZM46.0134 71.4603L40.1667 64.6087V83.8902H40.6667V84.3514H75.0775V79.4973L65.8652 80.4062L65.8545 80.4077C65.3515 80.4796 64.8813 80.4803 64.3732 80.4803C61.7468 80.4803 59.1167 79.7671 56.8243 78.452L56.8233 78.4514L48.9123 73.8754L48.9111 73.8747C47.8307 73.2412 46.8284 72.4234 46.0148 71.4618L46.0134 71.4603ZM82.7985 66.2259L77.1814 75.9969V84.3902H82.7985V66.2259ZM63.0357 43.3977L38.1206 38.7531L31.1727 50.8507L47.5805 70.0918L47.5884 70.1006C48.2794 70.8729 49.0558 71.5275 49.957 72.0601L57.8768 76.6412C60.2539 78.011 62.9968 78.6175 65.704 78.335L65.7055 78.3348L73.8734 77.5341L82.5888 62.4219L79.1847 54.9728L79.1841 54.9715C78.0548 52.4718 76.1984 50.4135 73.8183 49.0419L65.9103 44.4677C65.0312 43.9248 64.0411 43.5987 63.0357 43.3977ZM38.0628 62.1329L32.4456 55.5718V84.3514H38.0628V62.1329ZM39.1148 101.346H39.3219L39.3649 101.303C42.1029 101.193 44.2707 98.9558 44.2707 96.1897C44.2707 94.1274 43.0252 92.2335 41.0852 91.4575C39.1581 90.6866 36.9661 91.1129 35.502 92.577C34.038 94.041 33.6117 96.233 34.3826 98.1601C35.1586 100.1 37.0525 101.346 39.1148 101.346ZM57.6221 101.346H57.8292L57.8722 101.303C60.6102 101.193 62.778 98.9558 62.778 96.1897C62.778 94.1274 61.5326 92.2335 59.5926 91.4575C57.6654 90.6866 55.4734 91.1129 54.0094 92.577C52.5453 94.041 52.1191 96.233 52.8899 98.1601C53.6659 100.1 55.5598 101.346 57.6221 101.346ZM64.2244 93.3222L64.3545 93.6245H89.0065V86.4554H29.0933L26.7036 93.6245H32.3782L32.5102 93.3276C33.6729 90.7114 36.2507 89.0074 39.1148 89.0074C41.9828 89.0074 44.5942 90.7145 45.717 93.3222L45.8472 93.6245H50.8855L51.0175 93.3276C52.1803 90.7114 54.758 89.0074 57.6221 89.0074C60.4901 89.0074 63.1016 90.7145 64.2244 93.3222ZM97.2795 79.7343V67.9481H98.7107V68.0795L98.7243 67.9508C99.5513 68.0379 100.349 68.3449 101.017 68.9238L101.032 68.9371L111.619 79.7343H97.2795ZM100.845 101.346H101.052L101.095 101.303C103.833 101.193 106.001 98.9558 106.001 96.1897C106.001 94.1274 104.755 92.2335 102.815 91.4575C100.888 90.6866 98.696 91.1129 97.232 92.577C95.7679 94.041 95.3417 96.233 96.1125 98.1601C96.8885 100.1 98.7824 101.346 100.845 101.346ZM107.447 93.3222L107.577 93.6245H111.631C112.248 93.6245 112.834 93.5595 113.226 93.1677C113.618 92.7759 113.683 92.1898 113.683 91.5725V83.0755C113.683 82.7946 113.637 82.4691 113.541 82.1801L113.427 81.8383H96.2276C96.0007 81.8383 95.7252 81.7193 95.4704 81.4964C95.2832 81.3326 95.1756 81.0896 95.1756 80.7863V67.9481H91.0716V93.6245H94.1081L94.2401 93.3276C95.4028 90.7114 97.9806 89.0074 100.845 89.0074C103.713 89.0074 106.324 90.7145 107.447 93.3222Z" fill="#444849"/>
</svg>
