<svg width="140" height="140" viewBox="0 0 140 140" fill="none" xmlns="http://www.w3.org/2000/svg">
<path d="M105.214 59.8877L105.215 59.8896C105.226 59.9021 105.237 59.9148 105.248 59.9277C105.237 59.9142 105.225 59.9008 105.214 59.8877Z" fill="#46494B"/>
<path fill-rule="evenodd" clip-rule="evenodd" d="M104.972 60.1908L104.985 60.1823L118.121 77.2845L118.122 77.2857C118.3 77.522 118.382 77.7781 118.382 78.0264V95.1668C118.382 95.8134 117.841 96.3551 117.184 96.3551H109.824L109.749 96.6388C109.078 99.2029 106.744 101.098 103.99 101.098C101.236 101.098 98.9027 99.2029 98.231 96.6388L98.1567 96.3551H54.2308L54.1564 96.6388C53.4847 99.2029 51.1509 101.098 48.3972 101.098C45.6435 101.098 43.3097 99.2029 42.638 96.6388L42.5636 96.3551H35.2037C34.5468 96.3551 34.0051 95.8134 34.0051 95.1668V77.7276C34.0051 77.081 34.5468 76.5393 35.2037 76.5393C35.8607 76.5393 36.4024 77.081 36.4024 77.7276V84.4933H89.5605V55.2032H58.9595C58.3025 55.2032 57.7609 54.6616 57.7609 54.0149C57.7609 53.3683 58.3025 52.8266 58.9595 52.8266H90.7967C91.4537 52.8266 91.9954 53.3683 91.9954 54.0149V59.6977H103.99C104.384 59.6977 104.732 59.8926 104.972 60.1908ZM54.194 93.732L54.2683 94.0158H89.6357V86.9073H36.4775V94.0158H42.6052L42.6768 93.7272C43.3113 91.1708 45.6774 89.2732 48.4348 89.2732C51.1885 89.2732 53.5223 91.1679 54.194 93.732ZM103.426 62.1117H98.5733V76.8754H114.76L103.426 62.1117ZM109.787 93.732L109.861 94.0158H116.023V79.2894H97.4123C96.7553 79.2894 96.2136 78.7477 96.2136 78.1011V62.1117H92.0705V94.0158H98.1982L98.2698 93.7272C98.9043 91.1708 101.27 89.2732 104.028 89.2732C106.782 89.2732 109.115 91.1679 109.787 93.732ZM44.8221 95.2041C44.8221 97.1715 46.423 98.7583 48.3972 98.7583C50.3714 98.7583 51.9723 97.1715 51.9723 95.2041C51.9723 93.2367 50.3714 91.6499 48.3972 91.6499C46.423 91.6499 44.8221 93.2367 44.8221 95.2041ZM100.415 95.2041C100.415 97.1715 102.016 98.7583 103.99 98.7583C105.964 98.7583 107.565 97.1715 107.565 95.2041C107.565 93.2367 105.964 91.6499 103.99 91.6499C102.016 91.6499 100.415 93.2367 100.415 95.2041Z" fill="#46494B"/>
<path d="M44.3553 44.1509L48.8523 45.3649L48.2158 44.4925C45.1765 40.3264 40.3275 37.7641 35.016 37.7641C26.0116 37.7641 18.6985 45.0656 18.6985 54.0149C18.6985 62.9654 26.0128 70.2284 35.016 70.2284C44.018 70.2284 51.3711 62.9665 51.3711 54.0149C51.3711 53.3683 51.9127 52.8266 52.5697 52.8266C53.2267 52.8266 53.7683 53.3683 53.7683 54.0149C53.7683 64.296 45.3707 72.6423 35.016 72.6423C24.6613 72.6423 16.2637 64.296 16.2637 54.0149C16.2637 43.7333 24.6612 35.3889 35.0133 35.4621H35.016C41.1315 35.4621 46.7311 38.4266 50.1942 43.2213L50.6613 43.868L51.6962 40.0357L51.6969 40.0332C51.867 39.3854 52.5181 39.0105 53.1885 39.1843C53.843 39.3539 54.2155 40.0365 54.0448 40.6585L52.2732 47.1743L52.2701 47.193C52.2388 47.3794 52.1774 47.5561 52.094 47.6942L52.0864 47.7067L52.0799 47.7198C51.9464 47.985 51.8083 48.1586 51.6204 48.2552C51.3868 48.3536 51.1804 48.4068 50.991 48.4068C50.961 48.4068 50.8931 48.3968 50.8098 48.3784C50.7731 48.3703 50.7401 48.3621 50.7163 48.356L50.6891 48.3487L50.6825 48.3469L50.6811 48.3465L50.6761 48.3451L43.7223 46.478L43.7191 46.4772C43.0629 46.3071 42.6903 45.6599 42.8637 44.9998C43.0336 44.3526 43.6837 43.9778 44.3535 44.1504L44.3553 44.1509Z" fill="#46494B"/>
<path d="M36.2149 41.9158V52.7892H45.3155C45.9724 52.7892 46.5141 53.3309 46.5141 53.9775C46.5141 54.6242 45.9724 55.1659 45.3155 55.1659H35.0163C34.3593 55.1659 33.8177 54.6242 33.8177 53.9775V41.9158C33.8177 41.2692 34.3593 40.7275 35.0163 40.7275C35.6733 40.7275 36.2149 41.2692 36.2149 41.9158Z" fill="#46494B"/>
</svg>
