<svg width="140" height="140" viewBox="0 0 140 140" fill="none" xmlns="http://www.w3.org/2000/svg">
<circle cx="70" cy="70" r="50" stroke="#444849" stroke-width="2"/>
<path d="M67.5802 98.9603V91.8396H72.1711V98.9603H67.5802ZM67.5802 48.7719V41.62H72.1711V48.7719H67.5802ZM70.4222 93.7447C67.4448 93.7447 64.7589 93.2138 62.3646 92.1519C59.991 91.0901 58.0234 89.591 56.4619 87.6547C54.9211 85.7183 53.9113 83.4281 53.4325 80.7838L57.8985 80.003C58.5856 82.8763 60.0639 85.1562 62.3333 86.8427C64.6236 88.5083 67.3824 89.3411 70.6096 89.3411C73.8784 89.3411 76.5227 88.55 78.5423 86.9676C80.5619 85.3644 81.5717 83.2719 81.5717 80.6901C81.5717 78.7746 81.0095 77.2443 79.8852 76.0992C78.7609 74.954 76.8558 73.9754 74.1699 73.1634L64.176 70.0403C58.138 68.1456 55.1189 64.5645 55.1189 59.2968C55.1189 56.84 55.7227 54.685 56.9303 52.832C58.1588 50.9581 59.8557 49.5006 62.021 48.4596C64.2072 47.4186 66.7577 46.9085 69.6726 46.9293C72.5251 46.9293 75.0756 47.4706 77.3243 48.5533C79.5937 49.6152 81.4572 51.1247 82.9146 53.0818C84.3721 55.039 85.3403 57.3605 85.8191 60.0464L81.2282 60.9208C80.9367 59.0053 80.26 57.3292 79.1981 55.8926C78.1571 54.456 76.8142 53.3421 75.1693 52.5509C73.5245 51.7389 71.6923 51.3225 69.6726 51.3016C67.7571 51.3016 66.0498 51.6348 64.5507 52.301C63.0516 52.9673 61.8649 53.8938 60.9904 55.0806C60.1367 56.2466 59.7099 57.5895 59.7099 59.1094C59.7099 60.7751 60.3033 62.1909 61.4901 63.3569C62.6977 64.502 64.6028 65.4702 67.2054 66.2613L75.7939 68.8535C79.4168 69.9362 82.0298 71.3937 83.633 73.2259C85.2362 75.0581 86.0378 77.5046 86.0378 80.5652C86.0378 83.2094 85.3923 85.5205 84.1014 87.4985C82.8105 89.4765 80.9887 91.0172 78.636 92.1207C76.3041 93.2034 73.5661 93.7447 70.4222 93.7447Z" fill="#444849"/>
</svg>
