<svg width="1440" height="191" viewBox="0 0 1440 191" fill="none" xmlns="http://www.w3.org/2000/svg">
<path fill-rule="evenodd" clip-rule="evenodd" d="M1440 -4.7269e-07V190.642H0V58.4508H10.1502C29.0047 58.4508 46.7541 67.3465 58.0381 82.4514L115.476 159.338C126.76 174.443 144.51 183.338 163.364 183.338H370.447C385.945 183.338 400.838 177.318 411.984 166.548L478.858 101.926C484.76 96.2238 493.086 94.2093 501.293 94.2093H890.82C916.417 94.3605 939.52 94.5719 960.431 94.7633L960.447 94.7634L960.457 94.7635L960.466 94.7636C1087.19 95.9236 1133.4 96.3465 1166.21 78.1655C1167.98 77.2276 1169.7 76.1998 1171.37 75.0849C1179.04 70.1756 1186.13 64.1137 1193.6 56.6435C1234.07 16.1654 1241.91 16.3109 1311.88 17.6105L1313.52 17.6408L1313.07 17.3553C1317 17.598 1321.25 17.7714 1325.76 17.858C1326.42 17.8689 1327.08 17.8797 1327.75 17.8904C1359.92 18.3178 1404.58 14.359 1440 -4.7269e-07Z" fill="white"/>
</svg>
