<?xml version="1.0" encoding="utf-8"?>
<!-- Generator: Adobe Illustrator 26.0.1, SVG Export Plug-In . SVG Version: 6.00 Build 0)  -->
<svg version="1.1" id="Слой_1" xmlns="http://www.w3.org/2000/svg" xmlns:xlink="http://www.w3.org/1999/xlink" x="0px" y="0px"
	 viewBox="0 0 976.1 660.8" style="enable-background:new 0 0 976.1 660.8;" xml:space="preserve">
<style type="text/css">
	.st0{fill:#5BA359;}
</style>
<g>
	<path class="st0" d="M12.1,627.4c0-4.3,0-8.7,0-13c2.6-4,4.7-8.6,7.9-12c6.6-7,14.2-13,20.6-20.2c26.4-29.3,42.6-62.8,41.7-103.4
		c-0.4-17,2.4-33.9,9.4-49.7c1.7-3.9,4.3-7.5,7-10.8c7.9-9.5,18.8-14.6,30.5-16.8c16.2-3.1,32.5-4.8,48.8-7.1
		c41.8-5.9,77.8-23.6,108.2-52.7c20.4-19.6,40.2-39.9,61.2-58.9c21.1-19.2,46-32.1,73.8-39.3c30.7-7.9,62.2-8.9,93.6-10.1
		c24.1-1,48.4,0.1,72.3-2.4c33.3-3.4,62.2-18,86.1-41.6c8.4-8.3,15.7-17.7,23.6-26.4c16.2-17.8,37.2-27.9,59.6-35.2
		c34.5-11.4,70.3-14.5,106.4-15.4c19.3-0.5,38.6,0.4,57.9,0.9c16,0.4,30,5.2,37.9,20.5c2.6,5.1,3.7,10.9,5.5,16.4
		c0,85.7,0,171.3,0,257c-0.4,3.1-0.7,6.2-1.2,9.3c-5.8,39-24.7,69.9-57.2,92.3c-30.1,20.7-64.1,29.3-100,30.2
		c-32.9,0.8-65.9-0.6-98.9-0.7c-20.5,0-40.9,0.4-61.4,1c-21.9,0.6-42.3,6.5-59.3,20.6c-15.7,13.1-30.5,27.3-45.4,41.2
		c-13.2,12.3-27.7,22.3-44.4,29.1c-28.2,11.5-58.1,14.1-88,15.8c-17.8,1-35.6,0.8-53.4,1.2c-1.6,0-3.2,0.6-4.8,0.9
		c-21.3,0-42.7,0-64,0c-1.9-0.3-3.9-0.9-5.8-0.9c-48.5-0.4-96.9-0.7-145.4-1c-30.3-0.1-60.6,0-91-0.1
		C29.7,646.3,18.2,641.2,12.1,627.4z"/>
	<path class="st0" d="M119.1,12.4c188.7,0,377.3,0,566,0c0.9,0.4,1.8,0.9,2.7,1.2c17.3,5.1,27.3,23.3,20.3,41.7
		c-6.1,16.1-12.6,31.9-21.8,46.5c-17.3,27.6-39.6,50-69.1,64.7c-23.2,11.5-47.8,16.2-73.4,16.9c-21.5,0.6-43,0.3-64.4,1.2
		c-17.3,0.7-34.5,2-51.7,4.1c-28.5,3.6-55.1,12.7-78.9,29.2c-24.8,17.2-46,38.4-66.5,60.2c-11.1,11.8-23,22.7-36.2,32
		c-37.4,26.2-78.8,39-124.8,37.7c-18.4-0.5-30.2-15.1-30.2-31.3c-0.2-89.3-0.2-178.6,0-267.9c0-8.6,2.7-16.6,8.5-23.4
		C105,18.8,111.9,15.5,119.1,12.4z"/>
</g>
<image style="overflow:visible;enable-background:new    ;" width="952" height="636" xlink:href="header_type_1.png"  transform="matrix(1 0 0 1 -996.5496 -20.4173)">
</image>
</svg>
