<?xml version="1.0" encoding="utf-8"?>
<!-- Generator: Adobe Illustrator 26.0.1, SVG Export Plug-In . SVG Version: 6.00 Build 0)  -->
<svg version="1.1" id="Слой_1" xmlns="http://www.w3.org/2000/svg" xmlns:xlink="http://www.w3.org/1999/xlink" x="0px" y="0px"
	 viewBox="0 0 52.7 27.2" style="enable-background:new 0 0 52.7 27.2;" xml:space="preserve">
<style type="text/css">
	.st0{font-family:'NatureBeautyPersonalUse';}
	.st1{font-size:12px;}
	.st2{fill:#5BA359;}
	.st3{fill:#FFFFFF;}
</style>
<text transform="matrix(0.8988 -0.4384 0.4384 0.8988 -26.3436 20.5294)" class="st0 st1">Grki</text>
<g>
	<g>
		<g>
			<path class="st2" d="M11,7.1c0,0,0.1-0.1,0.2,0s0.2,0.1,0.3,0.1c0.1,0.1,0.3,0.1,0.4,0.2c0.1,0.1,0.3,0.2,0.4,0.3
				s0.2,0.2,0.3,0.3c0.1,0.1,0.1,0.2,0.1,0.2l-0.1,1.1c0,0.8-0.1,1.5-0.2,2.3c-0.1,0.8-0.2,1.6-0.3,2.3c-0.2,0.7-0.4,1.5-0.6,2.1
				c-0.3,0.7-0.6,1.3-1,1.8c-0.4,0.5-0.9,1-1.5,1.3c-0.6,0.3-1.3,0.6-2.2,0.6c-0.6,0.1-1.2,0-1.7-0.1c-0.5-0.1-0.9-0.3-1.3-0.6
				s-0.7-0.6-0.9-0.9c-0.2-0.4-0.4-0.7-0.5-1.1c-0.1-0.5-0.2-1.1,0-1.6C2.5,15,2.7,14.5,3.1,14c-0.1-0.2-0.2-0.4-0.3-0.6
				c-0.1-0.2-0.2-0.4-0.2-0.6c-0.2-0.7-0.4-1.5-0.4-2.4c0-0.8,0.1-1.7,0.3-2.5c0.2-0.8,0.5-1.6,0.9-2.4c0.4-0.8,0.9-1.5,1.5-2.1
				C5.5,2.9,6.2,2.4,7,2s1.7-0.6,2.8-0.7c0.4,0,0.8,0,1.1,0.1c0.3,0.1,0.6,0.2,0.9,0.4c0.2,0.2,0.4,0.4,0.6,0.7
				c0.2,0.3,0.3,0.5,0.4,0.8c0.1,0.3,0.1,0.5,0.1,0.8c0,0.3,0,0.6,0,0.8c0,0.3-0.1,0.5-0.2,0.8c-0.1,0.2-0.2,0.4-0.3,0.6l0,0
				c0,0-0.1,0.1-0.1,0.1c-0.1,0-0.1,0.1-0.2,0.1c-0.1,0-0.2,0-0.3,0.1c-0.1,0-0.2,0-0.3,0c-0.2,0-0.5,0-0.7-0.1
				c-0.2-0.1-0.3-0.2-0.3-0.4l0.1-0.2c0.1-0.1,0.2-0.3,0.3-0.5C10.9,5.4,11,5.2,11.1,5c0.1-0.2,0.1-0.5,0.2-0.8c0-0.3,0-0.6-0.1-0.9
				c0-0.1-0.1-0.2-0.1-0.3c-0.1-0.1-0.1-0.2-0.2-0.3c-0.1-0.1-0.2-0.1-0.3-0.2c-0.1-0.1-0.3-0.1-0.4-0.1C9.4,2.5,8.8,2.7,8.2,3
				C7.6,3.4,7,3.8,6.6,4.3C6.1,4.8,5.7,5.4,5.3,6C4.9,6.7,4.6,7.3,4.4,8.1c-0.2,0.7-0.3,1.5-0.4,2.2c0,0.8,0,1.5,0.2,2.2
				c0,0.1,0,0.1,0.1,0.2c0,0.1,0,0.1,0.1,0.2c0.4-0.2,0.7-0.4,1.2-0.5C6,12.2,6.4,12.1,7,12.1c0.1,0,0.1,0,0.2,0c0.1,0,0.2,0,0.2,0
				c0.1,0,0.2,0.1,0.4,0.2c0.2,0.1,0.3,0.3,0.4,0.4c0.1,0.1,0.2,0.3,0.3,0.4c0.1,0.1,0,0.2,0,0.2c-0.3,0-0.5,0-0.8,0
				c-0.2,0-0.5,0-0.7,0c-0.4,0-0.8,0.1-1.1,0.2c-0.3,0.1-0.6,0.2-0.9,0.4c0.2,0.3,0.5,0.5,0.8,0.6c0.3,0.2,0.6,0.2,1,0.2
				c0.4,0,0.8-0.1,1.2-0.3c0.4-0.2,0.8-0.4,1.1-0.7c0.3-0.3,0.6-0.6,0.9-0.9s0.5-0.7,0.6-1l0.1-1c0-0.5,0.1-0.9,0.1-1.3
				c0-0.4,0.1-0.8,0.1-1.1c0-0.3,0-0.6,0.1-0.8c0-0.2,0-0.3,0-0.4L11,7.1z M7.2,15.8c-0.7,0.1-1.3,0-1.9-0.1c-0.5-0.2-1-0.4-1.4-0.7
				c-0.2,0.3-0.3,0.6-0.4,1c0,0.3,0,0.7,0.1,1c0.1,0.3,0.2,0.5,0.4,0.7c0.2,0.2,0.4,0.4,0.6,0.6c0.2,0.2,0.5,0.3,0.9,0.4
				c0.3,0.1,0.7,0.1,1.1,0.1c0.5-0.1,1-0.2,1.4-0.5c0.4-0.2,0.7-0.6,1-1c0.3-0.4,0.5-0.8,0.8-1.4c0.2-0.5,0.4-1.1,0.5-1.7
				c-0.4,0.4-0.9,0.7-1.4,1C8.3,15.5,7.7,15.7,7.2,15.8z"/>
			<path class="st2" d="M18.1,11.1c-0.1,0.3-0.2,0.6-0.4,0.9c-0.1,0.3-0.3,0.6-0.5,0.8c-0.2,0.3-0.4,0.5-0.7,0.6
				c-0.3,0.2-0.6,0.3-0.9,0.3c-0.2,0-0.4,0-0.5-0.1c-0.2-0.1-0.3-0.2-0.4-0.3c-0.1-0.1-0.2-0.3-0.3-0.4c-0.1-0.2-0.2-0.3-0.2-0.5
				C14,12.2,14,11.9,14,11.7c0-0.2,0-0.5,0.1-0.7c0-0.2,0.1-0.4,0.2-0.6c0.1-0.2,0.2-0.4,0.2-0.6l0.1-0.4l0,0L14.8,9
				c0-0.1,0.1-0.2,0.2-0.3c0.1-0.1,0.2-0.2,0.4-0.2c-0.1,0-0.2,0.1-0.2,0.1c-0.1,0-0.1,0-0.2,0.1c-0.1,0-0.2,0.1-0.3,0.1
				c-0.1,0-0.2,0.1-0.4,0.1l-0.1,0C14.1,9,14,9.3,14,9.6c-0.1,0.3-0.2,0.5-0.2,0.8l0,0c0,0-0.1,0.1-0.2,0.1c-0.1,0-0.2,0-0.3-0.1
				c-0.1,0-0.2-0.1-0.3-0.2C13,10.1,12.9,10,13,9.9l0,0l0.4-1.4c-0.1-0.1-0.2-0.3-0.3-0.5c-0.1-0.2-0.1-0.5,0-0.7
				c0.1-0.2,0.1-0.4,0.2-0.7c0-0.1,0.1-0.2,0.1-0.4c0-0.1,0-0.3,0.1-0.5c0.1,0.1,0.3,0.1,0.4,0.2c0.1,0.1,0.3,0.1,0.4,0.2
				c0.1,0.1,0.2,0.2,0.3,0.3c0.1,0.1,0.2,0.2,0.2,0.4c0,0.1,0,0.1,0,0.2c0,0.1,0,0.2,0,0.3L14.6,8c0,0.1,0,0.1,0.1,0
				c0.1,0,0.2-0.1,0.3-0.2c0.1-0.1,0.2-0.2,0.4-0.4c0.1-0.1,0.3-0.3,0.4-0.4c0.1-0.1,0.2-0.3,0.3-0.4c0.1-0.1,0.2-0.2,0.2-0.3
				c0,0,0.1,0,0.2,0.1c0.1,0,0.2,0.1,0.3,0.1c0.1,0.1,0.2,0.1,0.3,0.1c0.1,0,0.1,0.1,0.1,0.1c0.1,0.1,0.2,0.3,0.2,0.5
				c0,0.2,0,0.4,0,0.6c-0.1,0.2-0.1,0.5-0.2,0.7c-0.1,0.3-0.2,0.5-0.3,0.8c-0.1,0.2-0.1,0.3-0.2,0.5c-0.1,0.2-0.1,0.3-0.2,0.5
				c-0.1,0.1-0.1,0.3-0.2,0.4C16,10.9,16,11.1,16,11.2c0,0.2-0.1,0.3-0.1,0.5c0,0.1,0,0.3,0,0.4c0,0,0.1,0.1,0.2,0.1
				c0.1,0,0.2,0,0.3-0.1c0.1-0.1,0.2-0.2,0.3-0.3c0.1-0.1,0.2-0.3,0.3-0.5c0.1-0.2,0.2-0.4,0.3-0.6l0,0c0.1-0.3,0.2-0.5,0.2-0.8
				c0.1-0.3,0.1-0.5,0.2-0.7c0,0,0.1-0.1,0.2,0c0.1,0,0.2,0.1,0.3,0.1c0.1,0.1,0.2,0.1,0.3,0.2c0.1,0.1,0.1,0.1,0.1,0.2l0,0
				l-0.2,0.6L18.1,11.1L18.1,11.1z"/>
			<path class="st2" d="M24.2,9.2c-0.1,0.4-0.2,0.8-0.4,1.2c-0.1,0.4-0.3,0.9-0.5,1.2c-0.2,0.4-0.5,0.7-0.8,1
				c-0.3,0.3-0.7,0.4-1.1,0.5c-0.4,0-0.9-0.1-1.2-0.3c-0.4-0.2-0.7-0.6-1-1c0,0.4,0.1,0.8,0.1,1.2c0,0.1-0.1,0.1-0.2,0.1
				c-0.1,0-0.3,0-0.5-0.1c-0.2,0-0.3-0.1-0.5-0.2c-0.2-0.1-0.3-0.2-0.3-0.3c-0.1-0.5-0.2-1-0.2-1.5c0-0.5,0-1,0-1.5
				c0-0.5,0.1-1,0.2-1.5c0.1-0.5,0.2-1,0.3-1.5l0.1-0.8c0-0.3,0.1-0.6,0.1-0.9c0-0.3,0.1-0.6,0.1-0.9c0-0.3,0.1-0.6,0.1-0.9
				c0-0.3,0-0.6,0-0.8c0.1-0.1,0.2-0.1,0.4,0c0.2,0,0.4,0.1,0.6,0.3s0.4,0.3,0.5,0.4c0.2,0.2,0.2,0.3,0.2,0.5c0,0.1,0,0.3-0.1,0.5
				c0,0.2-0.1,0.5-0.1,0.8C20.1,5,20.1,5.3,20,5.6c-0.1,0.3-0.1,0.6-0.2,0.9l-0.1,0.3c0.2-0.2,0.4-0.4,0.6-0.5
				c0.2-0.2,0.5-0.3,0.7-0.3c0.1,0,0.2,0,0.4,0.1c0.2,0.1,0.3,0.2,0.5,0.3c0.1,0.1,0.3,0.3,0.4,0.4c0.1,0.2,0.1,0.3,0.1,0.4
				c0,0.3,0,0.6-0.1,0.8c-0.1,0.3-0.1,0.6-0.2,0.8C22.1,9.1,22,9.3,22,9.6c0,0.2,0,0.5,0,0.9c-0.3-0.1-0.6-0.2-0.8-0.3
				C21,10,20.8,9.9,20.7,9.8c-0.1-0.1-0.2-0.3-0.3-0.4c-0.1-0.1-0.1-0.2-0.2-0.4c0-0.1,0-0.2,0-0.3c0-0.1,0-0.2,0-0.2
				c0.1-0.2,0.2-0.5,0.2-0.6c0.1-0.2,0.1-0.3,0.1-0.4c-0.1,0.2-0.2,0.4-0.3,0.6c-0.1,0.2-0.2,0.3-0.3,0.5c-0.1,0.2-0.2,0.3-0.3,0.5
				c-0.1,0.3-0.1,0.6-0.1,0.8c0,0.2,0,0.5,0.1,0.7c0.1,0.2,0.1,0.4,0.3,0.6c0.1,0.2,0.3,0.3,0.4,0.4c0.2,0.1,0.3,0.2,0.5,0.2
				c0.2,0,0.3,0.1,0.5,0c0.3,0,0.6-0.2,0.9-0.4c0.2-0.2,0.5-0.5,0.6-0.8c0.2-0.3,0.3-0.6,0.4-1c0.1-0.3,0.2-0.7,0.3-0.9
				c0,0,0.1-0.1,0.2,0c0.1,0,0.2,0,0.3,0.1c0.1,0,0.2,0.1,0.3,0.2c0.1,0.1,0.1,0.1,0.1,0.2l0,0L24.2,9.2z"/>
			<path class="st2" d="M24.1,1.9c0.1,0,0.1,0,0.3,0c0.1,0,0.2,0.1,0.3,0.2c0.1,0.1,0.3,0.2,0.4,0.3c0.1,0.1,0.2,0.2,0.3,0.3
				s0.2,0.2,0.3,0.3c0.1,0.1,0.1,0.2,0.1,0.2c0,0.2,0,0.4,0,0.6c0,0.2-0.1,0.4-0.1,0.6c0,0.2-0.1,0.4-0.1,0.6c0,0.2,0,0.4,0,0.7
				c-0.1,0-0.2-0.1-0.4-0.1c-0.1-0.1-0.3-0.2-0.4-0.3c-0.1-0.1-0.3-0.2-0.4-0.3c-0.1-0.1-0.2-0.2-0.2-0.3c0-0.2-0.1-0.3-0.1-0.5
				c0-0.2,0-0.4,0-0.6c0-0.2,0-0.4,0-0.6c0-0.2,0-0.4-0.1-0.6L24.1,1.9z M23.9,5.7c0.1-0.1,0.2-0.1,0.4,0c0.2,0.1,0.4,0.1,0.6,0.3
				C25,6,25.2,6.2,25.3,6.4s0.2,0.4,0.2,0.6c0,0,0,0,0,0c0,0,0,0.1,0,0.2c0,0.1,0,0.2-0.1,0.3c0,0.1,0,0.2-0.1,0.3
				c0,0.2-0.1,0.5-0.2,0.7C25,8.7,25,9,24.9,9.3c-0.1,0.3-0.1,0.5-0.2,0.8c-0.1,0.3-0.1,0.5-0.1,0.7c0,0.2,0,0.4,0,0.5
				c0,0.1,0,0.2,0.1,0.2l0.1,0c0.2-0.1,0.4-0.3,0.6-0.5c0.2-0.2,0.3-0.4,0.4-0.7c0.1-0.2,0.2-0.5,0.3-0.8c0.1-0.3,0.2-0.5,0.3-0.8
				l0.1-0.3c0-0.1,0.1-0.1,0.2,0c0.1,0,0.2,0.1,0.3,0.1c0.1,0.1,0.2,0.1,0.2,0.2c0.1,0.1,0.1,0.1,0.1,0.2l0,0
				c-0.2,0.5-0.4,1.1-0.7,1.7c-0.3,0.6-0.6,1.1-0.9,1.5c-0.1,0.1-0.1,0.1-0.2,0.2c-0.1,0.1-0.2,0.2-0.3,0.2
				c-0.1,0.1-0.2,0.1-0.4,0.2c-0.1,0.1-0.3,0.1-0.4,0.1c-0.3,0-0.6-0.1-0.8-0.3c-0.2-0.2-0.4-0.5-0.5-0.8c0-0.1-0.1-0.3-0.1-0.4
				c0-0.1,0-0.3,0-0.4l0,0c0-0.4,0-0.9,0.1-1.4c0.1-0.5,0.2-1.1,0.2-1.6c0.1-0.4,0.1-0.7,0.2-1.1c0.1-0.3,0.1-0.7,0.1-0.9L23.9,5.7z
				"/>
		</g>
	</g>
	<path class="st2" d="M12.4,25.9c0.3-0.8,0.7-1.6,1.2-2.4c1.1-1.8,2.5-3.2,4.4-4.1c1.5-0.7,3.1-1,4.7-1.1c1.4,0,2.8,0,4.1-0.1
		c1.1,0,2.2-0.1,3.3-0.3c1.8-0.2,3.5-0.8,5.1-1.9c1.6-1.1,2.9-2.5,4.3-3.9c0.7-0.8,1.5-1.5,2.3-2c2.4-1.7,5.1-2.5,8-2.4
		c0.3,0,0.5,0.1,0.7,0.2c0-0.5,0-1,0-1.5c0-1-0.8-2-1.9-2c-2.9-0.1-5.6,0.7-8,2.4c-0.8,0.6-1.6,1.3-2.3,2c-1.3,1.4-2.7,2.8-4.3,3.9
		c-1.5,1.1-3.2,1.6-5.1,1.9c-1.1,0.1-2.2,0.2-3.3,0.3c-1.4,0.1-2.8,0-4.1,0.1c-1.6,0-3.2,0.3-4.7,1.1c-1.9,0.9-3.3,2.4-4.4,4.1
		c-0.6,0.9-1,1.9-1.4,3c-0.4,1.2,0.2,2.3,1.3,2.7C12.3,25.8,12.3,25.8,12.4,25.9z"/>
</g>
<path class="st2" d="M84.8-11c-12.1,0-24.2,0-36.3,0c-0.1,0-0.1-0.1-0.2-0.1c-1.1-0.3-1.7-1.5-1.3-2.7c0.4-1,0.8-2,1.4-3
	c1.1-1.8,2.5-3.2,4.4-4.1c1.5-0.7,3.1-1,4.7-1.1c1.4,0,2.8,0,4.1-0.1c1.1,0,2.2-0.1,3.3-0.3c1.8-0.2,3.5-0.8,5.1-1.9
	c1.6-1.1,2.9-2.5,4.3-3.9c0.7-0.8,1.5-1.5,2.3-2c2.4-1.7,5.1-2.5,8-2.4c1.2,0,1.9,1,1.9,2c0,5.7,0,11.4,0,17.2
	c0,0.6-0.2,1.1-0.5,1.5C85.7-11.4,85.2-11.2,84.8-11z"/>
<path class="st3" d="M86-7.7c-12.1,0-24.2,0-36.3,0c-0.1,0-0.1-0.1-0.2-0.1c-1.1-0.3-1.7-1.5-1.3-2.7c0.4-1,0.8-2,1.4-3
	c1.1-1.8,2.5-3.2,4.4-4.1c1.5-0.7,3.1-1,4.7-1.1c1.4,0,2.8,0,4.1-0.1c1.1,0,2.2-0.1,3.3-0.3c1.8-0.2,3.5-0.8,5.1-1.9
	c1.6-1.1,2.9-2.5,4.3-3.9c0.7-0.8,1.5-1.5,2.3-2c2.4-1.7,5.1-2.5,8-2.4c1.2,0,1.9,1,1.9,2c0,5.7,0,11.4,0,17.2
	c0,0.6-0.2,1.1-0.5,1.5C86.9-8.1,86.5-7.9,86-7.7z"/>
<path class="st2" d="M13.7-8.8c0-0.1,0-0.3,0-0.4c0.1-0.1,0.1-0.3,0.2-0.4c0.2-0.2,0.4-0.4,0.6-0.6c0.8-0.9,1.3-1.9,1.2-3.1
	c0-0.5,0.1-1,0.3-1.5c0.1-0.1,0.1-0.2,0.2-0.3c0.2-0.3,0.6-0.4,0.9-0.5c0.5-0.1,1-0.1,1.5-0.2c1.2-0.2,2.3-0.7,3.2-1.6
	c0.6-0.6,1.2-1.2,1.8-1.8c0.6-0.6,1.4-1,2.2-1.2c0.9-0.2,1.9-0.3,2.8-0.3c0.7,0,1.4,0,2.2-0.1c1-0.1,1.9-0.5,2.6-1.2
	c0.2-0.2,0.5-0.5,0.7-0.8c0.5-0.5,1.1-0.8,1.8-1c1-0.3,2.1-0.4,3.2-0.5c0.6,0,1.1,0,1.7,0c0.5,0,0.9,0.2,1.1,0.6
	c0.1,0.2,0.1,0.3,0.2,0.5c0,2.6,0,5.1,0,7.7c0,0.1,0,0.2,0,0.3c-0.2,1.2-0.7,2.1-1.7,2.7c-0.9,0.6-1.9,0.9-3,0.9c-1,0-2,0-2.9,0
	c-0.6,0-1.2,0-1.8,0c-0.7,0-1.3,0.2-1.8,0.6c-0.5,0.4-0.9,0.8-1.4,1.2c-0.4,0.4-0.8,0.7-1.3,0.9c-0.8,0.3-1.7,0.4-2.6,0.5
	c-0.5,0-1.1,0-1.6,0c0,0-0.1,0-0.1,0c-0.6,0-1.3,0-1.9,0c-0.1,0-0.1,0-0.2,0c-1.4,0-2.9,0-4.3,0c-0.9,0-1.8,0-2.7,0
	C14.3-8.2,13.9-8.4,13.7-8.8z"/>
</svg>
