<svg width="1440" height="628" viewBox="0 0 1440 628" fill="none" xmlns="http://www.w3.org/2000/svg">
<path d="M1440 14.5882C1412.14 53.5743 1338.44 62.615 1292.25 62.0013C1291.63 61.9913 1291 61.9812 1290.38 61.971C1286.16 61.8898 1282.18 61.7273 1278.5 61.5L1278.92 61.7675L1277.39 61.739C1211.83 60.5215 1204.49 60.3853 1166.57 98.3068C1159.57 105.305 1152.93 110.984 1145.75 115.583C1144.18 116.628 1142.57 117.591 1140.91 118.47C1110.17 135.502 1066.89 135.106 948.163 134.019L948.155 134.019C928.558 133.84 906.906 133.642 882.916 133.5H517.99C510.302 133.5 502.501 135.387 496.973 140.73L434.322 201.27C423.88 211.36 409.928 217 395.408 217H201.404C183.741 217 167.112 208.666 156.541 194.515L102.73 122.485C92.1591 108.334 75.5308 100 57.8671 100H40C31.1635 100 24 107.163 24 116V437.125C24 450.589 28.851 463.603 37.6641 473.781L130.201 580.656C140.838 592.941 156.286 600 172.536 600H1384C1414.89 600 1439.94 574.992 1440 544.118V628H0V0H1440V14.5882Z" fill="white"/>
</svg>
