<?xml version="1.0" encoding="utf-8"?>
<!-- Generator: Adobe Illustrator 26.0.1, SVG Export Plug-In . SVG Version: 6.00 Build 0)  -->
<svg version="1.1" id="Слой_1" xmlns="http://www.w3.org/2000/svg" xmlns:xlink="http://www.w3.org/1999/xlink" x="0px" y="0px"
	 viewBox="0 0 40 40" style="enable-background:new 0 0 40 40;" xml:space="preserve">
<style type="text/css">
	.st0{fill:#578EB2;}
	.st1{fill:#5BA359;}
</style>
<rect x="-8.8" y="-7.8" class="st0" width="56.8" height="52.8"/>
<path class="st1" d="M56.6,41.6c-18.3,0-36.6,0-55,0c-0.2,0-0.2-0.2-0.3-0.2c-1.7-0.6-2.6-2.8-2-5.1c0.6-1.9,1.2-3.8,2.1-5.7
	c1.7-3.4,3.8-6.1,6.7-7.8c2.3-1.3,4.7-1.9,7.1-2.1c2.1,0,4.2,0,6.2-0.2c1.7,0,3.3-0.2,5-0.6c2.7-0.4,5.3-1.5,7.7-3.6
	s4.4-4.7,6.5-7.4c1.1-1.5,2.3-2.8,3.5-3.8c3.6-3.2,7.7-4.7,12.1-4.6c1.8,0,2.9,1.9,2.9,3.8c0,10.8,0,21.6,0,32.6
	c0,1.1-0.3,2.1-0.8,2.8C58,40.8,57.2,41.2,56.6,41.6z"/>
</svg>
